AcariSans-BlackItalic.ufo
<glyph name="exclam" format="2">
  <advance width="649"/>
  <unicode hex="0021"/>
  <outline>
    <contour>
      <point x="417" y="454" type="line"/>
      <point x="679" y="1467" type="line"/>
      <point x="410" y="1467" type="line"/>
      <point x="206" y="454" type="line"/>
    </contour>
    <contour>
      <point x="355" y="0" type="line"/>
      <point x="420" y="293" type="line"/>
      <point x="125" y="293" type="line"/>
      <point x="60" y="0" type="line"/>
    </contour>
  </outline>
</glyph>
<glyph name="quotedbl" format="2">
  <advance width="892"/>
  <unicode hex="0022"/>
  <outline>
    <contour>
      <point x="199" y="850" type="line"/>
      <point x="430" y="850" type="line"/>
      <point x="568" y="1448" type="line"/>
      <point x="337" y="1448" type="line"/>
    </contour>
    <contour>
      <point x="619" y="850" type="line"/>
      <point x="850" y="850" type="line"/>
      <point x="988" y="1448" type="line"/>
      <point x="757" y="1448" type="line"/>
    </contour>
  </outline>
</glyph>
<glyph name="numbersign" format="2">
  <advance width="1417"/>
  <unicode hex="0023"/>
  <outline>
    <contour>
      <point x="762.88" y="0" type="line"/>
      <point x="951.296" y="404.48" type="line"/>
      <point x="1235.97" y="404.48" type="line"/>
      <point x="1285.12" y="611.328" type="line"/>
      <point x="1039.36" y="611.328" type="line"/>
      <point x="1147.9" y="857.088" type="line"/>
      <point x="1424.38" y="857.088" type="line"/>
      <point x="1471.49" y="1052.67" type="line"/>
      <point x="1233.92" y="1052.67" type="line"/>
      <point x="1427.46" y="1468.42" type="line"/>
      <point x="1206.27" y="1468.42" type="line"/>
      <point x="1005.57" y="1020.93" type="line"/>
      <point x="777.216" y="1020.93" type="line"/>
      <point x="978.944" y="1468.42" type="line"/>
      <point x="757.76" y="1468.42" type="line"/>
      <point x="566.272" y="1063.94" type="line"/>
      <point x="281.6" y="1063.94" type="line"/>
      <point x="232.448" y="857.088" type="line"/>
      <point x="477.184" y="857.088" type="line"/>
      <point x="369.664" y="611.328" type="line"/>
      <point x="92.16" y="611.328" type="line"/>
      <point x="46.08" y="415.744" type="line"/>
      <point x="283.648" y="415.744" type="line"/>
      <point x="93.184" y="0" type="line"/>
      <point x="314.368" y="0" type="line"/>
      <point x="507.904" y="446.464" type="line"/>
      <point x="740.352" y="446.464" type="line"/>
      <point x="543.744" y="0" type="line"/>
    </contour>
    <contour>
      <point x="820.224" y="611.328" type="line"/>
      <point x="588.8" y="611.328" type="line"/>
      <point x="697.344" y="857.088" type="line"/>
      <point x="928.768" y="857.088" type="line"/>
    </contour>
  </outline>
</glyph>
<glyph name="dollar" format="2">
  <advance width="1141"/>
  <unicode hex="0024"/>
  <outline>
    <contour>
      <point x="520.192" y="-251.904" type="line"/>
      <point x="580.608" y="-19.456" type="line"/>
      <point x="873.472" y="16.384"/>
      <point x="1096.7" y="243.712"/>
      <point x="1096.7" y="505.856" type="curve" smooth="yes"/>
      <point x="1096.7" y="865.28"/>
      <point x="537.6" y="857.088"/>
      <point x="537.6" y="1037.31" type="curve" smooth="yes"/>
      <point x="537.6" y="1129.47"/>
      <point x="647.168" y="1217.54"/>
      <point x="761.856" y="1217.54" type="curve" smooth="yes"/>
      <point x="859.136" y="1217.54"/>
      <point x="921.6" y="1177.6"/>
      <point x="943.104" y="1101.82" type="curve"/>
      <point x="1200.13" y="1214.46" type="line"/>
      <point x="1155.07" y="1351.68"/>
      <point x="1057.79" y="1434.62"/>
      <point x="909.312" y="1463.3" type="curve"/>
      <point x="970.752" y="1698.82" type="line"/>
      <point x="735.232" y="1698.82" type="line"/>
      <point x="674.816" y="1464.32" type="line"/>
      <point x="419.84" y="1404.93"/>
      <point x="249.856" y="1219.58"/>
      <point x="249.856" y="1002.5" type="curve" smooth="yes"/>
      <point x="249.856" y="624.64"/>
      <point x="812.032" y="669.696"/>
      <point x="812.032" y="468.992" type="curve" smooth="yes"/>
      <point x="812.032" y="343.04"/>
      <point x="681.984" y="240.64"/>
      <point x="521.216" y="240.64" type="curve" smooth="yes"/>
      <point x="371.712" y="240.64"/>
      <point x="291.84" y="303.104"/>
      <point x="291.84" y="418.816" type="curve" smooth="yes"/>
      <point x="291.84" y="425.984"/>
      <point x="292.864" y="433.152"/>
      <point x="293.888" y="446.464" type="curve"/>
      <point x="8.192" y="410.624" type="line"/>
      <point x="8.192" y="378.88" type="line" smooth="yes"/>
      <point x="8.192" y="182.272"/>
      <point x="138.24" y="33.792"/>
      <point x="347.136" y="-10.24" type="curve"/>
      <point x="284.672" y="-251.904" type="line"/>
    </contour>
  </outline>
</glyph>
<glyph name="percent" format="2">
  <advance width="1229"/>
  <unicode hex="0025"/>
  <outline>
    <contour>
      <point x="808" y="-14" type="curve" smooth="yes"/>
      <point x="1007" y="-14"/>
      <point x="1173" y="180"/>
      <point x="1173" y="412" type="curve" smooth="yes"/>
      <point x="1173" y="578"/>
      <point x="1081" y="681"/>
      <point x="933" y="681" type="curve" smooth="yes"/>
      <point x="730" y="681"/>
      <point x="564" y="488"/>
      <point x="564" y="252" type="curve" smooth="yes"/>
      <point x="564" y="82"/>
      <point x="652" y="-14"/>
    </contour>
    <contour>
      <point x="820" y="185" type="curve" smooth="yes"/>
      <point x="781" y="185"/>
      <point x="762" y="216"/>
      <point x="762" y="279" type="curve" smooth="yes"/>
      <point x="762" y="377"/>
      <point x="840" y="480"/>
      <point x="915" y="480" type="curve" smooth="yes"/>
      <point x="955" y="480"/>
      <point x="972" y="453"/>
      <point x="972" y="391" type="curve" smooth="yes"/>
      <point x="972" y="284"/>
      <point x="899" y="185"/>
    </contour>
    <contour>
      <point x="156" y="361" type="line"/>
      <point x="1274" y="925" type="line"/>
      <point x="1173" y="1095" type="line"/>
      <point x="62" y="534" type="line"/>
    </contour>
    <contour>
      <point x="400" y="775" type="curve" smooth="yes"/>
      <point x="599" y="775"/>
      <point x="765" y="969"/>
      <point x="765" y="1201" type="curve" smooth="yes"/>
      <point x="765" y="1367"/>
      <point x="673" y="1470"/>
      <point x="525" y="1470" type="curve" smooth="yes"/>
      <point x="322" y="1470"/>
      <point x="156" y="1277"/>
      <point x="156" y="1041" type="curve" smooth="yes"/>
      <point x="156" y="871"/>
      <point x="244" y="775"/>
    </contour>
    <contour>
      <point x="412" y="974" type="curve" smooth="yes"/>
      <point x="373" y="974"/>
      <point x="354" y="1005"/>
      <point x="354" y="1068" type="curve" smooth="yes"/>
      <point x="354" y="1166"/>
      <point x="432" y="1269"/>
      <point x="507" y="1269" type="curve" smooth="yes"/>
      <point x="547" y="1269"/>
      <point x="564" y="1242"/>
      <point x="564" y="1180" type="curve" smooth="yes"/>
      <point x="564" y="1073"/>
      <point x="491" y="974"/>
    </contour>
  </outline>
</glyph>
<glyph name="ampersand" format="2">
  <advance width="1414"/>
  <unicode hex="0026"/>
  <outline>
    <contour>
      <point x="1040" y="-85" type="line"/>
      <point x="1276" y="94" type="line"/>
      <point x="1121" y="325" type="line"/>
      <point x="1212" y="438"/>
      <point x="1271" y="554"/>
      <point x="1303" y="675" type="curve"/>
      <point x="1038" y="727" type="line"/>
      <point x="1029" y="668"/>
      <point x="1007" y="612"/>
      <point x="971" y="548" type="curve"/>
      <point x="849" y="725" type="line"/>
      <point x="1068" y="849"/>
      <point x="1188" y="1001"/>
      <point x="1188" y="1160" type="curve" smooth="yes"/>
      <point x="1188" y="1251"/>
      <point x="1153" y="1327"/>
      <point x="1093" y="1380" type="curve" smooth="yes"/>
      <point x="1033" y="1433"/>
      <point x="947" y="1464"/>
      <point x="847" y="1464" type="curve" smooth="yes"/>
      <point x="710" y="1464"/>
      <point x="588" y="1420"/>
      <point x="501" y="1346" type="curve" smooth="yes"/>
      <point x="413" y="1272"/>
      <point x="360" y="1167"/>
      <point x="360" y="1050" type="curve" smooth="yes"/>
      <point x="360" y="1004"/>
      <point x="368" y="961"/>
      <point x="384" y="921" type="curve"/>
      <point x="399" y="880"/>
      <point x="424" y="839"/>
      <point x="457" y="798" type="curve"/>
      <point x="309" y="722"/>
      <point x="199" y="642"/>
      <point x="126" y="558" type="curve" smooth="yes"/>
      <point x="53" y="473"/>
      <point x="16" y="383"/>
      <point x="16" y="288" type="curve" smooth="yes"/>
      <point x="16" y="189"/>
      <point x="56" y="111"/>
      <point x="129" y="58" type="curve" smooth="yes"/>
      <point x="202" y="5"/>
      <point x="309" y="-25"/>
      <point x="444" y="-25" type="curve" smooth="yes"/>
      <point x="521" y="-25"/>
      <point x="601" y="-12"/>
      <point x="678" y="13" type="curve" smooth="yes"/>
      <point x="755" y="38"/>
      <point x="832" y="75"/>
      <point x="904" y="124" type="curve"/>
    </contour>
    <contour>
      <point x="684" y="912" type="curve"/>
      <point x="647" y="980"/>
      <point x="631" y="1025"/>
      <point x="631" y="1064" type="curve" smooth="yes"/>
      <point x="631" y="1112"/>
      <point x="654" y="1159"/>
      <point x="691" y="1192" type="curve" smooth="yes"/>
      <point x="727" y="1225"/>
      <point x="777" y="1247"/>
      <point x="829" y="1247" type="curve" smooth="yes"/>
      <point x="862" y="1247"/>
      <point x="887" y="1241"/>
      <point x="904" y="1227" type="curve" smooth="yes"/>
      <point x="921" y="1213"/>
      <point x="930" y="1192"/>
      <point x="930" y="1165" type="curve" smooth="yes"/>
      <point x="930" y="1080"/>
      <point x="845" y="993"/>
    </contour>
    <contour>
      <point x="464" y="211" type="curve" smooth="yes"/>
      <point x="409" y="211"/>
      <point x="371" y="226"/>
      <point x="346" y="247" type="curve" smooth="yes"/>
      <point x="321" y="268"/>
      <point x="309" y="296"/>
      <point x="309" y="323" type="curve" smooth="yes"/>
      <point x="309" y="366"/>
      <point x="333" y="408"/>
      <point x="381" y="452" type="curve" smooth="yes"/>
      <point x="428" y="495"/>
      <point x="500" y="541"/>
      <point x="599" y="590" type="curve"/>
      <point x="774" y="323" type="line"/>
      <point x="725" y="286"/>
      <point x="673" y="259"/>
      <point x="621" y="240" type="curve" smooth="yes"/>
      <point x="568" y="220"/>
      <point x="516" y="211"/>
    </contour>
  </outline>
</glyph>
<glyph name="quotesingle" format="2">
  <advance width="624"/>
  <unicode hex="0027"/>
  <outline>
    <contour>
      <point x="515" y="879" type="line"/>
      <point x="651" y="1477" type="line"/>
      <point x="419" y="1477" type="line"/>
      <point x="282" y="879" type="line"/>
    </contour>
  </outline>
</glyph>
<glyph name="parenleft" format="2">
  <advance width="589"/>
  <unicode hex="0028"/>
  <outline>
    <contour>
      <point x="433" y="-151" type="line"/>
      <point x="346" y="4"/>
      <point x="304" y="156"/>
      <point x="304" y="309" type="curve" smooth="yes"/>
      <point x="304" y="545"/>
      <point x="354" y="789"/>
      <point x="447" y="1015" type="curve" smooth="yes"/>
      <point x="540" y="1241"/>
      <point x="677" y="1447"/>
      <point x="850" y="1610" type="curve"/>
      <point x="590" y="1610" type="line"/>
      <point x="535" y="1563"/>
      <point x="484" y="1508"/>
      <point x="439" y="1445" type="curve" smooth="yes"/>
      <point x="347" y="1317"/>
      <point x="275" y="1168"/>
      <point x="220" y="1007" type="curve" smooth="yes"/>
      <point x="193" y="926"/>
      <point x="170" y="845"/>
      <point x="152" y="764" type="curve" smooth="yes"/>
      <point x="115" y="601"/>
      <point x="97" y="442"/>
      <point x="97" y="305" type="curve" smooth="yes"/>
      <point x="97" y="201"/>
      <point x="106" y="110"/>
      <point x="123" y="34" type="curve" smooth="yes"/>
      <point x="140" y="-43"/>
      <point x="165" y="-104"/>
      <point x="200" y="-151" type="curve"/>
    </contour>
  </outline>
</glyph>
<glyph name="parenright" format="2">
  <advance width="588"/>
  <unicode hex="0029"/>
  <outline>
    <contour>
      <point x="90" y="-150" type="line"/>
      <point x="412" y="115"/>
      <point x="597" y="762"/>
      <point x="597" y="1159" type="curve" smooth="yes"/>
      <point x="597" y="1341"/>
      <point x="563" y="1504"/>
      <point x="494" y="1610" type="curve"/>
      <point x="253" y="1610" type="line"/>
      <point x="337" y="1473"/>
      <point x="379" y="1301"/>
      <point x="379" y="1129" type="curve" smooth="yes"/>
      <point x="379" y="657"/>
      <point x="176" y="180"/>
      <point x="-160" y="-150" type="curve"/>
    </contour>
  </outline>
</glyph>
<glyph name="asterisk" format="2">
  <advance width="930"/>
  <unicode hex="002A"/>
  <outline>
    <contour>
      <point x="439" y="849" type="line"/>
      <point x="595" y="1054" type="line"/>
      <point x="657" y="849" type="line"/>
      <point x="860" y="965" type="line"/>
      <point x="736" y="1116" type="line"/>
      <point x="971" y="1144" type="line"/>
      <point x="943" y="1333" type="line"/>
      <point x="721" y="1255" type="line"/>
      <point x="796" y="1447" type="line"/>
      <point x="569" y="1447" type="line"/>
      <point x="554" y="1255" type="line"/>
      <point x="361" y="1333" type="line"/>
      <point x="249" y="1144" type="line"/>
      <point x="467" y="1116" type="line"/>
      <point x="279" y="965" type="line"/>
    </contour>
  </outline>
</glyph>
<glyph name="plus" format="2">
  <advance width="1276"/>
  <unicode hex="002B"/>
  <outline>
    <contour>
      <point x="744" y="109" type="line"/>
      <point x="744" y="532" type="line"/>
      <point x="1212" y="532" type="line"/>
      <point x="1212" y="745" type="line"/>
      <point x="744" y="745" type="line"/>
      <point x="744" y="1170" type="line"/>
      <point x="534" y="1170" type="line"/>
      <point x="534" y="745" type="line"/>
      <point x="66" y="745" type="line"/>
      <point x="66" y="532" type="line"/>
      <point x="534" y="532" type="line"/>
      <point x="534" y="109" type="line"/>
    </contour>
  </outline>
</glyph>
<glyph name="comma" format="2">
  <advance width="614"/>
  <unicode hex="002C"/>
  <outline>
    <contour>
      <point x="100" y="-230" type="line"/>
      <point x="446" y="270" type="line"/>
      <point x="128" y="270" type="line"/>
      <point x="-90" y="-230" type="line"/>
    </contour>
  </outline>
</glyph>
<glyph name="hyphen" format="2">
  <advance width="918"/>
  <unicode hex="002D"/>
  <outline>
    <contour>
      <point x="760" y="487" type="line"/>
      <point x="829" y="757" type="line"/>
      <point x="209" y="757" type="line"/>
      <point x="140" y="487" type="line"/>
    </contour>
  </outline>
</glyph>
<glyph name="period" format="2">
  <advance width="614"/>
  <unicode hex="002E"/>
  <outline>
    <contour>
      <point x="331.776" y="0" type="line"/>
      <point x="397.312" y="292.864" type="line"/>
      <point x="130.048" y="292.864" type="line"/>
      <point x="64.512" y="0" type="line"/>
    </contour>
  </outline>
</glyph>
<glyph name="slash" format="2">
  <advance width="955"/>
  <unicode hex="002F"/>
  <outline>
    <contour>
      <point x="-17" y="-440" type="line"/>
      <point x="1253" y="1552" type="line"/>
      <point x="989" y="1552" type="line"/>
      <point x="-278" y="-440" type="line"/>
    </contour>
  </outline>
</glyph>
<glyph name="zero" format="2">
  <advance width="1229"/>
  <unicode hex="0030"/>
  <outline>
    <contour>
      <point x="525" y="-20" type="curve" smooth="yes"/>
      <point x="980" y="-20"/>
      <point x="1230" y="540"/>
      <point x="1230" y="930" type="curve" smooth="yes"/>
      <point x="1230" y="1192"/>
      <point x="1116" y="1470"/>
      <point x="813" y="1470" type="curve" smooth="yes"/>
      <point x="346" y="1470"/>
      <point x="105" y="908"/>
      <point x="105" y="508" type="curve" smooth="yes"/>
      <point x="105" y="234"/>
      <point x="215" y="-20"/>
    </contour>
    <contour>
      <point x="570" y="255" type="curve" smooth="yes"/>
      <point x="411" y="255"/>
      <point x="375" y="397"/>
      <point x="375" y="530" type="curve" smooth="yes"/>
      <point x="375" y="732"/>
      <point x="504" y="1190"/>
      <point x="764" y="1190" type="curve" smooth="yes"/>
      <point x="919" y="1190"/>
      <point x="948" y="1042"/>
      <point x="948" y="916" type="curve" smooth="yes"/>
      <point x="948" y="725"/>
      <point x="816" y="255"/>
    </contour>
  </outline>
</glyph>
<glyph name="one" format="2">
  <advance width="1229"/>
  <unicode hex="0031"/>
  <outline>
    <contour>
      <point x="735" y="0" type="line"/>
      <point x="1069" y="1447" type="line"/>
      <point x="793" y="1447" type="line"/>
      <point x="774" y="1337"/>
      <point x="712" y="1256"/>
      <point x="594" y="1256" type="curve" smooth="yes"/>
      <point x="359" y="1256" type="line"/>
      <point x="311" y="1038" type="line"/>
      <point x="690" y="1038" type="line"/>
      <point x="450" y="0" type="line"/>
    </contour>
  </outline>
</glyph>
<glyph name="two" format="2">
  <advance width="1229"/>
  <unicode hex="0032"/>
  <outline>
    <contour>
      <point x="-71.68" y="0" type="line"/>
      <point x="1054.72" y="0" type="line"/>
      <point x="1116.16" y="261.12" type="line"/>
      <point x="485.376" y="261.12" type="line"/>
      <point x="886.784" y="458.752"/>
      <point x="1226.75" y="848.896"/>
      <point x="1226.75" y="1111.04" type="curve" smooth="yes"/>
      <point x="1226.75" y="1320.96"/>
      <point x="1063.94" y="1468.42"/>
      <point x="830.464" y="1468.42" type="curve" smooth="yes"/>
      <point x="547.84" y="1468.42"/>
      <point x="269.312" y="1231.87"/>
      <point x="199.68" y="933.888" type="curve"/>
      <point x="472.064" y="892.928" type="line"/>
      <point x="522.24" y="1085.44"/>
      <point x="648.192" y="1207.3"/>
      <point x="797.696" y="1207.3" type="curve" smooth="yes"/>
      <point x="889.856" y="1207.3"/>
      <point x="940.032" y="1165.31"/>
      <point x="940.032" y="1086.46" type="curve" smooth="yes"/>
      <point x="940.032" y="889.856"/>
      <point x="487.424" y="488.448"/>
      <point x="-23.5521" y="231.424" type="curve"/>
    </contour>
  </outline>
</glyph>
<glyph name="three" format="2">
  <advance width="1229"/>
  <unicode hex="0033"/>
  <outline>
    <contour>
      <point x="481" y="-20" type="curve" smooth="yes"/>
      <point x="863" y="-20"/>
      <point x="1143" y="207"/>
      <point x="1143" y="518" type="curve" smooth="yes"/>
      <point x="1143" y="631"/>
      <point x="1105" y="713"/>
      <point x="1023" y="774" type="curve"/>
      <point x="1139" y="864"/>
      <point x="1210" y="1000"/>
      <point x="1210" y="1133" type="curve" smooth="yes"/>
      <point x="1210" y="1328"/>
      <point x="1045" y="1468"/>
      <point x="816" y="1468" type="curve" smooth="yes"/>
      <point x="527" y="1468"/>
      <point x="293" y="1292"/>
      <point x="240" y="1034" type="curve"/>
      <point x="521" y="1034" type="line"/>
      <point x="563" y="1133"/>
      <point x="657" y="1196"/>
      <point x="770" y="1196" type="curve" smooth="yes"/>
      <point x="867" y="1196"/>
      <point x="928" y="1158"/>
      <point x="928" y="1098" type="curve" smooth="yes"/>
      <point x="928" y="987"/>
      <point x="827" y="896"/>
      <point x="703" y="896" type="curve" smooth="yes"/>
      <point x="548" y="896" type="line"/>
      <point x="486" y="639" type="line"/>
      <point x="657" y="639" type="line" smooth="yes"/>
      <point x="793" y="639"/>
      <point x="871" y="593"/>
      <point x="871" y="512" type="curve" smooth="yes"/>
      <point x="871" y="368"/>
      <point x="714" y="249"/>
      <point x="526" y="249" type="curve" smooth="yes"/>
      <point x="391" y="249"/>
      <point x="312" y="311"/>
      <point x="312" y="418" type="curve" smooth="yes"/>
      <point x="312" y="437"/>
      <point x="314" y="457"/>
      <point x="318" y="480" type="curve"/>
      <point x="43" y="480" type="line"/>
      <point x="33" y="442"/>
      <point x="28" y="401"/>
      <point x="28" y="362" type="curve" smooth="yes"/>
      <point x="28" y="134"/>
      <point x="211" y="-20"/>
    </contour>
  </outline>
</glyph>
<glyph name="four" format="2">
  <advance width="1229"/>
  <unicode hex="0034"/>
  <outline>
    <contour>
      <point x="849.92" y="0" type="line"/>
      <point x="920.576" y="324.608" type="line"/>
      <point x="1139.71" y="324.608" type="line"/>
      <point x="1198.08" y="591.872" type="line"/>
      <point x="978.944" y="591.872" type="line"/>
      <point x="1167.36" y="1446.91" type="line"/>
      <point x="924.672" y="1446.91" type="line"/>
      <point x="33.792" y="489.472" type="line"/>
      <point x="0" y="324.608" type="line"/>
      <point x="634.88" y="324.608" type="line"/>
      <point x="565.248" y="0" type="line"/>
    </contour>
    <contour>
      <point x="693.248" y="591.872" type="line"/>
      <point x="430.08" y="591.872" type="line"/>
      <point x="780.288" y="982.016" type="line"/>
    </contour>
  </outline>
</glyph>
<glyph name="five" format="2">
  <advance width="1229"/>
  <unicode hex="0035"/>
  <outline>
    <contour>
      <point x="555" y="-20" type="curve" smooth="yes"/>
      <point x="639" y="-20"/>
      <point x="719" y="-5"/>
      <point x="795" y="25" type="curve" smooth="yes"/>
      <point x="871" y="54"/>
      <point x="938" y="97"/>
      <point x="995" y="152" type="curve" smooth="yes"/>
      <point x="1052" y="207"/>
      <point x="1098" y="275"/>
      <point x="1132" y="354" type="curve" smooth="yes"/>
      <point x="1165" y="433"/>
      <point x="1182" y="522"/>
      <point x="1182" y="621" type="curve" smooth="yes"/>
      <point x="1182" y="736"/>
      <point x="1140" y="833"/>
      <point x="1068" y="902" type="curve" smooth="yes"/>
      <point x="995" y="970"/>
      <point x="892" y="1010"/>
      <point x="769" y="1010" type="curve" smooth="yes"/>
      <point x="737" y="1010"/>
      <point x="696" y="1005"/>
      <point x="654" y="997" type="curve" smooth="yes"/>
      <point x="612" y="988"/>
      <point x="569" y="975"/>
      <point x="534" y="955" type="curve"/>
      <point x="636" y="1178" type="line"/>
      <point x="1238" y="1178" type="line"/>
      <point x="1299" y="1447" type="line"/>
      <point x="464" y="1447" type="line"/>
      <point x="143" y="676" type="line"/>
      <point x="397" y="607" type="line"/>
      <point x="432" y="647"/>
      <point x="477" y="682"/>
      <point x="525" y="706" type="curve" smooth="yes"/>
      <point x="573" y="730"/>
      <point x="623" y="744"/>
      <point x="668" y="744" type="curve" smooth="yes"/>
      <point x="791" y="744"/>
      <point x="864" y="682"/>
      <point x="864" y="554" type="curve" smooth="yes"/>
      <point x="864" y="474"/>
      <point x="835" y="396"/>
      <point x="782" y="339" type="curve" smooth="yes"/>
      <point x="729" y="282"/>
      <point x="650" y="245"/>
      <point x="550" y="245" type="curve" smooth="yes"/>
      <point x="486" y="245"/>
      <point x="431" y="265"/>
      <point x="392" y="306" type="curve" smooth="yes"/>
      <point x="353" y="347"/>
      <point x="330" y="409"/>
      <point x="330" y="493" type="curve"/>
      <point x="51" y="443" type="line"/>
      <point x="51" y="310"/>
      <point x="105" y="194"/>
      <point x="195" y="111" type="curve" smooth="yes"/>
      <point x="285" y="28"/>
      <point x="410" y="-20"/>
    </contour>
  </outline>
</glyph>
<glyph name="six" format="2">
  <advance width="1229"/>
  <unicode hex="0036"/>
  <outline>
    <contour>
      <point x="496" y="-20" type="curve" smooth="yes"/>
      <point x="550" y="-20"/>
      <point x="604" y="-13"/>
      <point x="659" y="1" type="curve" smooth="yes"/>
      <point x="767" y="29"/>
      <point x="867" y="82"/>
      <point x="952" y="155" type="curve" smooth="yes"/>
      <point x="994" y="192"/>
      <point x="1031" y="233"/>
      <point x="1062" y="278" type="curve" smooth="yes"/>
      <point x="1125" y="368"/>
      <point x="1162" y="474"/>
      <point x="1162" y="589" type="curve" smooth="yes"/>
      <point x="1162" y="720"/>
      <point x="1125" y="820"/>
      <point x="1058" y="888" type="curve" smooth="yes"/>
      <point x="990" y="955"/>
      <point x="894" y="989"/>
      <point x="775" y="989" type="curve" smooth="yes"/>
      <point x="755" y="989"/>
      <point x="733" y="989"/>
      <point x="712" y="986" type="curve"/>
      <point x="1143" y="1447" type="line"/>
      <point x="803" y="1447" type="line"/>
      <point x="203" y="753" type="line" smooth="yes"/>
      <point x="111" y="646"/>
      <point x="59" y="537"/>
      <point x="59" y="393" type="curve" smooth="yes"/>
      <point x="59" y="269"/>
      <point x="108" y="165"/>
      <point x="187" y="93" type="curve" smooth="yes"/>
      <point x="266" y="21"/>
      <point x="375" y="-20"/>
    </contour>
    <contour>
      <point x="551" y="253" type="curve" smooth="yes"/>
      <point x="499" y="253"/>
      <point x="447" y="267"/>
      <point x="408" y="295" type="curve" smooth="yes"/>
      <point x="368" y="323"/>
      <point x="342" y="367"/>
      <point x="342" y="424" type="curve" smooth="yes"/>
      <point x="342" y="503"/>
      <point x="387" y="580"/>
      <point x="451" y="637" type="curve" smooth="yes"/>
      <point x="515" y="693"/>
      <point x="598" y="730"/>
      <point x="674" y="730" type="curve" smooth="yes"/>
      <point x="726" y="730"/>
      <point x="777" y="717"/>
      <point x="815" y="689" type="curve" smooth="yes"/>
      <point x="853" y="661"/>
      <point x="878" y="620"/>
      <point x="878" y="561" type="curve" smooth="yes"/>
      <point x="878" y="482"/>
      <point x="834" y="405"/>
      <point x="771" y="348" type="curve" smooth="yes"/>
      <point x="708" y="291"/>
      <point x="627" y="253"/>
    </contour>
  </outline>
</glyph>
<glyph name="seven" format="2">
  <advance width="1229"/>
  <unicode hex="0037"/>
  <outline>
    <contour>
      <point x="390" y="0" type="line"/>
      <point x="1335" y="1298" type="line"/>
      <point x="1369" y="1447" type="line"/>
      <point x="299" y="1447" type="line"/>
      <point x="238" y="1181" type="line"/>
      <point x="950" y="1181" type="line"/>
      <point x="65" y="0" type="line"/>
    </contour>
  </outline>
</glyph>
<glyph name="eight" format="2">
  <advance width="1229"/>
  <unicode hex="0038"/>
  <outline>
    <contour>
      <point x="492" y="-20" type="qcurve" smooth="yes"/>
      <point x="572" y="-20"/>
      <point x="731" y="8"/>
      <point x="878" y="65"/>
      <point x="1005" y="151"/>
      <point x="1098" y="269"/>
      <point x="1152" y="419"/>
      <point x="1152" y="510" type="qcurve" smooth="yes"/>
      <point x="1152" y="590"/>
      <point x="1094" y="722"/>
      <point x="1026" y="768" type="qcurve"/>
      <point x="1068" y="801"/>
      <point x="1140" y="882"/>
      <point x="1194" y="973"/>
      <point x="1225" y="1075"/>
      <point x="1225" y="1130" type="qcurve" smooth="yes"/>
      <point x="1225" y="1217"/>
      <point x="1158" y="1344"/>
      <point x="1045" y="1428"/>
      <point x="899" y="1468"/>
      <point x="821" y="1468" type="qcurve" smooth="yes"/>
      <point x="719" y="1468"/>
      <point x="519" y="1404"/>
      <point x="359" y="1283"/>
      <point x="260" y="1107"/>
      <point x="260" y="995" type="qcurve" smooth="yes"/>
      <point x="260" y="940"/>
      <point x="291" y="840"/>
      <point x="326" y="797" type="qcurve"/>
      <point x="262" y="762"/>
      <point x="155" y="665"/>
      <point x="78" y="547"/>
      <point x="36" y="411"/>
      <point x="36" y="336" type="qcurve" smooth="yes"/>
      <point x="36" y="244"/>
      <point x="118" y="109"/>
      <point x="248" y="22"/>
      <point x="411" y="-20"/>
    </contour>
    <contour>
      <point x="692" y="894" type="qcurve" smooth="yes"/>
      <point x="666" y="894"/>
      <point x="611" y="903"/>
      <point x="567" y="927"/>
      <point x="539" y="968"/>
      <point x="539" y="1000" type="qcurve" smooth="yes"/>
      <point x="539" y="1046"/>
      <point x="586" y="1120"/>
      <point x="660" y="1172"/>
      <point x="748" y="1200"/>
      <point x="790" y="1200" type="qcurve" smooth="yes"/>
      <point x="815" y="1200"/>
      <point x="870" y="1192"/>
      <point x="915" y="1170"/>
      <point x="945" y="1131"/>
      <point x="945" y="1099" type="qcurve" smooth="yes"/>
      <point x="945" y="1053"/>
      <point x="897" y="977"/>
      <point x="823" y="923"/>
      <point x="734" y="894"/>
    </contour>
    <contour>
      <point x="537" y="243" type="qcurve" smooth="yes"/>
      <point x="503" y="243"/>
      <point x="428" y="254"/>
      <point x="365" y="284"/>
      <point x="323" y="337"/>
      <point x="323" y="380" type="qcurve" smooth="yes"/>
      <point x="323" y="446"/>
      <point x="383" y="545"/>
      <point x="479" y="610"/>
      <point x="598" y="642"/>
      <point x="656" y="642" type="qcurve" smooth="yes"/>
      <point x="688" y="642"/>
      <point x="763" y="632"/>
      <point x="827" y="603"/>
      <point x="870" y="551"/>
      <point x="870" y="510" type="qcurve" smooth="yes"/>
      <point x="870" y="446"/>
      <point x="808" y="347"/>
      <point x="711" y="279"/>
      <point x="593" y="243"/>
    </contour>
  </outline>
</glyph>
<glyph name="nine" format="2">
  <advance width="1229"/>
  <unicode hex="0039"/>
  <outline>
    <contour>
      <point x="833.384" y="1468.48" type="curve" smooth="yes"/>
      <point x="506.728" y="1468.48"/>
      <point x="166.76" y="1204.29"/>
      <point x="166.76" y="859.2" type="curve" smooth="yes"/>
      <point x="166.76" y="596.032"/>
      <point x="316.264" y="458.816"/>
      <point x="553.832" y="458.816" type="curve" smooth="yes"/>
      <point x="574.312" y="458.816"/>
      <point x="595.816" y="459.84"/>
      <point x="617.32" y="461.888" type="curve"/>
      <point x="186.216" y="1.08793" type="line"/>
      <point x="526.184" y="1.08793" type="line"/>
      <point x="1126.25" y="695.36" type="line" smooth="yes"/>
      <point x="1217.38" y="801.856"/>
      <point x="1269.61" y="911.424"/>
      <point x="1269.61" y="1054.78" type="curve" smooth="yes"/>
      <point x="1269.61" y="1303.62"/>
      <point x="1074.02" y="1468.48"/>
    </contour>
    <contour>
      <point x="778.088" y="1195.07" type="curve" smooth="yes"/>
      <point x="881.512" y="1195.07"/>
      <point x="986.984" y="1139.78"/>
      <point x="986.984" y="1024.06" type="curve" smooth="yes"/>
      <point x="986.984" y="865.344"/>
      <point x="806.76" y="717.888"/>
      <point x="655.208" y="717.888" type="curve" smooth="yes"/>
      <point x="551.784" y="717.888"/>
      <point x="451.432" y="771.136"/>
      <point x="451.432" y="886.848" type="curve" smooth="yes"/>
      <point x="451.432" y="1043.52"/>
      <point x="626.536" y="1195.07"/>
    </contour>
  </outline>
</glyph>
<glyph name="colon" format="2">
  <advance width="614"/>
  <unicode hex="003A"/>
  <outline>
    <contour>
      <point x="500.736" y="684.032" type="line"/>
      <point x="569.344" y="976.896" type="line"/>
      <point x="274.432" y="976.896" type="line"/>
      <point x="206.848" y="684.032" type="line"/>
    </contour>
    <contour>
      <point x="345.088" y="0" type="line"/>
      <point x="410.624" y="292.864" type="line"/>
      <point x="115.712" y="292.864" type="line"/>
      <point x="50.176" y="0" type="line"/>
    </contour>
  </outline>
</glyph>
<glyph name="semicolon" format="2">
  <advance width="614"/>
  <unicode hex="003B"/>
  <outline>
    <contour>
      <point x="476" y="684" type="line"/>
      <point x="544" y="977" type="line"/>
      <point x="249" y="977" type="line"/>
      <point x="179" y="684" type="line"/>
    </contour>
    <contour>
      <point x="101" y="-230" type="line"/>
      <point x="450" y="270" type="line"/>
      <point x="129" y="270" type="line"/>
      <point x="-88" y="-230" type="line"/>
    </contour>
  </outline>
</glyph>
<glyph name="less" format="2">
  <advance width="1271"/>
  <unicode hex="003C"/>
  <outline>
    <contour>
      <point x="1061.89" y="149.504" type="line"/>
      <point x="1178.62" y="351.232" type="line"/>
      <point x="476.16" y="690.176" type="line"/>
      <point x="1178.62" y="1029.12" type="line"/>
      <point x="1061.89" y="1229.82" type="line"/>
      <point x="25.6" y="690.176" type="line"/>
    </contour>
  </outline>
</glyph>
<glyph name="equal" format="2">
  <advance width="1297"/>
  <unicode hex="003D"/>
  <outline>
    <contour>
      <point x="1085" y="763" type="line"/>
      <point x="1085" y="996" type="line"/>
      <point x="213" y="996" type="line"/>
      <point x="213" y="763" type="line"/>
    </contour>
    <contour>
      <point x="1085" y="379" type="line"/>
      <point x="1085" y="613" type="line"/>
      <point x="213" y="613" type="line"/>
      <point x="213" y="379" type="line"/>
    </contour>
  </outline>
</glyph>
<glyph name="greater" format="2">
  <advance width="1272"/>
  <unicode hex="003E"/>
  <outline>
    <contour>
      <point x="208.896" y="149.504" type="line"/>
      <point x="1245.18" y="690.176" type="line"/>
      <point x="208.896" y="1229.82" type="line"/>
      <point x="92.16" y="1029.12" type="line"/>
      <point x="794.624" y="690.176" type="line"/>
      <point x="92.16" y="351.232" type="line"/>
    </contour>
  </outline>
</glyph>
<glyph name="question" format="2">
  <advance width="1011"/>
  <unicode hex="003F"/>
  <outline>
    <contour>
      <point x="597" y="450" type="line"/>
      <point x="611" y="520" type="line" smooth="yes"/>
      <point x="617" y="551"/>
      <point x="642" y="600"/>
      <point x="675" y="638"/>
      <point x="716" y="666"/>
      <point x="738" y="677" type="qcurve" smooth="yes"/>
      <point x="813" y="713"/>
      <point x="944" y="801"/>
      <point x="1042" y="910"/>
      <point x="1098" y="1043"/>
      <point x="1098" y="1124" type="qcurve" smooth="yes"/>
      <point x="1098" y="1207"/>
      <point x="1044" y="1335"/>
      <point x="941" y="1423"/>
      <point x="791" y="1468"/>
      <point x="694" y="1468" type="qcurve" smooth="yes"/>
      <point x="583" y="1468"/>
      <point x="401" y="1395"/>
      <point x="262" y="1265"/>
      <point x="168" y="1086"/>
      <point x="144" y="981" type="qcurve"/>
      <point x="380" y="981" type="line"/>
      <point x="394" y="1042"/>
      <point x="451" y="1138"/>
      <point x="534" y="1203"/>
      <point x="641" y="1238"/>
      <point x="707" y="1238" type="qcurve" smooth="yes"/>
      <point x="741" y="1238"/>
      <point x="797" y="1219"/>
      <point x="837" y="1184"/>
      <point x="859" y="1135"/>
      <point x="859" y="1104" type="qcurve" smooth="yes"/>
      <point x="859" y="1070"/>
      <point x="821" y="1002"/>
      <point x="759" y="939"/>
      <point x="678" y="886"/>
      <point x="635" y="866" type="qcurve"/>
      <point x="566" y="836"/>
      <point x="481" y="777"/>
      <point x="428" y="700"/>
      <point x="396" y="593"/>
      <point x="379" y="515" type="qcurve" smooth="yes"/>
      <point x="365" y="450" type="line"/>
    </contour>
    <contour>
      <point x="530" y="0" type="line"/>
      <point x="595" y="293" type="line"/>
      <point x="300" y="293" type="line"/>
      <point x="236" y="0" type="line"/>
    </contour>
  </outline>
</glyph>
<glyph name="at" format="2">
  <advance width="2041"/>
  <unicode hex="0040"/>
  <outline>
    <contour>
      <point x="815" y="-356" type="qcurve" smooth="yes"/>
      <point x="902" y="-356"/>
      <point x="1067" y="-334"/>
      <point x="1150" y="-306" type="qcurve"/>
      <point x="1109" y="-96" type="line"/>
      <point x="1044" y="-117"/>
      <point x="917" y="-140"/>
      <point x="849" y="-140" type="qcurve" smooth="yes"/>
      <point x="738" y="-140"/>
      <point x="530" y="-81"/>
      <point x="370" y="40"/>
      <point x="273" y="222"/>
      <point x="273" y="344" type="qcurve" smooth="yes"/>
      <point x="273" y="467"/>
      <point x="346" y="698"/>
      <point x="475" y="901"/>
      <point x="652" y="1070"/>
      <point x="862" y="1192"/>
      <point x="1095" y="1260"/>
      <point x="1215" y="1260" type="qcurve" smooth="yes"/>
      <point x="1332" y="1260"/>
      <point x="1540" y="1194"/>
      <point x="1695" y="1065"/>
      <point x="1786" y="874"/>
      <point x="1786" y="750" type="qcurve" smooth="yes"/>
      <point x="1786" y="694"/>
      <point x="1762" y="558"/>
      <point x="1715" y="421"/>
      <point x="1645" y="291"/>
      <point x="1552" y="190"/>
      <point x="1437" y="129"/>
      <point x="1368" y="129" type="qcurve" smooth="yes"/>
      <point x="1358" y="129"/>
      <point x="1338" y="138"/>
      <point x="1324" y="156"/>
      <point x="1315" y="183"/>
      <point x="1315" y="201" type="qcurve" smooth="yes"/>
      <point x="1315" y="213"/>
      <point x="1327" y="265"/>
      <point x="1351" y="339"/>
      <point x="1390" y="434"/>
      <point x="1416" y="492" type="qcurve" smooth="yes"/>
      <point x="1665" y="1031" type="line"/>
      <point x="1448" y="1043" type="line"/>
      <point x="1410" y="961" type="line"/>
      <point x="1392" y="996"/>
      <point x="1340" y="1046"/>
      <point x="1278" y="1079"/>
      <point x="1207" y="1094"/>
      <point x="1168" y="1094" type="qcurve" smooth="yes"/>
      <point x="1084" y="1094"/>
      <point x="922" y="1028"/>
      <point x="777" y="915"/>
      <point x="656" y="765"/>
      <point x="568" y="599"/>
      <point x="518" y="425"/>
      <point x="518" y="344" type="qcurve" smooth="yes"/>
      <point x="518" y="277"/>
      <point x="553" y="164"/>
      <point x="623" y="82"/>
      <point x="728" y="37"/>
      <point x="799" y="37" type="qcurve" smooth="yes"/>
      <point x="842" y="37"/>
      <point x="925" y="52"/>
      <point x="1003" y="80"/>
      <point x="1077" y="122"/>
      <point x="1111" y="148" type="qcurve"/>
      <point x="1111" y="88"/>
      <point x="1141" y="0"/>
      <point x="1201" y="-58"/>
      <point x="1292" y="-85"/>
      <point x="1354" y="-85" type="qcurve" smooth="yes"/>
      <point x="1455" y="-85"/>
      <point x="1628" y="-10"/>
      <point x="1770" y="116"/>
      <point x="1879" y="283"/>
      <point x="1953" y="469"/>
      <point x="1992" y="661"/>
      <point x="1992" y="750" type="qcurve" smooth="yes"/>
      <point x="1992" y="917"/>
      <point x="1880" y="1183"/>
      <point x="1681" y="1368"/>
      <point x="1406" y="1466"/>
      <point x="1243" y="1466" type="qcurve" smooth="yes"/>
      <point x="1091" y="1466"/>
      <point x="798" y="1386"/>
      <point x="536" y="1240"/>
      <point x="316" y="1034"/>
      <point x="156" y="782"/>
      <point x="67" y="492"/>
      <point x="67" y="334" type="qcurve" smooth="yes"/>
      <point x="67" y="173"/>
      <point x="181" y="-83"/>
      <point x="382" y="-261"/>
      <point x="656" y="-356"/>
    </contour>
    <contour>
      <point x="837" y="251" type="qcurve" smooth="yes"/>
      <point x="781" y="251"/>
      <point x="719" y="297"/>
      <point x="719" y="355" type="qcurve" smooth="yes"/>
      <point x="719" y="411"/>
      <point x="754" y="532"/>
      <point x="816" y="649"/>
      <point x="902" y="754"/>
      <point x="1004" y="833"/>
      <point x="1118" y="880"/>
      <point x="1178" y="880" type="qcurve" smooth="yes"/>
      <point x="1204" y="880"/>
      <point x="1247" y="870"/>
      <point x="1278" y="846"/>
      <point x="1295" y="808"/>
      <point x="1295" y="779" type="qcurve" smooth="yes"/>
      <point x="1295" y="726"/>
      <point x="1258" y="605"/>
      <point x="1193" y="488"/>
      <point x="1105" y="381"/>
      <point x="1003" y="299"/>
      <point x="892" y="251"/>
    </contour>
  </outline>
</glyph>
<glyph name="A" format="2">
  <advance width="1388"/>
  <unicode hex="0041"/>
  <anchor x="922" y="1620" name="top"/>
  <anchor x="1271" y="0" name="ogonek"/>
  <anchor x="574" y="-120" name="bottom"/>
  <outline>
    <contour>
      <point x="1271" y="0" type="line"/>
      <point x="1017" y="1448" type="line"/>
      <point x="800" y="1448" type="line"/>
      <point x="-123" y="0" type="line"/>
      <point x="198" y="0" type="line"/>
      <point x="818" y="1020" type="line"/>
      <point x="962" y="0" type="line"/>
    </contour>
    <contour>
      <point x="912" y="559" type="line"/>
      <point x="508" y="559" type="line"/>
      <point x="350" y="314" type="line"/>
      <point x="953" y="314" type="line"/>
    </contour>
  </outline>
  <guideline angle="90" name="vertical" x="922" y="0"/>
</glyph>
<glyph name="B" format="2">
  <advance width="1314"/>
  <unicode hex="0042"/>
  <outline>
    <contour>
      <point x="669" y="0" type="line" smooth="yes"/>
      <point x="768" y="0"/>
      <point x="967" y="72"/>
      <point x="1127" y="201"/>
      <point x="1227" y="379"/>
      <point x="1227" y="485" type="qcurve" smooth="yes"/>
      <point x="1227" y="524"/>
      <point x="1210" y="609"/>
      <point x="1174" y="687"/>
      <point x="1117" y="749"/>
      <point x="1078" y="764" type="qcurve"/>
      <point x="1128" y="790"/>
      <point x="1212" y="869"/>
      <point x="1272" y="965"/>
      <point x="1306" y="1075"/>
      <point x="1306" y="1132" type="qcurve" smooth="yes"/>
      <point x="1306" y="1216"/>
      <point x="1241" y="1335"/>
      <point x="1133" y="1412"/>
      <point x="993" y="1448"/>
      <point x="919" y="1448" type="qcurve" smooth="yes"/>
      <point x="392" y="1448" type="line"/>
      <point x="59" y="0" type="line"/>
    </contour>
    <contour>
      <point x="821" y="881" type="qcurve" smooth="yes"/>
      <point x="553" y="881" type="line"/>
      <point x="623" y="1186" type="line"/>
      <point x="876" y="1186" type="line" smooth="yes"/>
      <point x="901" y="1186"/>
      <point x="959" y="1177"/>
      <point x="1008" y="1154"/>
      <point x="1041" y="1114"/>
      <point x="1041" y="1082" type="qcurve" smooth="yes"/>
      <point x="1041" y="1038"/>
      <point x="1003" y="964"/>
      <point x="942" y="911"/>
      <point x="863" y="881"/>
    </contour>
    <contour>
      <point x="712" y="279" type="qcurve" smooth="yes"/>
      <point x="414" y="279" type="line"/>
      <point x="495" y="632" type="line"/>
      <point x="792" y="632" type="line" smooth="yes"/>
      <point x="819" y="632"/>
      <point x="877" y="618"/>
      <point x="925" y="589"/>
      <point x="956" y="543"/>
      <point x="956" y="510" type="qcurve" smooth="yes"/>
      <point x="956" y="462"/>
      <point x="914" y="378"/>
      <point x="845" y="315"/>
      <point x="757" y="279"/>
    </contour>
  </outline>
</glyph>
<glyph name="C" format="2">
  <advance width="1466"/>
  <unicode hex="0043"/>
  <anchor x="990" y="1620" name="top"/>
  <anchor x="659" y="0" name="cedilla"/>
  <outline>
    <contour>
      <point x="664.576" y="-20.48" type="curve" smooth="yes"/>
      <point x="987.136" y="-20.48"/>
      <point x="1231.87" y="124.928"/>
      <point x="1406.98" y="394.24" type="curve"/>
      <point x="1163.26" y="526.336" type="line"/>
      <point x="1060.86" y="354.304"/>
      <point x="914.432" y="257.024"/>
      <point x="710.656" y="257.024" type="curve" smooth="yes"/>
      <point x="510.976" y="257.024"/>
      <point x="384" y="345.088"/>
      <point x="384" y="555.008" type="curve" smooth="yes"/>
      <point x="384" y="869.376"/>
      <point x="602.112" y="1217.54"/>
      <point x="945.152" y="1217.54" type="curve" smooth="yes"/>
      <point x="1116.16" y="1217.54"/>
      <point x="1258.5" y="1137.66"/>
      <point x="1258.5" y="949.248" type="curve"/>
      <point x="1549.31" y="1034.24" type="line"/>
      <point x="1498.11" y="1323.01"/>
      <point x="1273.86" y="1470.46"/>
      <point x="990.208" y="1470.46" type="curve" smooth="yes"/>
      <point x="464.896" y="1470.46"/>
      <point x="97.28" y="1025.02"/>
      <point x="97.28" y="523.264" type="curve" smooth="yes"/>
      <point x="97.28" y="176.128"/>
      <point x="325.632" y="-20.48"/>
    </contour>
  </outline>
  <guideline angle="90" name="vertical" x="990" y="0"/>
</glyph>
<glyph name="D" format="2">
  <advance width="1442"/>
  <unicode hex="0044"/>
  <anchor x="891" y="1620" name="top"/>
  <outline>
    <contour>
      <point x="497.664" y="0" type="line" smooth="yes"/>
      <point x="1063.94" y="0"/>
      <point x="1442.82" y="368.64"/>
      <point x="1442.82" y="924.672" type="curve" smooth="yes"/>
      <point x="1442.82" y="1309.7"/>
      <point x="1169.41" y="1446.91"/>
      <point x="821.248" y="1446.91" type="curve" smooth="yes"/>
      <point x="392.192" y="1446.91" type="line"/>
      <point x="59.392" y="0" type="line"/>
    </contour>
    <contour>
      <point x="521.216" y="266.24" type="curve" smooth="yes"/>
      <point x="410.624" y="266.24" type="line"/>
      <point x="621.568" y="1178.62" type="line"/>
      <point x="769.024" y="1178.62" type="line" smooth="yes"/>
      <point x="954.368" y="1178.62"/>
      <point x="1159.17" y="1160.19"/>
      <point x="1159.17" y="923.648" type="curve" smooth="yes"/>
      <point x="1159.17" y="531.456"/>
      <point x="930.816" y="266.24"/>
    </contour>
  </outline>
  <guideline angle="90" name="vertical" x="891" y="0"/>
</glyph>
<glyph name="E" format="2">
  <advance width="1275"/>
  <unicode hex="0045"/>
  <outline>
    <contour>
      <point x="1029" y="0" type="line"/>
      <point x="1094" y="276" type="line"/>
      <point x="414" y="276" type="line"/>
      <point x="484" y="588" type="line"/>
      <point x="1133" y="588" type="line"/>
      <point x="1194" y="858" type="line"/>
      <point x="545" y="858" type="line"/>
      <point x="622" y="1179" type="line"/>
      <point x="1302" y="1179" type="line"/>
      <point x="1362" y="1448" type="line"/>
      <point x="392" y="1448" type="line"/>
      <point x="59" y="0" type="line"/>
    </contour>
  </outline>
</glyph>
<glyph name="F" format="2">
  <advance width="1275"/>
  <unicode hex="0046"/>
  <outline>
    <contour>
      <point x="349" y="0" type="line"/>
      <point x="484" y="588" type="line"/>
      <point x="1159" y="588" type="line"/>
      <point x="1220" y="858" type="line"/>
      <point x="545" y="858" type="line"/>
      <point x="622" y="1179" type="line"/>
      <point x="1386" y="1179" type="line"/>
      <point x="1448" y="1448" type="line"/>
      <point x="392" y="1448" type="line"/>
      <point x="59" y="0" type="line"/>
    </contour>
  </outline>
</glyph>
<glyph name="G" format="2">
  <advance width="1579"/>
  <unicode hex="0047"/>
  <outline>
    <contour>
      <point x="666" y="-20" type="curve" smooth="yes"/>
      <point x="755" y="-20"/>
      <point x="841" y="-7"/>
      <point x="919" y="24" type="curve" smooth="yes"/>
      <point x="997" y="55"/>
      <point x="1067" y="103"/>
      <point x="1126" y="172" type="curve"/>
      <point x="1113" y="0" type="line"/>
      <point x="1339" y="0" type="line"/>
      <point x="1524" y="798" type="line"/>
      <point x="812" y="798" type="line"/>
      <point x="760" y="573" type="line"/>
      <point x="1190" y="573" type="line"/>
      <point x="1153" y="484"/>
      <point x="1085" y="400"/>
      <point x="1001" y="338" type="curve" smooth="yes"/>
      <point x="917" y="276"/>
      <point x="817" y="237"/>
      <point x="718" y="237" type="curve" smooth="yes"/>
      <point x="614" y="237"/>
      <point x="530" y="261"/>
      <point x="473" y="313" type="curve" smooth="yes"/>
      <point x="416" y="364"/>
      <point x="384" y="443"/>
      <point x="384" y="551" type="curve" smooth="yes"/>
      <point x="384" y="604"/>
      <point x="390" y="657"/>
      <point x="403" y="710" type="curve" smooth="yes"/>
      <point x="427" y="817"/>
      <point x="474" y="916"/>
      <point x="540" y="1003" type="curve" smooth="yes"/>
      <point x="573" y="1046"/>
      <point x="610" y="1084"/>
      <point x="653" y="1116" type="curve" smooth="yes"/>
      <point x="737" y="1180"/>
      <point x="839" y="1220"/>
      <point x="952" y="1220" type="curve" smooth="yes"/>
      <point x="1044" y="1220"/>
      <point x="1122" y="1202"/>
      <point x="1179" y="1159" type="curve" smooth="yes"/>
      <point x="1235" y="1116"/>
      <point x="1271" y="1049"/>
      <point x="1276" y="950" type="curve"/>
      <point x="1548" y="1034" type="line"/>
      <point x="1520" y="1177"/>
      <point x="1451" y="1286"/>
      <point x="1355" y="1359" type="curve" smooth="yes"/>
      <point x="1258" y="1432"/>
      <point x="1132" y="1470"/>
      <point x="991" y="1470" type="curve" smooth="yes"/>
      <point x="902" y="1470"/>
      <point x="819" y="1458"/>
      <point x="741" y="1435" type="curve" smooth="yes"/>
      <point x="584" y="1388"/>
      <point x="451" y="1303"/>
      <point x="346" y="1186" type="curve" smooth="yes"/>
      <point x="293" y="1127"/>
      <point x="249" y="1063"/>
      <point x="213" y="993" type="curve" smooth="yes"/>
      <point x="140" y="852"/>
      <point x="99" y="690"/>
      <point x="99" y="522" type="curve" smooth="yes"/>
      <point x="99" y="349"/>
      <point x="156" y="213"/>
      <point x="256" y="121" type="curve" smooth="yes"/>
      <point x="355" y="29"/>
      <point x="497" y="-20"/>
    </contour>
  </outline>
</glyph>
<glyph name="H" format="2">
  <advance width="1536"/>
  <unicode hex="0048"/>
  <anchor x="942" y="1620" name="top"/>
  <outline>
    <contour>
      <point x="1242" y="0" type="line"/>
      <point x="1576" y="1448" type="line"/>
      <point x="1286" y="1448" type="line"/>
      <point x="1148" y="858" type="line"/>
      <point x="545" y="858" type="line"/>
      <point x="682" y="1448" type="line"/>
      <point x="392" y="1448" type="line"/>
      <point x="59" y="0" type="line"/>
      <point x="349" y="0" type="line"/>
      <point x="484" y="588" type="line"/>
      <point x="1086" y="588" type="line"/>
      <point x="952" y="0" type="line"/>
    </contour>
  </outline>
  <guideline angle="90" name="vertical" x="942" y="0"/>
</glyph>
<glyph name="I" format="2">
  <advance width="642"/>
  <unicode hex="0049"/>
  <anchor x="562" y="1620" name="top"/>
  <anchor x="349" y="0" name="ogonek"/>
  <outline>
    <contour>
      <point x="349" y="0" type="line"/>
      <point x="682" y="1448" type="line"/>
      <point x="392" y="1448" type="line"/>
      <point x="59" y="0" type="line"/>
    </contour>
  </outline>
  <guideline angle="90" name="vertical" x="562" y="0"/>
</glyph>
<glyph name="J" format="2">
  <advance width="1170"/>
  <unicode hex="004A"/>
  <outline>
    <contour>
      <point x="402" y="-20" type="qcurve" smooth="yes"/>
      <point x="534" y="-20"/>
      <point x="740" y="53"/>
      <point x="893" y="191"/>
      <point x="996" y="389"/>
      <point x="1025" y="513" type="qcurve" smooth="yes"/>
      <point x="1240" y="1447" type="line"/>
      <point x="952" y="1447" type="line"/>
      <point x="740" y="537" type="line"/>
      <point x="726" y="474"/>
      <point x="685" y="369"/>
      <point x="619" y="293"/>
      <point x="520" y="251"/>
      <point x="449" y="251" type="qcurve" smooth="yes"/>
      <point x="407" y="251"/>
      <point x="347" y="273"/>
      <point x="308" y="315"/>
      <point x="290" y="377"/>
      <point x="290" y="417" type="qcurve" smooth="yes"/>
      <point x="290" y="435"/>
      <point x="293" y="467"/>
      <point x="296" y="481" type="qcurve"/>
      <point x="9" y="481" type="line"/>
      <point x="5" y="453"/>
      <point x="2" y="403"/>
      <point x="2" y="378" type="qcurve" smooth="yes"/>
      <point x="2" y="289"/>
      <point x="61" y="142"/>
      <point x="166" y="37"/>
      <point x="314" y="-20"/>
    </contour>
  </outline>
</glyph>
<glyph name="K" format="2">
  <advance width="1537"/>
  <unicode hex="004B"/>
  <outline>
    <contour>
      <point x="1414" y="0" type="line"/>
      <point x="1022" y="847" type="line"/>
      <point x="1751" y="1447" type="line"/>
      <point x="1355" y="1447" type="line"/>
      <point x="513" y="722" type="line"/>
      <point x="682" y="1447" type="line"/>
      <point x="392" y="1447" type="line"/>
      <point x="59" y="0" type="line"/>
      <point x="349" y="0" type="line"/>
      <point x="436" y="369" type="line"/>
      <point x="777" y="650" type="line"/>
      <point x="1057" y="0" type="line"/>
    </contour>
  </outline>
</glyph>
<glyph name="L" format="2">
  <advance width="1095"/>
  <unicode hex="004C"/>
  <outline>
    <contour>
      <point x="968" y="0" type="line"/>
      <point x="1032" y="276" type="line"/>
      <point x="414" y="276" type="line"/>
      <point x="682" y="1448" type="line"/>
      <point x="392" y="1448" type="line"/>
      <point x="59" y="0" type="line"/>
    </contour>
  </outline>
</glyph>
<glyph name="M" format="2">
  <advance width="1850"/>
  <unicode hex="004D"/>
  <outline>
    <contour>
      <point x="1556.48" y="0" type="line"/>
      <point x="1890.3" y="1446.91" type="line"/>
      <point x="1511.42" y="1446.91" type="line"/>
      <point x="910.336" y="458.752" type="line"/>
      <point x="766.976" y="1446.91" type="line"/>
      <point x="392.192" y="1446.91" type="line"/>
      <point x="59.392" y="0" type="line"/>
      <point x="334.848" y="0" type="line"/>
      <point x="570.368" y="1011.71" type="line"/>
      <point x="699.392" y="125.952" type="line"/>
      <point x="974.848" y="125.952" type="line"/>
      <point x="1514.5" y="1011.71" type="line"/>
      <point x="1278.98" y="0" type="line"/>
    </contour>
  </outline>
</glyph>
<glyph name="N" format="2">
  <advance width="1498"/>
  <unicode hex="004E"/>
  <anchor x="992" y="1620" name="top"/>
  <anchor x="657" y="-120" name="bottom"/>
  <outline>
    <contour>
      <point x="1204.22" y="0" type="line"/>
      <point x="1538.05" y="1446.91" type="line"/>
      <point x="1260.54" y="1446.91" type="line"/>
      <point x="1041.41" y="510.976" type="line"/>
      <point x="657.408" y="1446.91" type="line"/>
      <point x="392.192" y="1446.91" type="line"/>
      <point x="59.392" y="0" type="line"/>
      <point x="334.848" y="0" type="line"/>
      <point x="555.008" y="937.984" type="line"/>
      <point x="937.984" y="0" type="line"/>
    </contour>
  </outline>
  <guideline angle="90" name="vertical" x="992" y="0"/>
</glyph>
<glyph name="O" format="2">
  <advance width="1566"/>
  <unicode hex="004F"/>
  <outline>
    <contour>
      <point x="663" y="-20" type="qcurve" smooth="yes"/>
      <point x="795" y="-20"/>
      <point x="1031" y="47"/>
      <point x="1232" y="168"/>
      <point x="1393" y="339"/>
      <point x="1505" y="547"/>
      <point x="1566" y="788"/>
      <point x="1566" y="918" type="qcurve" smooth="yes"/>
      <point x="1566" y="1050"/>
      <point x="1487" y="1254"/>
      <point x="1340" y="1395"/>
      <point x="1131" y="1468"/>
      <point x="1000" y="1468" type="qcurve" smooth="yes"/>
      <point x="868" y="1468"/>
      <point x="631" y="1401"/>
      <point x="431" y="1278"/>
      <point x="269" y="1106"/>
      <point x="157" y="895"/>
      <point x="96" y="651"/>
      <point x="96" y="519" type="qcurve" smooth="yes"/>
      <point x="96" y="390"/>
      <point x="179" y="189"/>
      <point x="329" y="52"/>
      <point x="537" y="-20"/>
    </contour>
    <contour>
      <point x="713" y="236" type="qcurve" smooth="yes"/>
      <point x="639" y="236"/>
      <point x="523" y="271"/>
      <point x="444" y="343"/>
      <point x="402" y="454"/>
      <point x="402" y="530" type="qcurve" smooth="yes"/>
      <point x="402" y="608"/>
      <point x="435" y="769"/>
      <point x="498" y="920"/>
      <point x="592" y="1054"/>
      <point x="714" y="1153"/>
      <point x="863" y="1211"/>
      <point x="950" y="1211" type="qcurve" smooth="yes"/>
      <point x="1100" y="1211"/>
      <point x="1261" y="1070"/>
      <point x="1261" y="915" type="qcurve" smooth="yes"/>
      <point x="1261" y="837"/>
      <point x="1228" y="676"/>
      <point x="1164" y="525"/>
      <point x="1070" y="392"/>
      <point x="948" y="293"/>
      <point x="800" y="236"/>
    </contour>
  </outline>
</glyph>
<glyph name="P" format="2">
  <advance width="1247"/>
  <unicode hex="0050"/>
  <outline>
    <contour>
      <point x="346" y="0" type="line"/>
      <point x="481" y="585" type="line"/>
      <point x="615" y="585" type="line" smooth="yes"/>
      <point x="940" y="585"/>
      <point x="1292" y="707"/>
      <point x="1292" y="1098" type="curve" smooth="yes"/>
      <point x="1292" y="1352"/>
      <point x="1075" y="1448"/>
      <point x="853" y="1448" type="curve" smooth="yes"/>
      <point x="392" y="1448" type="line"/>
      <point x="59" y="0" type="line"/>
    </contour>
    <contour>
      <point x="715" y="858" type="curve" smooth="yes"/>
      <point x="543" y="858" type="line"/>
      <point x="616" y="1175" type="line"/>
      <point x="802" y="1175" type="line" smooth="yes"/>
      <point x="872" y="1175"/>
      <point x="1008" y="1171"/>
      <point x="1008" y="1073" type="curve" smooth="yes"/>
      <point x="1008" y="912"/>
      <point x="848" y="858"/>
    </contour>
  </outline>
</glyph>
<glyph name="Q" format="2">
  <advance width="1617"/>
  <unicode hex="0051"/>
  <outline>
    <contour>
      <point x="1235" y="-129" type="line"/>
      <point x="1463" y="47" type="line"/>
      <point x="1295" y="233" type="line"/>
      <point x="1382" y="324"/>
      <point x="1448" y="434"/>
      <point x="1495" y="554" type="curve" smooth="yes"/>
      <point x="1542" y="673"/>
      <point x="1566" y="801"/>
      <point x="1566" y="925" type="curve" smooth="yes"/>
      <point x="1566" y="1098"/>
      <point x="1510" y="1234"/>
      <point x="1411" y="1327" type="curve" smooth="yes"/>
      <point x="1311" y="1419"/>
      <point x="1171" y="1468"/>
      <point x="1000" y="1468" type="curve" smooth="yes"/>
      <point x="913" y="1468"/>
      <point x="831" y="1457"/>
      <point x="753" y="1435" type="curve" smooth="yes"/>
      <point x="596" y="1391"/>
      <point x="461" y="1309"/>
      <point x="353" y="1195" type="curve" smooth="yes"/>
      <point x="299" y="1138"/>
      <point x="253" y="1074"/>
      <point x="215" y="1005" type="curve" smooth="yes"/>
      <point x="139" y="865"/>
      <point x="96" y="703"/>
      <point x="96" y="528" type="curve" smooth="yes"/>
      <point x="96" y="353"/>
      <point x="151" y="215"/>
      <point x="250" y="122" type="curve" smooth="yes"/>
      <point x="349" y="29"/>
      <point x="491" y="-20"/>
      <point x="663" y="-20" type="curve" smooth="yes"/>
      <point x="810" y="-20"/>
      <point x="942" y="3"/>
      <point x="1073" y="74" type="curve"/>
    </contour>
    <contour>
      <point x="710" y="255" type="curve" smooth="yes"/>
      <point x="611" y="255"/>
      <point x="530" y="277"/>
      <point x="473" y="326" type="curve" smooth="yes"/>
      <point x="416" y="374"/>
      <point x="384" y="448"/>
      <point x="384" y="552" type="curve" smooth="yes"/>
      <point x="384" y="605"/>
      <point x="390" y="657"/>
      <point x="403" y="709" type="curve" smooth="yes"/>
      <point x="427" y="812"/>
      <point x="473" y="909"/>
      <point x="539" y="990" type="curve" smooth="yes"/>
      <point x="572" y="1031"/>
      <point x="609" y="1066"/>
      <point x="651" y="1096" type="curve" smooth="yes"/>
      <point x="735" y="1156"/>
      <point x="835" y="1192"/>
      <point x="947" y="1192" type="curve" smooth="yes"/>
      <point x="1047" y="1192"/>
      <point x="1131" y="1170"/>
      <point x="1189" y="1122" type="curve" smooth="yes"/>
      <point x="1247" y="1074"/>
      <point x="1279" y="1000"/>
      <point x="1279" y="893" type="curve" smooth="yes"/>
      <point x="1279" y="814"/>
      <point x="1265" y="740"/>
      <point x="1240" y="669" type="curve" smooth="yes"/>
      <point x="1215" y="598"/>
      <point x="1178" y="532"/>
      <point x="1134" y="468" type="curve"/>
      <point x="979" y="626" type="line"/>
      <point x="754" y="455" type="line"/>
      <point x="906" y="288" type="line"/>
      <point x="842" y="267"/>
      <point x="777" y="255"/>
    </contour>
  </outline>
</glyph>
<glyph name="R" format="2">
  <advance width="1312"/>
  <unicode hex="0052"/>
  <outline>
    <contour>
      <point x="1185" y="-2" type="line"/>
      <point x="933" y="632" type="line"/>
      <point x="1010" y="659"/>
      <point x="1144" y="749"/>
      <point x="1243" y="869"/>
      <point x="1300" y="1016"/>
      <point x="1300" y="1102" type="qcurve" smooth="yes"/>
      <point x="1300" y="1188"/>
      <point x="1228" y="1318"/>
      <point x="1109" y="1404"/>
      <point x="959" y="1447"/>
      <point x="881" y="1447" type="qcurve" smooth="yes"/>
      <point x="392" y="1447" type="line"/>
      <point x="57" y="-2" type="line"/>
      <point x="346" y="-2" type="line"/>
      <point x="489" y="609" type="line"/>
      <point x="656" y="609" type="line"/>
      <point x="871" y="-2" type="line"/>
    </contour>
    <contour>
      <point x="752" y="841" type="qcurve" smooth="yes"/>
      <point x="545" y="841" type="line"/>
      <point x="624" y="1187" type="line"/>
      <point x="826" y="1187" type="line" smooth="yes"/>
      <point x="856" y="1187"/>
      <point x="921" y="1178"/>
      <point x="976" y="1152"/>
      <point x="1012" y="1106"/>
      <point x="1012" y="1069" type="qcurve" smooth="yes"/>
      <point x="1012" y="1018"/>
      <point x="966" y="934"/>
      <point x="893" y="874"/>
      <point x="800" y="841"/>
    </contour>
  </outline>
</glyph>
<glyph name="S" format="2">
  <advance width="1188"/>
  <unicode hex="0053"/>
  <outline>
    <contour>
      <point x="547" y="-15" type="qcurve" smooth="yes"/>
      <point x="650" y="-15"/>
      <point x="853" y="43"/>
      <point x="1014" y="159"/>
      <point x="1114" y="332"/>
      <point x="1114" y="447" type="qcurve" smooth="yes"/>
      <point x="1114" y="526"/>
      <point x="1067" y="646"/>
      <point x="990" y="739"/>
      <point x="891" y="809"/>
      <point x="788" y="867"/>
      <point x="690" y="918"/>
      <point x="612" y="973"/>
      <point x="565" y="1035"/>
      <point x="565" y="1075" type="qcurve" smooth="yes"/>
      <point x="565" y="1112"/>
      <point x="597" y="1168"/>
      <point x="649" y="1205"/>
      <point x="713" y="1224"/>
      <point x="746" y="1224" type="qcurve" smooth="yes"/>
      <point x="783" y="1224"/>
      <point x="850" y="1200"/>
      <point x="905" y="1158"/>
      <point x="945" y="1100"/>
      <point x="956" y="1065" type="qcurve"/>
      <point x="1214" y="1189" type="line"/>
      <point x="1188" y="1261"/>
      <point x="1090" y="1367"/>
      <point x="965" y="1435"/>
      <point x="822" y="1467"/>
      <point x="749" y="1467" type="qcurve" smooth="yes"/>
      <point x="657" y="1467"/>
      <point x="482" y="1417"/>
      <point x="344" y="1316"/>
      <point x="260" y="1164"/>
      <point x="260" y="1062" type="qcurve" smooth="yes"/>
      <point x="260" y="987"/>
      <point x="307" y="875"/>
      <point x="384" y="790"/>
      <point x="483" y="726"/>
      <point x="586" y="672"/>
      <point x="685" y="621"/>
      <point x="762" y="561"/>
      <point x="809" y="488"/>
      <point x="809" y="438" type="qcurve" smooth="yes"/>
      <point x="809" y="388"/>
      <point x="770" y="315"/>
      <point x="705" y="269"/>
      <point x="621" y="248"/>
      <point x="575" y="248" type="qcurve" smooth="yes"/>
      <point x="519" y="248"/>
      <point x="428" y="280"/>
      <point x="365" y="341"/>
      <point x="331" y="430"/>
      <point x="331" y="487" type="qcurve"/>
      <point x="26" y="437" type="line"/>
      <point x="26" y="325"/>
      <point x="111" y="156"/>
      <point x="254" y="42"/>
      <point x="443" y="-15"/>
    </contour>
  </outline>
</glyph>
<glyph name="T" format="2">
  <advance width="1213"/>
  <unicode hex="0054"/>
  <anchor x="843" y="1620" name="top"/>
  <anchor x="479" y="0" name="cedilla"/>
  <anchor x="462" y="-120" name="bottom"/>
  <outline>
    <contour>
      <point x="621" y="0" type="line"/>
      <point x="892" y="1185" type="line"/>
      <point x="1334" y="1185" type="line"/>
      <point x="1396" y="1448" type="line"/>
      <point x="221" y="1448" type="line"/>
      <point x="160" y="1185" type="line"/>
      <point x="603" y="1185" type="line"/>
      <point x="331" y="0" type="line"/>
    </contour>
  </outline>
  <guideline angle="90" name="vertical" x="843" y="0"/>
</glyph>
<glyph name="U" format="2">
  <advance width="1420"/>
  <unicode hex="0055"/>
  <outline>
    <contour>
      <point x="603" y="-20" type="curve" smooth="yes"/>
      <point x="804" y="-20"/>
      <point x="954" y="35"/>
      <point x="1066" y="136" type="curve" smooth="yes"/>
      <point x="1178" y="237"/>
      <point x="1250" y="386"/>
      <point x="1293" y="573" type="curve" smooth="yes"/>
      <point x="1495" y="1447" type="line"/>
      <point x="1205" y="1447" type="line"/>
      <point x="1011" y="610" type="line" smooth="yes"/>
      <point x="986" y="502"/>
      <point x="954" y="414"/>
      <point x="898" y="354" type="curve" smooth="yes"/>
      <point x="842" y="294"/>
      <point x="761" y="261"/>
      <point x="640" y="261" type="curve" smooth="yes"/>
      <point x="581" y="261"/>
      <point x="528" y="267"/>
      <point x="489" y="291" type="curve" smooth="yes"/>
      <point x="450" y="315"/>
      <point x="427" y="356"/>
      <point x="427" y="425" type="curve" smooth="yes"/>
      <point x="427" y="452"/>
      <point x="430" y="479"/>
      <point x="434" y="506" type="curve" smooth="yes"/>
      <point x="438" y="533"/>
      <point x="443" y="560"/>
      <point x="450" y="587" type="curve"/>
      <point x="647" y="1447" type="line"/>
      <point x="356" y="1447" type="line"/>
      <point x="159" y="586" type="line" smooth="yes"/>
      <point x="151" y="553"/>
      <point x="145" y="518"/>
      <point x="141" y="485" type="curve" smooth="yes"/>
      <point x="136" y="452"/>
      <point x="133" y="417"/>
      <point x="133" y="382" type="curve" smooth="yes"/>
      <point x="133" y="233"/>
      <point x="182" y="132"/>
      <point x="266" y="69" type="curve" smooth="yes"/>
      <point x="350" y="5"/>
      <point x="467" y="-20"/>
    </contour>
  </outline>
</glyph>
<glyph name="V" format="2">
  <advance width="1396"/>
  <unicode hex="0056"/>
  <outline>
    <contour>
      <point x="681" y="0" type="line"/>
      <point x="1602" y="1448" type="line"/>
      <point x="1276" y="1448" type="line"/>
      <point x="681" y="486" type="line"/>
      <point x="532" y="1448" type="line"/>
      <point x="212" y="1448" type="line"/>
      <point x="469" y="0" type="line"/>
    </contour>
  </outline>
</glyph>
<glyph name="W" format="2">
  <advance width="2060"/>
  <unicode hex="0057"/>
  <anchor x="1247" y="1620" name="top"/>
  <outline>
    <contour>
      <point x="1441" y="0" type="line"/>
      <point x="2217" y="1447" type="line"/>
      <point x="1915" y="1447" type="line"/>
      <point x="1384" y="439" type="line"/>
      <point x="1309" y="1447" type="line"/>
      <point x="1085" y="1447" type="line"/>
      <point x="545" y="439" type="line"/>
      <point x="479" y="1447" type="line"/>
      <point x="177" y="1447" type="line"/>
      <point x="286" y="0" type="line"/>
      <point x="559" y="0" type="line"/>
      <point x="1090" y="989" type="line"/>
      <point x="1167" y="0" type="line"/>
    </contour>
  </outline>
  <guideline angle="90" name="vertical" x="1247" y="0"/>
</glyph>
<glyph name="X" format="2">
  <advance width="1399"/>
  <unicode hex="0058"/>
  <outline>
    <contour>
      <point x="1268.74" y="0" type="line"/>
      <point x="952.32" y="723.968" type="line"/>
      <point x="1606.66" y="1446.91" type="line"/>
      <point x="1255.42" y="1446.91" type="line"/>
      <point x="784.384" y="902.144" type="line"/>
      <point x="571.392" y="1446.91" type="line"/>
      <point x="229.376" y="1446.91" type="line"/>
      <point x="542.72" y="723.968" type="line"/>
      <point x="-113.664" y="0" type="line"/>
      <point x="239.616" y="0" type="line"/>
      <point x="709.632" y="537.6" type="line"/>
      <point x="926.72" y="0" type="line"/>
    </contour>
  </outline>
</glyph>
<glyph name="Y" format="2">
  <advance width="1446"/>
  <unicode hex="0059"/>
  <anchor x="885" y="1620" name="top"/>
  <outline>
    <contour>
      <point x="752.64" y="0" type="line"/>
      <point x="884.736" y="563.2" type="line"/>
      <point x="1687.55" y="1446.91" type="line"/>
      <point x="1339.39" y="1446.91" type="line"/>
      <point x="789.504" y="818.176" type="line"/>
      <point x="533.504" y="1446.91" type="line"/>
      <point x="194.56" y="1446.91" type="line"/>
      <point x="592.896" y="563.2" type="line"/>
      <point x="460.8" y="0" type="line"/>
    </contour>
  </outline>
  <guideline angle="90" name="vertical" x="885" y="0"/>
</glyph>
<glyph name="Z" format="2">
  <advance width="1298"/>
  <unicode hex="005A"/>
  <anchor x="854" y="1620" name="top"/>
  <outline>
    <contour>
      <point x="1114.11" y="0" type="line"/>
      <point x="1176.58" y="269.12" type="line"/>
      <point x="406.528" y="269.12" type="line"/>
      <point x="1401.86" y="1242.09" type="line"/>
      <point x="1448.96" y="1447.91" type="line"/>
      <point x="312.32" y="1447.91" type="line"/>
      <point x="250.88" y="1178.6" type="line"/>
      <point x="975.872" y="1178.6" type="line"/>
      <point x="-25.6" y="204.608" type="line"/>
      <point x="-66.56" y="0" type="line"/>
    </contour>
  </outline>
  <guideline angle="90" name="vertical" x="854" y="0"/>
</glyph>
<glyph name="bracketleft" format="2">
  <advance width="656"/>
  <unicode hex="005B"/>
  <outline>
    <contour>
      <point x="473" y="-190" type="line"/>
      <point x="518" y="0" type="line"/>
      <point x="276" y="0" type="line"/>
      <point x="610" y="1444" type="line"/>
      <point x="851" y="1444" type="line"/>
      <point x="894" y="1632" type="line"/>
      <point x="429" y="1632" type="line"/>
      <point x="8" y="-190" type="line"/>
    </contour>
  </outline>
</glyph>
<glyph name="backslash" format="2">
  <advance width="955"/>
  <unicode hex="005C"/>
  <outline>
    <contour>
      <point x="787.456" y="-440.32" type="line"/>
      <point x="438.272" y="1552.38" type="line"/>
      <point x="189.44" y="1552.38" type="line"/>
      <point x="534.528" y="-440.32" type="line"/>
    </contour>
  </outline>
</glyph>
<glyph name="bracketright" format="2">
  <advance width="656"/>
  <unicode hex="005D"/>
  <outline>
    <contour>
      <point x="323" y="-190" type="line"/>
      <point x="745" y="1632" type="line"/>
      <point x="281" y="1632" type="line"/>
      <point x="238" y="1444" type="line"/>
      <point x="478" y="1444" type="line"/>
      <point x="145" y="0" type="line"/>
      <point x="-96" y="0" type="line"/>
      <point x="-142" y="-190" type="line"/>
    </contour>
  </outline>
</glyph>
<glyph name="asciicircum" format="2">
  <advance width="1004"/>
  <unicode hex="005E"/>
  <outline>
    <contour>
      <point x="1025" y="813" type="line"/>
      <point x="736" y="1554" type="line"/>
      <point x="111" y="813" type="line"/>
      <point x="391" y="813" type="line"/>
      <point x="645" y="1111" type="line"/>
      <point x="759" y="813" type="line"/>
    </contour>
  </outline>
</glyph>
<glyph name="underscore" format="2">
  <advance width="1278"/>
  <unicode hex="005F"/>
  <outline>
    <contour>
      <point x="920" y="-211" type="line"/>
      <point x="969" y="0" type="line"/>
      <point x="76" y="0" type="line"/>
      <point x="27" y="-211" type="line"/>
    </contour>
  </outline>
</glyph>
<glyph name="grave" format="2">
  <advance width="543"/>
  <unicode hex="0060"/>
  <outline>
    <contour>
      <point x="681" y="1192" type="line"/>
      <point x="528" y="1508" type="line"/>
      <point x="245" y="1508" type="line"/>
      <point x="495" y="1192" type="line"/>
    </contour>
  </outline>
</glyph>
<glyph name="a" format="2">
  <advance width="1228"/>
  <unicode hex="0061"/>
  <anchor x="641" y="1192" name="top"/>
  <anchor x="971" y="0" name="ogonek"/>
  <anchor x="438" y="-120" name="bottom"/>
  <outline>
    <contour>
      <point x="497.808" y="238.592" type="curve" smooth="yes"/>
      <point x="387.216" y="238.592"/>
      <point x="316.56" y="292.864"/>
      <point x="316.56" y="412.672" type="curve" smooth="yes"/>
      <point x="316.56" y="606.208"/>
      <point x="445.584" y="832.512"/>
      <point x="659.6" y="832.512" type="curve" smooth="yes"/>
      <point x="775.312" y="832.512"/>
      <point x="838.8" y="777.216"/>
      <point x="838.8" y="655.36" type="curve" smooth="yes"/>
      <point x="838.8" y="456.704"/>
      <point x="717.968" y="238.592"/>
    </contour>
    <contour>
      <point x="401.552" y="-20.48" type="curve" smooth="yes"/>
      <point x="556.303" y="-20.48"/>
      <point x="644.205" y="24.8874"/>
      <point x="749.694" y="130" type="curve" name=".iv01"/>
      <point x="740.681" y="0" type="line"/>
      <point x="1006.68" y="0" type="line"/>
      <point x="999.457" y="64"/>
      <point x="1008.47" y="168"/>
      <point x="1022.32" y="228" type="curve" smooth="yes"/>
      <point x="1215.63" y="1063.94" type="line"/>
      <point x="919.696" y="1063.94" type="line"/>
      <point x="891.024" y="963.584" type="line"/>
      <point x="831.632" y="1049.6"/>
      <point x="721.04" y="1085.44"/>
      <point x="619.664" y="1085.44" type="curve" smooth="yes"/>
      <point x="267.408" y="1085.44"/>
      <point x="32.912" y="712.704"/>
      <point x="32.912" y="386.048" type="curve" smooth="yes"/>
      <point x="32.912" y="152.576"/>
      <point x="160.912" y="-20.48"/>
    </contour>
  </outline>
  <guideline angle="90" name="vertical" x="641" y="0"/>
</glyph>
<glyph name="b" format="2">
  <advance width="1238"/>
  <unicode hex="0062"/>
  <outline>
    <contour>
      <point x="630" y="-20" type="curve" smooth="yes"/>
      <point x="689" y="-20"/>
      <point x="745" y="-11"/>
      <point x="797" y="9" type="curve" smooth="yes"/>
      <point x="901" y="47"/>
      <point x="988" y="115"/>
      <point x="1056" y="205" type="curve" smooth="yes"/>
      <point x="1089" y="250"/>
      <point x="1118" y="298"/>
      <point x="1142" y="350" type="curve" smooth="yes"/>
      <point x="1189" y="453"/>
      <point x="1213" y="566"/>
      <point x="1213" y="677" type="curve" smooth="yes"/>
      <point x="1213" y="796"/>
      <point x="1183" y="897"/>
      <point x="1123" y="970" type="curve" smooth="yes"/>
      <point x="1062" y="1042"/>
      <point x="971" y="1084"/>
      <point x="848" y="1084" type="curve" smooth="yes"/>
      <point x="736" y="1084"/>
      <point x="633" y="1057"/>
      <point x="550" y="982" type="curve"/>
      <point x="675" y="1444" type="line"/>
      <point x="373" y="1444" type="line"/>
      <point x="27" y="0" type="line"/>
      <point x="330" y="0" type="line"/>
      <point x="356" y="100" type="line"/>
      <point x="387" y="57"/>
      <point x="429" y="27"/>
      <point x="477" y="8" type="curve" smooth="yes"/>
      <point x="525" y="-12"/>
      <point x="578" y="-20"/>
    </contour>
    <contour>
      <point x="592" y="240" type="curve" smooth="yes"/>
      <point x="535" y="240"/>
      <point x="489" y="253"/>
      <point x="458" y="282" type="curve" smooth="yes"/>
      <point x="426" y="311"/>
      <point x="409" y="356"/>
      <point x="409" y="417" type="curve" smooth="yes"/>
      <point x="409" y="451"/>
      <point x="413" y="485"/>
      <point x="420" y="518" type="curve" smooth="yes"/>
      <point x="434" y="585"/>
      <point x="460" y="647"/>
      <point x="500" y="700" type="curve" smooth="yes"/>
      <point x="520" y="726"/>
      <point x="543" y="749"/>
      <point x="569" y="768" type="curve" smooth="yes"/>
      <point x="620" y="807"/>
      <point x="682" y="829"/>
      <point x="754" y="829" type="curve" smooth="yes"/>
      <point x="810" y="829"/>
      <point x="854" y="815"/>
      <point x="886" y="787" type="curve"/>
      <point x="917" y="758"/>
      <point x="934" y="714"/>
      <point x="934" y="654" type="curve" smooth="yes"/>
      <point x="934" y="621"/>
      <point x="931" y="589"/>
      <point x="924" y="556" type="curve" smooth="yes"/>
      <point x="910" y="490"/>
      <point x="884" y="428"/>
      <point x="845" y="374" type="curve" smooth="yes"/>
      <point x="825" y="347"/>
      <point x="802" y="323"/>
      <point x="777" y="304" type="curve" smooth="yes"/>
      <point x="726" y="264"/>
      <point x="664" y="240"/>
    </contour>
  </outline>
</glyph>
<glyph name="c" format="2">
  <advance width="1065"/>
  <unicode hex="0063"/>
  <outline>
    <contour>
      <point x="462" y="-24" type="curve" smooth="yes"/>
      <point x="574" y="-24"/>
      <point x="675" y="5"/>
      <point x="763" y="58" type="curve" smooth="yes"/>
      <point x="850" y="110"/>
      <point x="922" y="186"/>
      <point x="977" y="282" type="curve"/>
      <point x="734" y="409" type="line"/>
      <point x="709" y="361"/>
      <point x="674" y="320"/>
      <point x="633" y="291" type="curve" smooth="yes"/>
      <point x="592" y="262"/>
      <point x="544" y="244"/>
      <point x="489" y="244" type="curve" smooth="yes"/>
      <point x="437" y="244"/>
      <point x="393" y="257"/>
      <point x="362" y="285" type="curve" smooth="yes"/>
      <point x="331" y="312"/>
      <point x="314" y="355"/>
      <point x="314" y="412" type="curve" smooth="yes"/>
      <point x="314" y="444"/>
      <point x="318" y="476"/>
      <point x="325" y="509" type="curve" smooth="yes"/>
      <point x="339" y="573"/>
      <point x="365" y="633"/>
      <point x="403" y="685" type="curve" smooth="yes"/>
      <point x="422" y="711"/>
      <point x="443" y="733"/>
      <point x="468" y="752" type="curve" smooth="yes"/>
      <point x="516" y="789"/>
      <point x="576" y="813"/>
      <point x="644" y="813" type="curve" smooth="yes"/>
      <point x="687" y="813"/>
      <point x="724" y="800"/>
      <point x="752" y="776" type="curve"/>
      <point x="779" y="751"/>
      <point x="796" y="716"/>
      <point x="796" y="673" type="curve"/>
      <point x="1087" y="759" type="line"/>
      <point x="1068" y="860"/>
      <point x="1019" y="941"/>
      <point x="949" y="997" type="curve" smooth="yes"/>
      <point x="879" y="1052"/>
      <point x="787" y="1081"/>
      <point x="683" y="1081" type="curve" smooth="yes"/>
      <point x="622" y="1081"/>
      <point x="563" y="1073"/>
      <point x="508" y="1056" type="curve" smooth="yes"/>
      <point x="396" y="1023"/>
      <point x="300" y="961"/>
      <point x="222" y="877" type="curve" smooth="yes"/>
      <point x="183" y="835"/>
      <point x="149" y="789"/>
      <point x="122" y="738" type="curve" smooth="yes"/>
      <point x="66" y="637"/>
      <point x="35" y="520"/>
      <point x="35" y="399" type="curve" smooth="yes"/>
      <point x="35" y="267"/>
      <point x="77" y="160"/>
      <point x="151" y="88" type="curve" smooth="yes"/>
      <point x="225" y="16"/>
      <point x="331" y="-24"/>
    </contour>
  </outline>
</glyph>
<glyph name="d" format="2">
  <advance width="1243"/>
  <unicode hex="0064"/>
  <outline>
    <contour>
      <point x="402" y="-20" type="qcurve" smooth="yes"/>
      <point x="490" y="-20"/>
      <point x="649" y="31"/>
      <point x="712" y="93" type="qcurve"/>
      <point x="703" y="0" type="line"/>
      <point x="971" y="0" type="line"/>
      <point x="1318" y="1447" type="line"/>
      <point x="1022" y="1447" type="line"/>
      <point x="1018" y="1431"/>
      <point x="997" y="1356"/>
      <point x="971" y="1259"/>
      <point x="942" y="1152"/>
      <point x="916" y="1055"/>
      <point x="895" y="980"/>
      <point x="891" y="964" type="qcurve"/>
      <point x="869" y="996"/>
      <point x="807" y="1042"/>
      <point x="736" y="1072"/>
      <point x="658" y="1085"/>
      <point x="620" y="1085" type="qcurve" smooth="yes"/>
      <point x="531" y="1085"/>
      <point x="375" y="1027"/>
      <point x="245" y="927"/>
      <point x="142" y="791"/>
      <point x="71" y="635"/>
      <point x="33" y="468"/>
      <point x="33" y="386" type="qcurve" smooth="yes"/>
      <point x="33" y="297"/>
      <point x="80" y="148"/>
      <point x="172" y="40"/>
      <point x="310" y="-20"/>
    </contour>
    <contour>
      <point x="498" y="239" type="qcurve" smooth="yes"/>
      <point x="456" y="239"/>
      <point x="389" y="259"/>
      <point x="342" y="302"/>
      <point x="317" y="368"/>
      <point x="317" y="413" type="qcurve" smooth="yes"/>
      <point x="317" y="461"/>
      <point x="338" y="561"/>
      <point x="378" y="654"/>
      <point x="437" y="736"/>
      <point x="514" y="797"/>
      <point x="606" y="833"/>
      <point x="660" y="833" type="qcurve" smooth="yes"/>
      <point x="703" y="833"/>
      <point x="770" y="811"/>
      <point x="815" y="768"/>
      <point x="839" y="701"/>
      <point x="839" y="655" type="qcurve" smooth="yes"/>
      <point x="839" y="606"/>
      <point x="819" y="505"/>
      <point x="780" y="413"/>
      <point x="722" y="332"/>
      <point x="646" y="273"/>
      <point x="553" y="239"/>
    </contour>
  </outline>
</glyph>
<glyph name="e" format="2">
  <advance width="1116"/>
  <unicode hex="0065"/>
  <outline>
    <contour>
      <point x="480" y="-20" type="qcurve" smooth="yes"/>
      <point x="616" y="-20"/>
      <point x="854" y="63"/>
      <point x="956" y="153" type="qcurve"/>
      <point x="795" y="353" type="line"/>
      <point x="764" y="324"/>
      <point x="696" y="273"/>
      <point x="617" y="236"/>
      <point x="524" y="214"/>
      <point x="469" y="214" type="qcurve" smooth="yes"/>
      <point x="430" y="214"/>
      <point x="369" y="237"/>
      <point x="326" y="276"/>
      <point x="304" y="326"/>
      <point x="304" y="352" type="qcurve" smooth="yes"/>
      <point x="304" y="362"/>
      <point x="306" y="389"/>
      <point x="310" y="417"/>
      <point x="316" y="443"/>
      <point x="321" y="453" type="qcurve"/>
      <point x="1054" y="453" type="line"/>
      <point x="1066" y="484"/>
      <point x="1081" y="541"/>
      <point x="1089" y="598"/>
      <point x="1092" y="657"/>
      <point x="1092" y="691" type="qcurve" smooth="yes"/>
      <point x="1092" y="791"/>
      <point x="1032" y="939"/>
      <point x="923" y="1036"/>
      <point x="769" y="1084"/>
      <point x="676" y="1084" type="qcurve" smooth="yes"/>
      <point x="585" y="1084"/>
      <point x="420" y="1033"/>
      <point x="278" y="942"/>
      <point x="163" y="816"/>
      <point x="81" y="665"/>
      <point x="37" y="495"/>
      <point x="37" y="406" type="qcurve" smooth="yes"/>
      <point x="37" y="304"/>
      <point x="103" y="145"/>
      <point x="221" y="36"/>
      <point x="384" y="-20"/>
    </contour>
    <contour>
      <point x="836" y="651" type="qcurve"/>
      <point x="381" y="651" type="line"/>
      <point x="401" y="699"/>
      <point x="453" y="774"/>
      <point x="519" y="825"/>
      <point x="601" y="851"/>
      <point x="652" y="851" type="qcurve" smooth="yes"/>
      <point x="699" y="851"/>
      <point x="769" y="825"/>
      <point x="815" y="778"/>
      <point x="838" y="716"/>
      <point x="838" y="680" type="qcurve" smooth="yes"/>
      <point x="838" y="672"/>
      <point x="836" y="659"/>
    </contour>
  </outline>
</glyph>
<glyph name="f" format="2">
  <advance width="738"/>
  <unicode hex="0066"/>
  <outline>
    <contour>
      <point x="392" y="0" type="line"/>
      <point x="579" y="828" type="line"/>
      <point x="811" y="828" type="line"/>
      <point x="866" y="1064" type="line"/>
      <point x="635" y="1064" type="line"/>
      <point x="645" y="1112" type="line" smooth="yes"/>
      <point x="650" y="1134"/>
      <point x="665" y="1175"/>
      <point x="691" y="1207"/>
      <point x="732" y="1227"/>
      <point x="762" y="1227" type="qcurve" smooth="yes"/>
      <point x="781" y="1227"/>
      <point x="816" y="1218"/>
      <point x="830" y="1208" type="qcurve"/>
      <point x="981" y="1420" type="line"/>
      <point x="935" y="1441"/>
      <point x="840" y="1468"/>
      <point x="788" y="1468" type="qcurve" smooth="yes"/>
      <point x="683" y="1468"/>
      <point x="537" y="1422"/>
      <point x="437" y="1337"/>
      <point x="377" y="1218"/>
      <point x="357" y="1145" type="qcurve" smooth="yes"/>
      <point x="336" y="1064" type="line"/>
      <point x="138" y="1064" type="line"/>
      <point x="82" y="828" type="line"/>
      <point x="275" y="828" type="line"/>
      <point x="88" y="0" type="line"/>
    </contour>
  </outline>
</glyph>
<glyph name="g" format="2">
  <advance width="1137"/>
  <unicode hex="0067"/>
  <anchor x="410" y="-423" name="m.uni0326"/>
  <anchor x="0" y="44" name="m.uni0328_1"/>
  <anchor x="715" y="1099" name="m.uni0308_2"/>
  <anchor x="0" y="44" name="m.uni031B_3_2"/>
  <outline>
    <contour>
      <point x="413.115" y="-463" type="curve"/>
      <point x="663.336" y="-463"/>
      <point x="970.026" y="-341.297"/>
      <point x="966.132" y="-51.1583" type="curve"/>
      <point x="966.132" y="139.671"/>
      <point x="788.933" y="212.693"/>
      <point x="627.312" y="208.799" type="curve"/>
      <point x="411.168" y="208.799" type="line" smooth="yes"/>
      <point x="325.489" y="208.799"/>
      <point x="286.544" y="216.588"/>
      <point x="286.544" y="256.506" type="curve" smooth="yes"/>
      <point x="286.544" y="311.029"/>
      <point x="323.542" y="349"/>
      <point x="371.249" y="366.525" type="curve"/>
      <point x="424.799" y="348.026"/>
      <point x="498.794" y="334.396"/>
      <point x="568.894" y="334.396" type="curve" smooth="yes"/>
      <point x="817.168" y="334.396"/>
      <point x="1036.23" y="482.386"/>
      <point x="1036.23" y="745.264" type="curve" smooth="yes"/>
      <point x="1036.23" y="783.235"/>
      <point x="1030.39" y="819.259"/>
      <point x="1019.68" y="853.336" type="curve"/>
      <point x="1192.01" y="979.906" type="line"/>
      <point x="1080.05" y="1161" type="line"/>
      <point x="892.137" y="1019.82" type="line"/>
      <point x="823.983" y="1062.66"/>
      <point x="748.041" y="1084.08"/>
      <point x="664.309" y="1084.08" type="curve" smooth="yes"/>
      <point x="411.168" y="1084.08"/>
      <point x="174.578" y="907.859"/>
      <point x="174.578" y="643.034" type="curve" smooth="yes"/>
      <point x="174.578" y="590.458"/>
      <point x="186.261" y="546.645"/>
      <point x="206.707" y="509.647" type="curve"/>
      <point x="98.6355" y="445.388"/>
      <point x="24.6403" y="353.868"/>
      <point x="24.6403" y="225.35" type="curve" smooth="yes"/>
      <point x="24.6403" y="138.698"/>
      <point x="66.506" y="74.4388"/>
      <point x="127.844" y="29.6523" type="curve"/>
      <point x="-25.0144" y="-8.31896" type="line"/>
      <point x="-47.4077" y="-47.2638"/>
      <point x="-62.012" y="-105.681"/>
      <point x="-62.012" y="-150.468" type="curve" smooth="yes"/>
      <point x="-62.012" y="-387.058"/>
      <point x="223.259" y="-463"/>
    </contour>
    <contour>
      <point x="571.815" y="532.041" type="curve"/>
      <point x="485.163" y="532.041"/>
      <point x="448.165" y="578.775"/>
      <point x="448.165" y="644.981" type="curve" smooth="yes"/>
      <point x="448.165" y="754.026"/>
      <point x="538.712" y="862.098"/>
      <point x="650.679" y="862.098" type="curve" smooth="yes"/>
      <point x="731.489" y="862.098"/>
      <point x="769.46" y="815.365"/>
      <point x="769.46" y="749.158" type="curve"/>
      <point x="769.46" y="633.297"/>
      <point x="688.65" y="534.962"/>
    </contour>
    <contour>
      <point x="441.35" y="-237.12" type="curve"/>
      <point x="362.487" y="-237.12"/>
      <point x="182.185" y="-233.225"/>
      <point x="199.892" y="-99.8393" type="curve"/>
      <point x="301.149" y="-24.8705" type="line"/>
      <point x="485.163" y="-24.8705" type="line" smooth="yes"/>
      <point x="508.53" y="-24.8705"/>
      <point x="702.281" y="-4.42446"/>
      <point x="697.412" y="-85.235" type="curve"/>
      <point x="697.412" y="-204.017"/>
      <point x="535.791" y="-240.041"/>
    </contour>
  </outline>
</glyph>
<glyph name="h" format="2">
  <advance width="1241"/>
  <unicode hex="0068"/>
  <outline>
    <contour>
      <point x="712" y="0" type="line"/>
      <point x="1000" y="0" type="line"/>
      <point x="1139" y="622" type="line" smooth="yes"/>
      <point x="1151" y="673"/>
      <point x="1155" y="724"/>
      <point x="1155" y="768" type="curve" smooth="yes"/>
      <point x="1155" y="867"/>
      <point x="1129" y="945"/>
      <point x="1078" y="1000" type="curve" smooth="yes"/>
      <point x="1027" y="1055"/>
      <point x="953" y="1084"/>
      <point x="857" y="1084" type="curve" smooth="yes"/>
      <point x="798" y="1084"/>
      <point x="744" y="1075"/>
      <point x="693" y="1056" type="curve" smooth="yes"/>
      <point x="641" y="1037"/>
      <point x="593" y="1009"/>
      <point x="549" y="969" type="curve"/>
      <point x="488" y="969" type="line"/>
      <point x="398" y="549" type="line"/>
      <point x="441" y="549" type="line"/>
      <point x="457" y="625"/>
      <point x="501" y="694"/>
      <point x="558" y="743" type="curve" smooth="yes"/>
      <point x="615" y="791"/>
      <point x="685" y="822"/>
      <point x="753" y="822" type="curve" smooth="yes"/>
      <point x="822" y="822"/>
      <point x="867" y="785"/>
      <point x="867" y="726" type="curve" smooth="yes"/>
      <point x="867" y="705"/>
      <point x="865" y="682"/>
      <point x="862" y="659" type="curve" smooth="yes"/>
      <point x="858" y="636"/>
      <point x="854" y="613"/>
      <point x="849" y="592" type="curve" smooth="yes"/>
    </contour>
    <contour>
      <point x="22" y="0" type="line"/>
      <point x="310" y="0" type="line"/>
      <point x="656" y="1448" type="line"/>
      <point x="368" y="1448" type="line"/>
    </contour>
  </outline>
</glyph>
<glyph name="i" format="2">
  <advance width="558"/>
  <unicode hex="0069"/>
  <outline>
    <contour>
      <point x="539" y="1177" type="line"/>
      <point x="605" y="1447" type="line"/>
      <point x="350" y="1447" type="line"/>
      <point x="284" y="1177" type="line"/>
    </contour>
    <contour>
      <point x="276" y="0" type="line"/>
      <point x="511" y="1064" type="line"/>
      <point x="256" y="1064" type="line"/>
      <point x="22" y="0" type="line"/>
    </contour>
  </outline>
</glyph>
<glyph name="j" format="2">
  <advance width="607"/>
  <unicode hex="006A"/>
  <outline>
    <contour>
      <point x="563" y="1177" type="line"/>
      <point x="625" y="1445" type="line"/>
      <point x="351" y="1445" type="line"/>
      <point x="290" y="1177" type="line"/>
    </contour>
    <contour>
      <point x="-118" y="-449" type="qcurve" smooth="yes"/>
      <point x="-37" y="-449"/>
      <point x="91" y="-398"/>
      <point x="188" y="-307"/>
      <point x="254" y="-183"/>
      <point x="271" y="-109" type="qcurve" smooth="yes"/>
      <point x="547" y="1064" type="line"/>
      <point x="273" y="1064" type="line"/>
      <point x="8" y="-82" type="line" smooth="yes"/>
      <point x="3" y="-103"/>
      <point x="-14" y="-146"/>
      <point x="-39" y="-180"/>
      <point x="-72" y="-202"/>
      <point x="-92" y="-202" type="qcurve" smooth="yes"/>
      <point x="-118" y="-202"/>
      <point x="-169" y="-196"/>
      <point x="-194" y="-189" type="qcurve"/>
      <point x="-299" y="-410" type="line"/>
      <point x="-256" y="-427"/>
      <point x="-166" y="-449"/>
    </contour>
  </outline>
</glyph>
<glyph name="k" format="2">
  <advance width="1204"/>
  <unicode hex="006B"/>
  <anchor x="525" y="-120" name="bottom"/>
  <outline>
    <contour>
      <point x="1311.98" y="1063.94" type="line"/>
      <point x="925.936" y="1063.94" type="line"/>
      <point x="430.32" y="637.952" type="line"/>
      <point x="356.592" y="292.864" type="line"/>
    </contour>
    <contour>
      <point x="1096.94" y="0" type="line"/>
      <point x="785.648" y="673.792" type="line"/>
      <point x="549.104" y="500.736" type="line"/>
      <point x="759.024" y="0" type="line"/>
    </contour>
    <contour>
      <point x="22" y="0" type="line"/>
      <point x="310" y="0" type="line"/>
      <point x="656" y="1448" type="line"/>
      <point x="368" y="1448" type="line"/>
    </contour>
  </outline>
</glyph>
<glyph name="l" format="2">
  <advance width="629"/>
  <unicode hex="006C"/>
  <outline>
    <contour>
      <point x="276" y="-20" type="qcurve" smooth="yes"/>
      <point x="328" y="-20"/>
      <point x="426" y="-10"/>
      <point x="476" y="-2" type="qcurve"/>
      <point x="519" y="240" type="line"/>
      <point x="501" y="236"/>
      <point x="465" y="233"/>
      <point x="446" y="233" type="qcurve" smooth="yes"/>
      <point x="433" y="233"/>
      <point x="408" y="237"/>
      <point x="388" y="248"/>
      <point x="377" y="268"/>
      <point x="377" y="285" type="qcurve"/>
      <point x="656" y="1448" type="line"/>
      <point x="368" y="1448" type="line"/>
      <point x="81" y="254" type="line" smooth="yes"/>
      <point x="75" y="227"/>
      <point x="62" y="153"/>
      <point x="62" y="127" type="qcurve" smooth="yes"/>
      <point x="62" y="86"/>
      <point x="97" y="29"/>
      <point x="155" y="-6"/>
      <point x="233" y="-20"/>
    </contour>
  </outline>
</glyph>
<glyph name="m" format="2">
  <advance width="1869"/>
  <unicode hex="006D"/>
  <outline>
    <contour>
      <point x="1627" y="0" type="line"/>
      <point x="1740" y="511" type="line" smooth="yes"/>
      <point x="1757" y="590"/>
      <point x="1774" y="670"/>
      <point x="1774" y="751" type="curve" smooth="yes"/>
      <point x="1774" y="852"/>
      <point x="1738" y="937"/>
      <point x="1677" y="995" type="curve" smooth="yes"/>
      <point x="1616" y="1053"/>
      <point x="1530" y="1084"/>
      <point x="1427" y="1084" type="curve" smooth="yes"/>
      <point x="1358" y="1084"/>
      <point x="1296" y="1072"/>
      <point x="1240" y="1048" type="curve" smooth="yes"/>
      <point x="1183" y="1024"/>
      <point x="1130" y="988"/>
      <point x="1077" y="941" type="curve"/>
      <point x="1016" y="1040"/>
      <point x="928" y="1084"/>
      <point x="808" y="1084" type="curve" smooth="yes"/>
      <point x="765" y="1084"/>
      <point x="716" y="1073"/>
      <point x="668" y="1051" type="curve" smooth="yes"/>
      <point x="620" y="1029"/>
      <point x="573" y="997"/>
      <point x="536" y="957" type="curve"/>
      <point x="530" y="957" type="line"/>
      <point x="562" y="1064" type="line"/>
      <point x="268" y="1064" type="line"/>
      <point x="25" y="0" type="line"/>
      <point x="317" y="0" type="line"/>
      <point x="446" y="572" type="line" smooth="yes"/>
      <point x="461" y="636"/>
      <point x="495" y="698"/>
      <point x="543" y="744" type="curve" smooth="yes"/>
      <point x="590" y="790"/>
      <point x="650" y="819"/>
      <point x="717" y="819" type="curve" smooth="yes"/>
      <point x="754" y="819"/>
      <point x="783" y="810"/>
      <point x="803" y="792" type="curve" smooth="yes"/>
      <point x="823" y="774"/>
      <point x="833" y="750"/>
      <point x="833" y="719" type="curve" smooth="yes"/>
      <point x="833" y="686"/>
      <point x="829" y="655"/>
      <point x="821" y="623" type="curve"/>
      <point x="678" y="0" type="line"/>
      <point x="975" y="0" type="line"/>
      <point x="1103" y="572" type="line" smooth="yes"/>
      <point x="1118" y="636"/>
      <point x="1151" y="698"/>
      <point x="1199" y="744" type="curve" smooth="yes"/>
      <point x="1246" y="790"/>
      <point x="1306" y="819"/>
      <point x="1374" y="819" type="curve" smooth="yes"/>
      <point x="1411" y="819"/>
      <point x="1440" y="810"/>
      <point x="1460" y="793" type="curve" smooth="yes"/>
      <point x="1480" y="775"/>
      <point x="1490" y="749"/>
      <point x="1490" y="716" type="curve" smooth="yes"/>
      <point x="1490" y="705"/>
      <point x="1488" y="686"/>
      <point x="1484" y="658" type="curve" smooth="yes"/>
      <point x="1479" y="629"/>
      <point x="1472" y="591"/>
      <point x="1461" y="546" type="curve" smooth="yes"/>
      <point x="1337" y="0" type="line"/>
    </contour>
  </outline>
</glyph>
<glyph name="n" format="2">
  <advance width="1241"/>
  <unicode hex="006E"/>
  <anchor x="797" y="1192" name="top"/>
  <anchor x="475" y="-120" name="bottom"/>
  <outline>
    <contour>
      <point x="712" y="0" type="line"/>
      <point x="1000" y="0" type="line"/>
      <point x="1139" y="622" type="line" smooth="yes"/>
      <point x="1150" y="673"/>
      <point x="1155" y="724"/>
      <point x="1155" y="768" type="curve" smooth="yes"/>
      <point x="1155" y="965"/>
      <point x="1048" y="1084"/>
      <point x="857" y="1084" type="curve" smooth="yes"/>
      <point x="740" y="1084"/>
      <point x="638" y="1048"/>
      <point x="549" y="969" type="curve"/>
      <point x="488" y="969" type="line"/>
      <point x="398" y="549" type="line"/>
      <point x="441" y="549" type="line"/>
      <point x="474" y="701"/>
      <point x="616" y="822"/>
      <point x="753" y="822" type="curve" smooth="yes"/>
      <point x="822" y="822"/>
      <point x="867" y="784"/>
      <point x="867" y="726" type="curve" smooth="yes"/>
      <point x="867" y="683"/>
      <point x="859" y="635"/>
      <point x="849" y="592" type="curve" smooth="yes"/>
    </contour>
    <contour>
      <point x="310" y="0" type="line"/>
      <point x="565" y="1064" type="line"/>
      <point x="277" y="1064" type="line"/>
      <point x="22" y="0" type="line"/>
    </contour>
  </outline>
  <guideline angle="257.135" x="312" y="1064"/>
  <guideline angle="77.2698" x="203" y="0"/>
  <guideline angle="257.161" x="918" y="645"/>
  <guideline angle="77.3441" x="905" y="0"/>
  <guideline angle="90" name="vertical" x="780" y="0"/>
</glyph>
<glyph name="o" format="2">
  <advance width="1178"/>
  <unicode hex="006F"/>
  <anchor x="732" y="1192" name="top"/>
  <anchor x="591" y="0" name="ogonek"/>
  <anchor x="1398" y="1064" name="pos"/>
  <anchor x="433" y="-120" name="bottom"/>
  <outline>
    <contour>
      <point x="472" y="-20" type="curve" smooth="yes"/>
      <point x="837" y="-20"/>
      <point x="1149" y="267"/>
      <point x="1149" y="643" type="curve" smooth="yes"/>
      <point x="1149" y="912"/>
      <point x="971" y="1084"/>
      <point x="712" y="1084" type="curve" smooth="yes"/>
      <point x="342" y="1084"/>
      <point x="34" y="772"/>
      <point x="34" y="397" type="curve" smooth="yes"/>
      <point x="34" y="135"/>
      <point x="224" y="-20"/>
    </contour>
    <contour>
      <point x="508" y="220" type="curve" smooth="yes"/>
      <point x="388" y="220"/>
      <point x="315" y="280"/>
      <point x="315" y="408" type="curve" smooth="yes"/>
      <point x="315" y="606"/>
      <point x="458" y="844"/>
      <point x="675" y="844" type="curve" smooth="yes"/>
      <point x="795" y="844"/>
      <point x="867" y="776"/>
      <point x="867" y="648" type="curve" smooth="yes"/>
      <point x="867" y="446"/>
      <point x="732" y="220"/>
    </contour>
  </outline>
  <guideline angle="90" name="vertical" x="732" y="0"/>
</glyph>
<glyph name="p" format="2">
  <advance width="1292"/>
  <unicode hex="0070"/>
  <outline>
    <contour>
      <point x="214" y="-449" type="line"/>
      <point x="351" y="100" type="line"/>
      <point x="408" y="15"/>
      <point x="522" y="-20"/>
      <point x="623" y="-20" type="curve" smooth="yes"/>
      <point x="978" y="-20"/>
      <point x="1208" y="346"/>
      <point x="1208" y="676" type="curve" smooth="yes"/>
      <point x="1208" y="912"/>
      <point x="1086" y="1084"/>
      <point x="842" y="1084" type="curve" smooth="yes"/>
      <point x="730" y="1084"/>
      <point x="626" y="1056"/>
      <point x="543" y="982" type="curve"/>
      <point x="559" y="1064" type="line"/>
      <point x="270" y="1064" type="line"/>
      <point x="-83" y="-449" type="line"/>
    </contour>
    <contour>
      <point x="585" y="240" type="curve" smooth="yes"/>
      <point x="474" y="240"/>
      <point x="403" y="294"/>
      <point x="403" y="414" type="curve" smooth="yes"/>
      <point x="403" y="616"/>
      <point x="528" y="834"/>
      <point x="744" y="834" type="curve" smooth="yes"/>
      <point x="858" y="834"/>
      <point x="925" y="775"/>
      <point x="925" y="655" type="curve" smooth="yes"/>
      <point x="925" y="459"/>
      <point x="804" y="240"/>
    </contour>
  </outline>
</glyph>
<glyph name="q" format="2">
  <advance width="1242"/>
  <unicode hex="0071"/>
  <outline>
    <contour>
      <point x="866" y="-449" type="line"/>
      <point x="1220" y="1064" type="line"/>
      <point x="934" y="1064" type="line"/>
      <point x="897" y="964" type="line"/>
      <point x="877" y="997"/>
      <point x="815" y="1043"/>
      <point x="742" y="1071"/>
      <point x="663" y="1084"/>
      <point x="626" y="1084" type="qcurve" smooth="yes"/>
      <point x="537" y="1084"/>
      <point x="381" y="1026"/>
      <point x="251" y="926"/>
      <point x="149" y="790"/>
      <point x="78" y="635"/>
      <point x="41" y="468"/>
      <point x="41" y="386" type="qcurve" smooth="yes"/>
      <point x="41" y="297"/>
      <point x="87" y="148"/>
      <point x="179" y="40"/>
      <point x="316" y="-20"/>
      <point x="407" y="-20" type="qcurve" smooth="yes"/>
      <point x="490" y="-20"/>
      <point x="644" y="26"/>
      <point x="706" y="82" type="qcurve"/>
      <point x="572" y="-449" type="line"/>
    </contour>
    <contour>
      <point x="505" y="240" type="qcurve" smooth="yes"/>
      <point x="463" y="240"/>
      <point x="397" y="260"/>
      <point x="350" y="303"/>
      <point x="325" y="369"/>
      <point x="325" y="414" type="qcurve" smooth="yes"/>
      <point x="325" y="464"/>
      <point x="345" y="565"/>
      <point x="386" y="657"/>
      <point x="444" y="737"/>
      <point x="520" y="797"/>
      <point x="612" y="830"/>
      <point x="666" y="830" type="qcurve" smooth="yes"/>
      <point x="709" y="830"/>
      <point x="776" y="810"/>
      <point x="822" y="766"/>
      <point x="846" y="700"/>
      <point x="846" y="654" type="qcurve" smooth="yes"/>
      <point x="846" y="606"/>
      <point x="825" y="506"/>
      <point x="786" y="414"/>
      <point x="728" y="334"/>
      <point x="652" y="274"/>
      <point x="559" y="240"/>
    </contour>
  </outline>
</glyph>
<glyph name="r" format="2">
  <advance width="877"/>
  <unicode hex="0072"/>
  <outline>
    <contour>
      <point x="303" y="0" type="line"/>
      <point x="418" y="500" type="line" smooth="yes"/>
      <point x="430" y="553"/>
      <point x="476" y="665"/>
      <point x="546" y="757"/>
      <point x="641" y="816"/>
      <point x="702" y="816" type="qcurve" smooth="yes"/>
      <point x="736" y="816"/>
      <point x="799" y="801"/>
      <point x="829" y="784" type="qcurve"/>
      <point x="1011" y="998" type="line"/>
      <point x="964" y="1041"/>
      <point x="843" y="1079"/>
      <point x="780" y="1079" type="qcurve" smooth="yes"/>
      <point x="735" y="1079"/>
      <point x="657" y="1054"/>
      <point x="591" y="1010"/>
      <point x="536" y="948"/>
      <point x="513" y="912" type="qcurve"/>
      <point x="542" y="1064" type="line"/>
      <point x="268" y="1064" type="line"/>
      <point x="25" y="0" type="line"/>
    </contour>
  </outline>
</glyph>
<glyph name="s" format="2">
  <advance width="978"/>
  <unicode hex="0073"/>
  <anchor x="417" y="2" name="m.uni0326"/>
  <anchor x="0" y="2" name="m.uni0328_1"/>
  <anchor x="590" y="1069" name="m.uni0308_2"/>
  <anchor x="0" y="2" name="m.uni031B_3_2"/>
  <outline>
    <contour>
      <point x="402" y="-20" type="curve" smooth="yes"/>
      <point x="621.726" y="-20"/>
      <point x="873" y="118.091"/>
      <point x="873" y="364" type="curve"/>
      <point x="877.028" y="545.272"/>
      <point x="753.391" y="609.671"/>
      <point x="594" y="661" type="curve" smooth="yes"/>
      <point x="543.253" y="677.239"/>
      <point x="436" y="707.553"/>
      <point x="436" y="776" type="curve"/>
      <point x="436" y="845.195"/>
      <point x="532.772" y="868"/>
      <point x="586" y="868" type="curve"/>
      <point x="682" y="868"/>
      <point x="744" y="823"/>
      <point x="766" y="748" type="curve"/>
      <point x="1003" y="843" type="line"/>
      <point x="945.7" y="1019.31"/>
      <point x="765.712" y="1086.79"/>
      <point x="594" y="1085" type="curve"/>
      <point x="374.021" y="1085"/>
      <point x="167.773" y="975.827"/>
      <point x="151" y="741" type="curve"/>
      <point x="148.033" y="559.997"/>
      <point x="273.165" y="512.948"/>
      <point x="425" y="465" type="curve" smooth="yes"/>
      <point x="476.303" y="448.451"/>
      <point x="589" y="422.346"/>
      <point x="589" y="351" type="curve" smooth="yes"/>
      <point x="589" y="287"/>
      <point x="517" y="215"/>
      <point x="401" y="215" type="curve" smooth="yes"/>
      <point x="290.343" y="215"/>
      <point x="233.109" y="273.829"/>
      <point x="207" y="375" type="curve"/>
      <point x="-30" y="301" type="line"/>
      <point x="-6.7621" y="86.0495"/>
      <point x="206.416" y="-20"/>
    </contour>
  </outline>
</glyph>
<glyph name="t" format="2">
  <advance width="824"/>
  <unicode hex="0074"/>
  <outline>
    <contour>
      <point x="415" y="-22" type="curve" smooth="yes"/>
      <point x="478" y="-22"/>
      <point x="574" y="-14"/>
      <point x="633" y="8" type="curve"/>
      <point x="684" y="279" type="line"/>
      <point x="630" y="250"/>
      <point x="571" y="229"/>
      <point x="506" y="229" type="curve" smooth="yes"/>
      <point x="458" y="229"/>
      <point x="412" y="237"/>
      <point x="412" y="298" type="curve" smooth="yes"/>
      <point x="412" y="349"/>
      <point x="431" y="418"/>
      <point x="442" y="467" type="curve" smooth="yes"/>
      <point x="526" y="828" type="line"/>
      <point x="806" y="828" type="line"/>
      <point x="863" y="1064" type="line"/>
      <point x="585" y="1064" type="line"/>
      <point x="691" y="1474" type="line"/>
      <point x="374" y="1302" type="line"/>
      <point x="316" y="1064" type="line"/>
      <point x="143" y="1064" type="line"/>
      <point x="87" y="828" type="line"/>
      <point x="257" y="828" type="line"/>
      <point x="144" y="315" type="line" smooth="yes"/>
      <point x="138" y="288"/>
      <point x="135" y="262"/>
      <point x="135" y="234" type="curve" smooth="yes"/>
      <point x="135" y="66"/>
      <point x="261" y="-22"/>
    </contour>
  </outline>
</glyph>
<glyph name="u" format="2">
  <advance width="1242"/>
  <unicode hex="0075"/>
  <outline>
    <contour>
      <point x="393" y="-24" type="qcurve" smooth="yes"/>
      <point x="437" y="-24"/>
      <point x="522" y="-9"/>
      <point x="602" y="21"/>
      <point x="676" y="65"/>
      <point x="708" y="94" type="qcurve"/>
      <point x="689" y="0" type="line"/>
      <point x="978" y="0" type="line"/>
      <point x="1223" y="1064" type="line"/>
      <point x="926" y="1064" type="line"/>
      <point x="813" y="570" type="line" smooth="yes"/>
      <point x="798" y="504"/>
      <point x="756" y="386"/>
      <point x="685" y="298"/>
      <point x="580" y="247"/>
      <point x="502" y="247" type="qcurve" smooth="yes"/>
      <point x="475" y="247"/>
      <point x="426" y="254"/>
      <point x="387" y="276"/>
      <point x="364" y="316"/>
      <point x="364" y="349" type="qcurve" smooth="yes"/>
      <point x="364" y="372"/>
      <point x="371" y="418"/>
      <point x="376" y="439" type="qcurve" smooth="yes"/>
      <point x="519" y="1064" type="line"/>
      <point x="227" y="1064" type="line"/>
      <point x="123" y="609" type="line" smooth="yes"/>
      <point x="109" y="549"/>
      <point x="92" y="465"/>
      <point x="82" y="399"/>
      <point x="78" y="346"/>
      <point x="78" y="318" type="qcurve" smooth="yes"/>
      <point x="78" y="242"/>
      <point x="118" y="116"/>
      <point x="198" y="26"/>
      <point x="315" y="-24"/>
    </contour>
  </outline>
</glyph>
<glyph name="v" format="2">
  <advance width="1079"/>
  <unicode hex="0076"/>
  <outline>
    <contour>
      <point x="538" y="0" type="line"/>
      <point x="1227" y="1064" type="line"/>
      <point x="906" y="1064" type="line"/>
      <point x="499" y="376" type="line"/>
      <point x="414" y="1064" type="line"/>
      <point x="100" y="1064" type="line"/>
      <point x="301" y="0" type="line"/>
    </contour>
  </outline>
</glyph>
<glyph name="w" format="2">
  <advance width="1562"/>
  <unicode hex="0077"/>
  <outline>
    <contour>
      <point x="457" y="-5" type="line"/>
      <point x="804" y="645" type="line"/>
      <point x="850" y="0" type="line"/>
      <point x="1111" y="0" type="line"/>
      <point x="1695" y="1064" type="line"/>
      <point x="1381" y="1064" type="line"/>
      <point x="1064" y="458" type="line"/>
      <point x="1020" y="1064" type="line"/>
      <point x="771" y="1064" type="line"/>
      <point x="444" y="456" type="line"/>
      <point x="418" y="1064" type="line"/>
      <point x="122" y="1064" type="line"/>
      <point x="208" y="-5" type="line"/>
    </contour>
  </outline>
</glyph>
<glyph name="x" format="2">
  <advance width="1141"/>
  <unicode hex="0078"/>
  <outline>
    <contour>
      <point x="1007" y="0" type="line"/>
      <point x="764" y="537" type="line"/>
      <point x="1261" y="1064" type="line"/>
      <point x="896" y="1064" type="line"/>
      <point x="604" y="727" type="line"/>
      <point x="472" y="1064" type="line"/>
      <point x="125" y="1064" type="line"/>
      <point x="364" y="537" type="line"/>
      <point x="-130" y="0" type="line"/>
      <point x="233" y="0" type="line"/>
      <point x="525" y="344" type="line"/>
      <point x="654" y="0" type="line"/>
    </contour>
  </outline>
</glyph>
<glyph name="y" format="2">
  <advance width="1121"/>
  <unicode hex="0079"/>
  <anchor x="674" y="1192" name="top"/>
  <anchor x="691" y="-205" name="bottom"/>
  <outline>
    <contour>
      <point x="289.792" y="-440.32" type="line"/>
      <point x="1260.54" y="1063.94" type="line"/>
      <point x="935.936" y="1063.94" type="line"/>
      <point x="509.952" y="373.76" type="line"/>
      <point x="417.792" y="1063.94" type="line"/>
      <point x="103.424" y="1063.94" type="line"/>
      <point x="282.624" y="48.1281" type="line"/>
      <point x="-33.7919" y="-440.32" type="line"/>
    </contour>
  </outline>
  <guideline angle="90" name="vertical" x="674" y="0"/>
</glyph>
<glyph name="z" format="2">
  <advance width="1096"/>
  <unicode hex="007A"/>
  <anchor x="680" y="1192" name="top"/>
  <outline>
    <contour>
      <point x="898.048" y="0" type="line"/>
      <point x="954.368" y="234.496" type="line"/>
      <point x="400.384" y="234.496" type="line"/>
      <point x="1099.78" y="869.376" type="line"/>
      <point x="1143.81" y="1063.94" type="line"/>
      <point x="204.8" y="1063.94" type="line"/>
      <point x="148.48" y="828.416" type="line"/>
      <point x="697.344" y="828.416" type="line"/>
      <point x="-30.72" y="181.248" type="line"/>
      <point x="-70.656" y="0" type="line"/>
    </contour>
  </outline>
  <guideline angle="90" name="vertical" x="680" y="0"/>
</glyph>
<glyph name="braceleft" format="2">
  <advance width="637"/>
  <unicode hex="007B"/>
  <outline>
    <contour>
      <point x="427.008" y="-168.96" type="line"/>
      <point x="468.992" y="14.336" type="line"/>
      <point x="398.336" y="14.336" type="line" smooth="yes"/>
      <point x="358.4" y="14.336"/>
      <point x="323.584" y="31.744"/>
      <point x="323.584" y="72.704" type="curve" smooth="yes"/>
      <point x="323.584" y="103.424"/>
      <point x="326.656" y="129.024"/>
      <point x="338.944" y="180.224" type="curve" smooth="yes"/>
      <point x="392.192" y="406.528" type="line" smooth="yes"/>
      <point x="400.384" y="443.392"/>
      <point x="406.528" y="479.232"/>
      <point x="406.528" y="513.024" type="curve" smooth="yes"/>
      <point x="406.528" y="577.536"/>
      <point x="385.024" y="635.904"/>
      <point x="319.488" y="677.888" type="curve"/>
      <point x="412.672" y="730.112"/>
      <point x="477.184" y="792.576"/>
      <point x="501.76" y="899.072" type="curve" smooth="yes"/>
      <point x="621.568" y="1423.36" type="line" smooth="yes"/>
      <point x="629.76" y="1457.15"/>
      <point x="649.216" y="1474.56"/>
      <point x="676.864" y="1474.56" type="curve" smooth="yes"/>
      <point x="803.84" y="1474.56" type="line"/>
      <point x="841.728" y="1640.45" type="line"/>
      <point x="694.272" y="1640.45" type="line" smooth="yes"/>
      <point x="506.88" y="1640.45"/>
      <point x="418.816" y="1550.34"/>
      <point x="377.856" y="1374.21" type="curve" smooth="yes"/>
      <point x="277.504" y="937.984" type="line" smooth="yes"/>
      <point x="260.096" y="862.208"/>
      <point x="184.32" y="801.792"/>
      <point x="100.352" y="790.528" type="curve"/>
      <point x="72.704" y="612.352" type="line"/>
      <point x="133.12" y="588.8"/>
      <point x="167.936" y="569.344"/>
      <point x="167.936" y="500.736" type="curve" smooth="yes"/>
      <point x="167.936" y="477.184"/>
      <point x="163.84" y="447.488"/>
      <point x="154.624" y="409.6" type="curve" smooth="yes"/>
      <point x="93.184" y="148.48" type="line" smooth="yes"/>
      <point x="84.992" y="111.616"/>
      <point x="78.848" y="75.776"/>
      <point x="78.848" y="37.888" type="curve" smooth="yes"/>
      <point x="78.848" y="-89.088"/>
      <point x="167.936" y="-168.96"/>
      <point x="310.272" y="-168.96" type="curve" smooth="yes"/>
    </contour>
  </outline>
  <guideline angle="77.1012" x="672" y="899"/>
</glyph>
<glyph name="bar" format="2">
  <advance width="636"/>
  <unicode hex="007C"/>
  <outline>
    <contour>
      <point x="182" y="-524" type="line"/>
      <point x="667" y="1571" type="line"/>
      <point x="460" y="1571" type="line"/>
      <point x="-25" y="-524" type="line"/>
    </contour>
  </outline>
</glyph>
<glyph name="braceright" format="2">
  <advance width="637"/>
  <unicode hex="007D"/>
  <outline>
    <contour>
      <point x="58" y="-169" type="line" smooth="yes"/>
      <point x="134" y="-169"/>
      <point x="239" y="-129"/>
      <point x="311" y="-53"/>
      <point x="356" y="56"/>
      <point x="372" y="125" type="qcurve" smooth="yes"/>
      <point x="455" y="492" type="line" smooth="yes"/>
      <point x="461" y="519"/>
      <point x="495" y="559"/>
      <point x="541" y="586"/>
      <point x="595" y="601"/>
      <point x="622" y="603" type="qcurve"/>
      <point x="649" y="781" type="line"/>
      <point x="606" y="789"/>
      <point x="547" y="833"/>
      <point x="547" y="879" type="qcurve" smooth="yes"/>
      <point x="547" y="887"/>
      <point x="556" y="933"/>
      <point x="568" y="988"/>
      <point x="582" y="1043"/>
      <point x="586" y="1061" type="qcurve" smooth="yes"/>
      <point x="653" y="1352" type="line" smooth="yes"/>
      <point x="659" y="1376"/>
      <point x="665" y="1423"/>
      <point x="665" y="1448" type="qcurve" smooth="yes"/>
      <point x="665" y="1500"/>
      <point x="634" y="1573"/>
      <point x="577" y="1619"/>
      <point x="498" y="1640"/>
      <point x="450" y="1640" type="qcurve" smooth="yes"/>
      <point x="318" y="1640" type="line"/>
      <point x="283" y="1475" type="line"/>
      <point x="360" y="1475" type="line" smooth="yes"/>
      <point x="387" y="1475"/>
      <point x="417" y="1427"/>
      <point x="417" y="1380" type="qcurve" smooth="yes"/>
      <point x="417" y="1362"/>
      <point x="411" y="1317"/>
      <point x="406" y="1291" type="qcurve"/>
      <point x="321" y="924" type="line" smooth="yes"/>
      <point x="319" y="916"/>
      <point x="316" y="901"/>
      <point x="313" y="886"/>
      <point x="312" y="872"/>
      <point x="312" y="864" type="qcurve" smooth="yes"/>
      <point x="312" y="812"/>
      <point x="358" y="732"/>
      <point x="403" y="703" type="qcurve"/>
      <point x="377" y="690"/>
      <point x="320" y="652"/>
      <point x="270" y="606"/>
      <point x="233" y="551"/>
      <point x="226" y="520" type="qcurve" smooth="yes"/>
      <point x="143" y="151" type="line" smooth="yes"/>
      <point x="137" y="123"/>
      <point x="117" y="75"/>
      <point x="84" y="40"/>
      <point x="38" y="19"/>
      <point x="6" y="19" type="qcurve" smooth="yes"/>
      <point x="-51" y="19" type="line"/>
      <point x="-94" y="-169" type="line"/>
    </contour>
  </outline>
</glyph>
<glyph name="asciitilde" format="2">
  <advance width="1182"/>
  <unicode hex="007E"/>
  <outline>
    <contour>
      <point x="751" y="388" type="curve" smooth="yes"/>
      <point x="843" y="388"/>
      <point x="910" y="411"/>
      <point x="954" y="456" type="curve" smooth="yes"/>
      <point x="997" y="500"/>
      <point x="1018" y="569"/>
      <point x="1018" y="660" type="curve"/>
      <point x="813" y="660" type="line"/>
      <point x="813" y="635"/>
      <point x="810" y="617"/>
      <point x="801" y="606" type="curve" smooth="yes"/>
      <point x="792" y="594"/>
      <point x="778" y="589"/>
      <point x="757" y="589" type="curve" smooth="yes"/>
      <point x="746" y="589"/>
      <point x="734" y="591"/>
      <point x="720" y="595" type="curve" smooth="yes"/>
      <point x="692" y="602"/>
      <point x="657" y="615"/>
      <point x="617" y="628" type="curve" smooth="yes"/>
      <point x="597" y="635"/>
      <point x="576" y="641"/>
      <point x="553" y="647" type="curve" smooth="yes"/>
      <point x="508" y="658"/>
      <point x="459" y="667"/>
      <point x="407" y="667" type="curve" smooth="yes"/>
      <point x="323" y="667"/>
      <point x="262" y="645"/>
      <point x="222" y="603" type="curve" smooth="yes"/>
      <point x="182" y="561"/>
      <point x="163" y="497"/>
      <point x="163" y="416" type="curve"/>
      <point x="359" y="416" type="line"/>
      <point x="362" y="439"/>
      <point x="366" y="452"/>
      <point x="375" y="460" type="curve" smooth="yes"/>
      <point x="383" y="468"/>
      <point x="394" y="470"/>
      <point x="409" y="470" type="curve" smooth="yes"/>
      <point x="422" y="470"/>
      <point x="436" y="468"/>
      <point x="451" y="464" type="curve" smooth="yes"/>
      <point x="480" y="456"/>
      <point x="514" y="444"/>
      <point x="551" y="429" type="curve" smooth="yes"/>
      <point x="570" y="422"/>
      <point x="590" y="415"/>
      <point x="611" y="409" type="curve" smooth="yes"/>
      <point x="653" y="397"/>
      <point x="698" y="388"/>
    </contour>
  </outline>
</glyph>
<glyph name="exclamdown" format="2">
  <advance width="650"/>
  <unicode hex="00A1"/>
  <outline>
    <contour>
      <point x="525.312" y="730.112" type="line"/>
      <point x="589.824" y="1022.98" type="line"/>
      <point x="294.912" y="1022.98" type="line"/>
      <point x="230.4" y="730.112" type="line"/>
    </contour>
    <contour>
      <point x="240.64" y="-444.416" type="line"/>
      <point x="444.416" y="569.344" type="line"/>
      <point x="233.472" y="569.344" type="line"/>
      <point x="-28.672" y="-444.416" type="line"/>
    </contour>
  </outline>
</glyph>
<glyph name="cent" format="2">
  <advance width="1229"/>
  <unicode hex="00A2"/>
  <outline>
    <contour>
      <point x="562" y="-210" type="line"/>
      <point x="611" y="-26" type="line"/>
      <point x="806" y="7"/>
      <point x="922" y="120"/>
      <point x="1022" y="282" type="curve"/>
      <point x="814" y="394" type="line"/>
      <point x="757" y="277"/>
      <point x="680" y="193"/>
      <point x="541" y="193" type="curve" smooth="yes"/>
      <point x="422" y="193"/>
      <point x="369" y="260"/>
      <point x="369" y="376" type="curve" smooth="yes"/>
      <point x="369" y="567"/>
      <point x="495" y="825"/>
      <point x="714" y="825" type="curve" smooth="yes"/>
      <point x="813" y="825"/>
      <point x="861" y="751"/>
      <point x="879" y="648" type="curve"/>
      <point x="1134" y="719" type="line"/>
      <point x="1101" y="881"/>
      <point x="1016" y="1011"/>
      <point x="843" y="1038" type="curve"/>
      <point x="895" y="1229" type="line"/>
      <point x="686" y="1229" type="line"/>
      <point x="636" y="1043" type="line"/>
      <point x="320" y="981"/>
      <point x="119" y="684"/>
      <point x="119" y="371" type="curve" smooth="yes"/>
      <point x="119" y="180"/>
      <point x="210" y="24"/>
      <point x="406" y="-19" type="curve"/>
      <point x="355" y="-210" type="line"/>
    </contour>
  </outline>
</glyph>
<glyph name="sterling" format="2">
  <advance width="1214"/>
  <unicode hex="00A3"/>
  <outline>
    <contour>
      <point x="1087.49" y="0" type="line"/>
      <point x="1140.74" y="228.352" type="line"/>
      <point x="437.248" y="228.352" type="line"/>
      <point x="567.296" y="257.024"/>
      <point x="618.496" y="503.808"/>
      <point x="618.496" y="614.4" type="curve"/>
      <point x="1062.91" y="614.4" type="line"/>
      <point x="1116.16" y="836.608" type="line"/>
      <point x="619.52" y="836.608" type="line"/>
      <point x="611.328" y="869.376"/>
      <point x="608.256" y="904.192"/>
      <point x="608.256" y="936.96" type="curve" smooth="yes"/>
      <point x="608.256" y="1089.54"/>
      <point x="718.848" y="1251.33"/>
      <point x="883.712" y="1251.33" type="curve" smooth="yes"/>
      <point x="987.136" y="1251.33"/>
      <point x="1057.79" y="1193.98"/>
      <point x="1073.15" y="1090.56" type="curve"/>
      <point x="1298.43" y="1145.86" type="line"/>
      <point x="1278.98" y="1337.34"/>
      <point x="1115.14" y="1484.8"/>
      <point x="923.648" y="1484.8" type="curve" smooth="yes"/>
      <point x="623.616" y="1484.8"/>
      <point x="382.976" y="1261.57"/>
      <point x="382.976" y="950.272" type="curve" smooth="yes"/>
      <point x="382.976" y="911.36"/>
      <point x="386.048" y="873.472"/>
      <point x="392.192" y="836.608" type="curve"/>
      <point x="212.992" y="836.608" type="line"/>
      <point x="159.744" y="614.4" type="line"/>
      <point x="392.192" y="614.4" type="line"/>
      <point x="392.192" y="407.552"/>
      <point x="245.76" y="294.912"/>
      <point x="67.584" y="229.376" type="curve"/>
      <point x="15.36" y="0" type="line"/>
    </contour>
  </outline>
</glyph>
<glyph name="currency" format="2">
  <advance width="1229"/>
  <unicode hex="00A4"/>
  <outline>
    <contour>
      <point x="851.144" y="119.808" type="line"/>
      <point x="1026.25" y="270.336" type="line"/>
      <point x="939.208" y="365.568" type="line"/>
      <point x="1033.42" y="467.968"/>
      <point x="1092.81" y="595.968"/>
      <point x="1092.81" y="738.304" type="curve" smooth="yes"/>
      <point x="1092.81" y="795.648"/>
      <point x="1081.54" y="852.992"/>
      <point x="1057.99" y="906.24" type="curve"/>
      <point x="1198.28" y="1022.98" type="line"/>
      <point x="1082.57" y="1166.34" type="line"/>
      <point x="943.304" y="1052.67" type="line"/>
      <point x="866.504" y="1113.09"/>
      <point x="779.464" y="1139.71"/>
      <point x="682.184" y="1139.71" type="curve" smooth="yes"/>
      <point x="586.952" y="1139.71"/>
      <point x="494.792" y="1112.06"/>
      <point x="411.848" y="1063.94" type="curve"/>
      <point x="326.856" y="1168.38" type="line"/>
      <point x="153.8" y="1018.88" type="line"/>
      <point x="238.792" y="922.624" type="line"/>
      <point x="145.608" y="820.224"/>
      <point x="87.24" y="689.152"/>
      <point x="87.24" y="549.888" type="curve" smooth="yes"/>
      <point x="87.24" y="493.568"/>
      <point x="95.432" y="439.296"/>
      <point x="118.984" y="387.072" type="curve"/>
      <point x="-22.328" y="270.336" type="line"/>
      <point x="91.336" y="119.808" type="line"/>
      <point x="232.648" y="239.616" type="line"/>
      <point x="310.472" y="178.176"/>
      <point x="400.584" y="151.552"/>
      <point x="498.888" y="151.552" type="curve" smooth="yes"/>
      <point x="593.096" y="151.552"/>
      <point x="682.184" y="180.224"/>
      <point x="764.104" y="225.28" type="curve"/>
    </contour>
    <contour>
      <point x="519.368" y="361.472" type="curve" smooth="yes"/>
      <point x="393.416" y="361.472"/>
      <point x="299.208" y="447.488"/>
      <point x="299.208" y="575.488" type="curve" smooth="yes"/>
      <point x="299.208" y="768"/>
      <point x="495.816" y="931.84"/>
      <point x="683.208" y="931.84" type="curve" smooth="yes"/>
      <point x="807.112" y="931.84"/>
      <point x="902.344" y="846.848"/>
      <point x="902.344" y="719.872" type="curve" smooth="yes"/>
      <point x="902.344" y="528.384"/>
      <point x="703.688" y="361.472"/>
    </contour>
  </outline>
</glyph>
<glyph name="yen" format="2">
  <advance width="1229"/>
  <unicode hex="00A5"/>
  <outline>
    <contour>
      <point x="607" y="0" type="line"/>
      <point x="645" y="167" type="line"/>
      <point x="951" y="167" type="line"/>
      <point x="997" y="377" type="line"/>
      <point x="692" y="377" type="line"/>
      <point x="722" y="497" type="line"/>
      <point x="1028" y="497" type="line"/>
      <point x="1074" y="707" type="line"/>
      <point x="871" y="707" type="line"/>
      <point x="1524" y="1448" type="line"/>
      <point x="1238" y="1448" type="line"/>
      <point x="661" y="770" type="line"/>
      <point x="404" y="1448" type="line"/>
      <point x="126" y="1448" type="line"/>
      <point x="440" y="710" type="line"/>
      <point x="230" y="710" type="line"/>
      <point x="181" y="497" type="line"/>
      <point x="487" y="497" type="line"/>
      <point x="457" y="377" type="line"/>
      <point x="151" y="377" type="line"/>
      <point x="104" y="167" type="line"/>
      <point x="410" y="167" type="line"/>
      <point x="371" y="0" type="line"/>
    </contour>
  </outline>
</glyph>
<glyph name="brokenbar" format="2">
  <advance width="664"/>
  <unicode hex="00A6"/>
  <outline>
    <contour>
      <point x="504" y="749" type="line"/>
      <point x="680" y="1510" type="line"/>
      <point x="444" y="1510" type="line"/>
      <point x="268" y="749" type="line"/>
    </contour>
    <contour>
      <point x="259" y="-314" type="line"/>
      <point x="430" y="430" type="line"/>
      <point x="196" y="430" type="line"/>
      <point x="24" y="-314" type="line"/>
    </contour>
  </outline>
</glyph>
<glyph name="section" format="2">
  <advance width="1124"/>
  <unicode hex="00A7"/>
  <outline>
    <contour>
      <point x="553" y="-18" type="curve" smooth="yes"/>
      <point x="668" y="-18"/>
      <point x="771" y="6"/>
      <point x="844" y="58" type="curve" smooth="yes"/>
      <point x="917" y="109"/>
      <point x="962" y="187"/>
      <point x="962" y="294" type="curve" smooth="yes"/>
      <point x="962" y="391"/>
      <point x="914" y="463"/>
      <point x="853" y="514" type="curve" smooth="yes"/>
      <point x="792" y="565"/>
      <point x="716" y="595"/>
      <point x="657" y="610" type="curve" smooth="yes"/>
      <point x="540" y="640" type="line"/>
      <point x="516" y="647"/>
      <point x="491" y="658"/>
      <point x="473" y="675" type="curve" smooth="yes"/>
      <point x="455" y="692"/>
      <point x="441" y="714"/>
      <point x="441" y="739" type="curve" smooth="yes"/>
      <point x="441" y="771"/>
      <point x="464" y="800"/>
      <point x="493" y="824" type="curve" smooth="yes"/>
      <point x="521" y="848"/>
      <point x="556" y="866"/>
      <point x="584" y="873" type="curve"/>
      <point x="456" y="999" type="line"/>
      <point x="297" y="922"/>
      <point x="212" y="816"/>
      <point x="212" y="701" type="curve" smooth="yes"/>
      <point x="212" y="650"/>
      <point x="232" y="604"/>
      <point x="268" y="565" type="curve" smooth="yes"/>
      <point x="304" y="526"/>
      <point x="356" y="497"/>
      <point x="419" y="480" type="curve" smooth="yes"/>
      <point x="602" y="433" type="line" smooth="yes"/>
      <point x="627" y="426"/>
      <point x="661" y="412"/>
      <point x="687" y="392" type="curve" smooth="yes"/>
      <point x="713" y="372"/>
      <point x="732" y="346"/>
      <point x="732" y="315" type="curve" smooth="yes"/>
      <point x="732" y="280"/>
      <point x="710" y="253"/>
      <point x="678" y="233" type="curve" smooth="yes"/>
      <point x="645" y="213"/>
      <point x="600" y="203"/>
      <point x="556" y="203" type="curve" smooth="yes"/>
      <point x="512" y="203"/>
      <point x="468" y="216"/>
      <point x="429" y="242" type="curve" smooth="yes"/>
      <point x="390" y="268"/>
      <point x="360" y="305"/>
      <point x="344" y="354" type="curve"/>
      <point x="105" y="241" type="line"/>
      <point x="137" y="162"/>
      <point x="196" y="97"/>
      <point x="274" y="52" type="curve" smooth="yes"/>
      <point x="352" y="7"/>
      <point x="448" y="-18"/>
    </contour>
    <contour>
      <point x="849" y="447" type="line"/>
      <point x="918" y="483"/>
      <point x="969" y="524"/>
      <point x="1004" y="571" type="curve" smooth="yes"/>
      <point x="1039" y="618"/>
      <point x="1055" y="671"/>
      <point x="1055" y="732" type="curve" smooth="yes"/>
      <point x="1055" y="868"/>
      <point x="987" y="944"/>
      <point x="827" y="985" type="curve" smooth="yes"/>
      <point x="653" y="1030" type="line" smooth="yes"/>
      <point x="609" y="1042"/>
      <point x="577" y="1058"/>
      <point x="558" y="1078" type="curve" smooth="yes"/>
      <point x="538" y="1098"/>
      <point x="529" y="1122"/>
      <point x="529" y="1149" type="curve" smooth="yes"/>
      <point x="529" y="1184"/>
      <point x="547" y="1210"/>
      <point x="576" y="1228" type="curve" smooth="yes"/>
      <point x="605" y="1246"/>
      <point x="646" y="1255"/>
      <point x="694" y="1255" type="curve" smooth="yes"/>
      <point x="742" y="1255"/>
      <point x="786" y="1248"/>
      <point x="824" y="1235" type="curve" smooth="yes"/>
      <point x="862" y="1222"/>
      <point x="893" y="1200"/>
      <point x="918" y="1175" type="curve"/>
      <point x="1084" y="1320" type="line"/>
      <point x="1040" y="1365"/>
      <point x="991" y="1404"/>
      <point x="932" y="1429" type="curve" smooth="yes"/>
      <point x="873" y="1454"/>
      <point x="805" y="1468"/>
      <point x="724" y="1468" type="curve" smooth="yes"/>
      <point x="600" y="1468"/>
      <point x="497" y="1437"/>
      <point x="423" y="1384" type="curve" smooth="yes"/>
      <point x="349" y="1331"/>
      <point x="306" y="1255"/>
      <point x="306" y="1166" type="curve" smooth="yes"/>
      <point x="306" y="1063"/>
      <point x="356" y="992"/>
      <point x="422" y="942" type="curve" smooth="yes"/>
      <point x="488" y="892"/>
      <point x="569" y="863"/>
      <point x="633" y="847" type="curve" smooth="yes"/>
      <point x="722" y="824" type="line" smooth="yes"/>
      <point x="742" y="819"/>
      <point x="768" y="810"/>
      <point x="789" y="795" type="curve" smooth="yes"/>
      <point x="809" y="780"/>
      <point x="824" y="759"/>
      <point x="824" y="731" type="curve" smooth="yes"/>
      <point x="824" y="699"/>
      <point x="811" y="667"/>
      <point x="787" y="640" type="curve" smooth="yes"/>
      <point x="763" y="613"/>
      <point x="728" y="591"/>
      <point x="685" y="578" type="curve"/>
    </contour>
  </outline>
</glyph>
<glyph name="dieresis" format="2">
  <advance width="771"/>
  <unicode hex="00A8"/>
  <outline>
    <contour>
      <point x="303" y="1433" type="line"/>
      <point x="249" y="1192" type="line"/>
      <point x="470" y="1192" type="line"/>
      <point x="525" y="1433" type="line"/>
    </contour>
    <contour>
      <point x="671" y="1433" type="line"/>
      <point x="617" y="1192" type="line"/>
      <point x="838" y="1192" type="line"/>
      <point x="893" y="1433" type="line"/>
    </contour>
  </outline>
</glyph>
<glyph name="copyright" format="2">
  <advance width="1814"/>
  <unicode hex="00A9"/>
  <outline>
    <contour>
      <point x="957" y="-50" type="qcurve" smooth="yes"/>
      <point x="1080" y="-50"/>
      <point x="1302" y="3"/>
      <point x="1492" y="102"/>
      <point x="1645" y="243"/>
      <point x="1753" y="417"/>
      <point x="1811" y="622"/>
      <point x="1811" y="735" type="qcurve" smooth="yes"/>
      <point x="1811" y="855"/>
      <point x="1753" y="1064"/>
      <point x="1646" y="1239"/>
      <point x="1493" y="1376"/>
      <point x="1303" y="1470"/>
      <point x="1081" y="1520"/>
      <point x="957" y="1520" type="qcurve" smooth="yes"/>
      <point x="834" y="1520"/>
      <point x="617" y="1467"/>
      <point x="435" y="1368"/>
      <point x="291" y="1228"/>
      <point x="192" y="1054"/>
      <point x="139" y="849"/>
      <point x="139" y="735" type="qcurve" smooth="yes"/>
      <point x="139" y="616"/>
      <point x="192" y="407"/>
      <point x="292" y="233"/>
      <point x="436" y="95"/>
      <point x="618" y="0"/>
      <point x="835" y="-50"/>
    </contour>
    <contour>
      <point x="957" y="165" type="qcurve" smooth="yes"/>
      <point x="823" y="165"/>
      <point x="602" y="247"/>
      <point x="444" y="396"/>
      <point x="356" y="607"/>
      <point x="356" y="735" type="qcurve" smooth="yes"/>
      <point x="356" y="854"/>
      <point x="445" y="1062"/>
      <point x="604" y="1217"/>
      <point x="825" y="1306"/>
      <point x="957" y="1306" type="qcurve" smooth="yes"/>
      <point x="1046" y="1306"/>
      <point x="1204" y="1265"/>
      <point x="1338" y="1191"/>
      <point x="1444" y="1088"/>
      <point x="1519" y="961"/>
      <point x="1559" y="815"/>
      <point x="1559" y="735" type="qcurve" smooth="yes"/>
      <point x="1559" y="608"/>
      <point x="1470" y="398"/>
      <point x="1311" y="247"/>
      <point x="1090" y="165"/>
    </contour>
    <contour>
      <point x="967" y="259" type="qcurve" smooth="yes"/>
      <point x="1035" y="259"/>
      <point x="1147" y="290"/>
      <point x="1241" y="355"/>
      <point x="1319" y="457"/>
      <point x="1353" y="528" type="qcurve"/>
      <point x="1151" y="612" type="line"/>
      <point x="1132" y="572"/>
      <point x="1097" y="521"/>
      <point x="1057" y="491"/>
      <point x="1006" y="479"/>
      <point x="972" y="479" type="qcurve" smooth="yes"/>
      <point x="925" y="479"/>
      <point x="852" y="511"/>
      <point x="803" y="572"/>
      <point x="778" y="663"/>
      <point x="778" y="722" type="qcurve" smooth="yes"/>
      <point x="778" y="780"/>
      <point x="805" y="870"/>
      <point x="855" y="933"/>
      <point x="927" y="966"/>
      <point x="974" y="966" type="qcurve" smooth="yes"/>
      <point x="1007" y="966"/>
      <point x="1059" y="952"/>
      <point x="1101" y="920"/>
      <point x="1137" y="869"/>
      <point x="1153" y="831" type="qcurve"/>
      <point x="1353" y="916" type="line"/>
      <point x="1321" y="986"/>
      <point x="1245" y="1086"/>
      <point x="1152" y="1152"/>
      <point x="1040" y="1184"/>
      <point x="974" y="1184" type="qcurve" smooth="yes"/>
      <point x="884" y="1184"/>
      <point x="733" y="1117"/>
      <point x="624" y="996"/>
      <point x="563" y="830"/>
      <point x="563" y="731" type="qcurve" smooth="yes"/>
      <point x="563" y="626"/>
      <point x="622" y="453"/>
      <point x="729" y="328"/>
      <point x="877" y="259"/>
    </contour>
  </outline>
</glyph>
<glyph name="ordfeminine" format="2">
  <advance width="736"/>
  <unicode hex="00AA"/>
  <anchor x="703.848" y="792" name="ogonek"/>
  <anchor x="584.08" y="1590" name="top"/>
  <anchor x="618.711" y="1740" name="center"/>
  <anchor x="376.53" y="691" name="bottom"/>
  <outline>
    <contour>
      <point x="330.846" y="729" type="curve" smooth="yes"/>
      <point x="445.67" y="729"/>
      <point x="480.942" y="741.173"/>
      <point x="565.933" y="829" type="curve" name=".iv01"/>
      <point x="559.848" y="742" type="line"/>
      <point x="737.848" y="742" type="line"/>
      <point x="733.775" y="785"/>
      <point x="739.936" y="855"/>
      <point x="749.17" y="895" type="curve" smooth="yes"/>
      <point x="809.427" y="1156" type="line" smooth="yes" name=".sh01"/>
      <point x="851.431" y="1337.94"/>
      <point x="753.483" y="1468"/>
      <point x="574.458" y="1468" type="curve" smooth="yes" name=".dv04"/>
      <point x="422.263" y="1468"/>
      <point x="357.483" y="1435.45"/>
      <point x="243.366" y="1316" type="curve"/>
      <point x="364.356" y="1212" type="line" name=".sh04"/>
      <point x="418.605" y="1280.47"/>
      <point x="459.695" y="1305"/>
      <point x="538.826" y="1305" type="curve" smooth="yes" name=".dv03"/>
      <point x="616.711" y="1305"/>
      <point x="650.033" y="1249.59"/>
      <point x="628.427" y="1156" type="curve" name=".dv06"/>
      <point x="443.427" y="1156" type="line" smooth="yes"/>
      <point x="252.529" y="1156"/>
      <point x="155.283" y="1094.74"/>
      <point x="122.792" y="954" type="curve" smooth="yes" name=".sh02"/>
      <point x="95.2043" y="834.506"/>
      <point x="192.764" y="729"/>
    </contour>
    <contour>
      <point x="402.323" y="887" type="curve" smooth="yes" name=".dv02"/>
      <point x="344.397" y="887"/>
      <point x="305.89" y="915.444"/>
      <point x="314.33" y="952" type="curve" smooth="yes" name=".sh03"/>
      <point x="324.831" y="997.485"/>
      <point x="369.715" y="1022"/>
      <point x="442.491" y="1022" type="curve" smooth="yes" name=".sv01"/>
      <point x="597.491" y="1022" type="line" name=".dv05"/>
      <point x="577.425" y="935.084"/>
      <point x="485.017" y="887"/>
    </contour>
  </outline>
</glyph>
<glyph name="guillemotleft" format="2">
  <advance width="971"/>
  <unicode hex="00AB"/>
  <outline>
    <contour>
      <point x="375" y="151" type="line"/>
      <point x="425" y="382" type="line"/>
      <point x="278" y="521" type="line"/>
      <point x="493" y="665" type="line"/>
      <point x="542" y="896" type="line"/>
      <point x="1" y="521" type="line"/>
    </contour>
    <contour>
      <point x="745" y="151" type="line"/>
      <point x="795" y="382" type="line"/>
      <point x="650" y="521" type="line"/>
      <point x="863" y="665" type="line"/>
      <point x="913" y="896" type="line"/>
      <point x="373" y="521" type="line"/>
    </contour>
  </outline>
</glyph>
<glyph name="logicalnot" format="2">
  <advance width="1333"/>
  <unicode hex="00AC"/>
  <outline>
    <contour>
      <point x="1124.35" y="297.984" type="line"/>
      <point x="1124.35" y="816.128" type="line"/>
      <point x="131.072" y="816.128" type="line"/>
      <point x="131.072" y="567.296" type="line"/>
      <point x="856.064" y="567.296" type="line"/>
      <point x="856.064" y="297.984" type="line"/>
    </contour>
  </outline>
</glyph>
<glyph name="softhyphen" format="2">
  <advance width="1034"/>
  <unicode hex="00AD"/>
  <outline>
    <contour>
      <point x="960.691" y="490" type="line"/>
      <point x="1021.38" y="750" type="line"/>
      <point x="123.383" y="750" type="line"/>
      <point x="62.6913" y="490" type="line"/>
    </contour>
  </outline>
  <guideline angle="256.846" x="110.304" y="692"/>
  <guideline angle="76.8463" x="965.043" y="508"/>
  <guideline angle="0" x="0" y="488"/>
  <guideline angle="0" x="0" y="750"/>
</glyph>
<glyph name="uni00AD" format="2">
  <advance width="1034"/>
  <unicode hex="00AD"/>
  <outline>
    <contour>
      <point x="963" y="500" type="line"/>
      <point x="1026" y="770" type="line"/>
      <point x="128" y="770" type="line"/>
      <point x="65" y="500" type="line"/>
    </contour>
  </outline>
  <guideline angle="256.846" x="186" y="692"/>
  <guideline angle="76.8463" x="870" y="508"/>
  <guideline angle="0" x="0" y="508"/>
  <guideline angle="0" x="0" y="692"/>
</glyph>
<glyph name="registered" format="2">
  <advance width="1789"/>
  <unicode hex="00AE"/>
  <outline>
    <contour>
      <point x="895" y="-21" type="curve" smooth="yes"/>
      <point x="1325" y="-21"/>
      <point x="1675" y="270"/>
      <point x="1675" y="723" type="curve" smooth="yes"/>
      <point x="1675" y="1175"/>
      <point x="1325" y="1468"/>
      <point x="895" y="1468" type="curve" smooth="yes"/>
      <point x="465" y="1468"/>
      <point x="115" y="1175"/>
      <point x="115" y="723" type="curve" smooth="yes"/>
      <point x="115" y="270"/>
      <point x="465" y="-21"/>
    </contour>
    <contour>
      <point x="895" y="160" type="curve" smooth="yes"/>
      <point x="563" y="160"/>
      <point x="293" y="375"/>
      <point x="293" y="723" type="curve" smooth="yes"/>
      <point x="293" y="1073"/>
      <point x="563" y="1288"/>
      <point x="895" y="1288" type="curve" smooth="yes"/>
      <point x="1229" y="1288"/>
      <point x="1497" y="1073"/>
      <point x="1497" y="723" type="curve" smooth="yes"/>
      <point x="1497" y="375"/>
      <point x="1229" y="160"/>
    </contour>
    <contour>
      <point x="631" y="307" type="line"/>
      <point x="817" y="307" type="line"/>
      <point x="817" y="653" type="line"/>
      <point x="872" y="653" type="line"/>
      <point x="1069" y="307" type="line"/>
      <point x="1286" y="307" type="line"/>
      <point x="1059" y="669" type="line"/>
      <point x="1151" y="710"/>
      <point x="1208" y="796"/>
      <point x="1208" y="887" type="curve" smooth="yes"/>
      <point x="1208" y="1034"/>
      <point x="1085" y="1140"/>
      <point x="911" y="1140" type="curve" smooth="yes"/>
      <point x="631" y="1140" type="line"/>
    </contour>
    <contour>
      <point x="817" y="971" type="line"/>
      <point x="913" y="971" type="line" smooth="yes"/>
      <point x="981" y="971"/>
      <point x="1020" y="936"/>
      <point x="1020" y="882" type="curve" smooth="yes"/>
      <point x="1020" y="839"/>
      <point x="983" y="807"/>
      <point x="930" y="807" type="curve" smooth="yes"/>
      <point x="817" y="807" type="line"/>
    </contour>
  </outline>
</glyph>
<glyph name="macron" format="2">
  <advance width="848"/>
  <unicode hex="00AF"/>
  <outline>
    <contour>
      <point x="283" y="1252" type="line"/>
      <point x="861" y="1252" type="line"/>
      <point x="921.165" y="1512" type="line"/>
      <point x="343.165" y="1512" type="line"/>
    </contour>
  </outline>
</glyph>
<glyph name="degree" format="2">
  <advance width="701"/>
  <unicode hex="00B0"/>
  <outline>
    <contour>
      <point x="494" y="868" type="qcurve" smooth="yes"/>
      <point x="562" y="868"/>
      <point x="675" y="912"/>
      <point x="757" y="990"/>
      <point x="802" y="1097"/>
      <point x="802" y="1161" type="qcurve" smooth="yes"/>
      <point x="802" y="1229"/>
      <point x="759" y="1342"/>
      <point x="681" y="1423"/>
      <point x="573" y="1468"/>
      <point x="508" y="1468" type="qcurve" smooth="yes"/>
      <point x="443" y="1468"/>
      <point x="331" y="1424"/>
      <point x="249" y="1346"/>
      <point x="202" y="1239"/>
      <point x="202" y="1176" type="qcurve" smooth="yes"/>
      <point x="202" y="1109"/>
      <point x="246" y="996"/>
      <point x="323" y="914"/>
      <point x="430" y="868"/>
    </contour>
    <contour>
      <point x="501" y="1059" type="qcurve" smooth="yes"/>
      <point x="479" y="1059"/>
      <point x="439" y="1076"/>
      <point x="409" y="1106"/>
      <point x="392" y="1146"/>
      <point x="392" y="1168" type="qcurve" smooth="yes"/>
      <point x="392" y="1191"/>
      <point x="409" y="1231"/>
      <point x="439" y="1261"/>
      <point x="479" y="1278"/>
      <point x="501" y="1278" type="qcurve" smooth="yes"/>
      <point x="526" y="1278"/>
      <point x="567" y="1262"/>
      <point x="597" y="1233"/>
      <point x="614" y="1193"/>
      <point x="614" y="1168" type="qcurve" smooth="yes"/>
      <point x="614" y="1144"/>
      <point x="597" y="1104"/>
      <point x="568" y="1075"/>
      <point x="526" y="1059"/>
    </contour>
  </outline>
</glyph>
<glyph name="plusminus" format="2">
  <advance width="1364"/>
  <unicode hex="00B1"/>
  <outline>
    <contour>
      <point x="788.48" y="108.544" type="line"/>
      <point x="788.48" y="532.48" type="line"/>
      <point x="1255.42" y="532.48" type="line"/>
      <point x="1255.42" y="745.472" type="line"/>
      <point x="788.48" y="745.472" type="line"/>
      <point x="788.48" y="1170.43" type="line"/>
      <point x="576.512" y="1170.43" type="line"/>
      <point x="576.512" y="745.472" type="line"/>
      <point x="109.568" y="745.472" type="line"/>
      <point x="109.568" y="532.48" type="line"/>
      <point x="576.512" y="532.48" type="line"/>
      <point x="576.512" y="108.544" type="line"/>
    </contour>
    <contour>
      <point x="1252.35" y="-210.944" type="line"/>
      <point x="1252.35" y="0" type="line"/>
      <point x="111.616" y="0" type="line"/>
      <point x="111.616" y="-210.944" type="line"/>
    </contour>
  </outline>
</glyph>
<glyph name="twosuperior" format="2">
  <advance width="830"/>
  <unicode hex="00B2"/>
  <outline>
    <contour>
      <point x="705" y="498" type="line"/>
      <point x="752" y="696" type="line"/>
      <point x="319" y="696" type="line"/>
      <point x="350" y="713"/>
      <point x="384" y="732"/>
      <point x="421" y="755" type="curve" smooth="yes"/>
      <point x="495" y="800"/>
      <point x="572" y="855"/>
      <point x="644" y="919" type="curve" smooth="yes"/>
      <point x="680" y="950"/>
      <point x="712" y="984"/>
      <point x="741" y="1019" type="curve" smooth="yes"/>
      <point x="797" y="1089"/>
      <point x="834" y="1165"/>
      <point x="834" y="1244" type="curve" smooth="yes"/>
      <point x="834" y="1321"/>
      <point x="801" y="1378"/>
      <point x="751" y="1417" type="curve" smooth="yes"/>
      <point x="701" y="1456"/>
      <point x="633" y="1476"/>
      <point x="562" y="1476" type="curve" smooth="yes"/>
      <point x="462" y="1476"/>
      <point x="363" y="1434"/>
      <point x="284" y="1367" type="curve" smooth="yes"/>
      <point x="205" y="1299"/>
      <point x="148" y="1209"/>
      <point x="129" y="1110" type="curve"/>
      <point x="307" y="1085" type="line"/>
      <point x="323" y="1137"/>
      <point x="348" y="1185"/>
      <point x="384" y="1221" type="curve" smooth="yes"/>
      <point x="419" y="1256"/>
      <point x="465" y="1279"/>
      <point x="524" y="1279" type="curve" smooth="yes"/>
      <point x="551" y="1279"/>
      <point x="575" y="1276"/>
      <point x="592" y="1265" type="curve" smooth="yes"/>
      <point x="608" y="1254"/>
      <point x="620" y="1237"/>
      <point x="620" y="1206" type="curve" smooth="yes"/>
      <point x="620" y="1175"/>
      <point x="608" y="1141"/>
      <point x="584" y="1106" type="curve" smooth="yes"/>
      <point x="535" y="1035"/>
      <point x="457" y="964"/>
      <point x="362" y="897" type="curve" smooth="yes"/>
      <point x="314" y="863"/>
      <point x="266" y="832"/>
      <point x="219" y="803" type="curve" smooth="yes"/>
      <point x="124" y="745"/>
      <point x="34" y="697"/>
      <point x="-19" y="672" type="curve"/>
      <point x="-52" y="498" type="line"/>
    </contour>
  </outline>
</glyph>
<glyph name="threesuperior" format="2">
  <advance width="862"/>
  <unicode hex="00B3"/>
  <outline>
    <contour>
      <point x="428" y="472" type="curve" smooth="yes"/>
      <point x="645" y="472"/>
      <point x="888" y="595"/>
      <point x="888" y="840" type="curve" smooth="yes"/>
      <point x="888" y="914"/>
      <point x="862" y="974"/>
      <point x="797" y="1014" type="curve"/>
      <point x="874" y="1068"/>
      <point x="938" y="1162"/>
      <point x="938" y="1258" type="curve" smooth="yes"/>
      <point x="938" y="1416"/>
      <point x="794" y="1488"/>
      <point x="655" y="1488" type="curve" smooth="yes"/>
      <point x="471" y="1488"/>
      <point x="301" y="1371"/>
      <point x="260" y="1186" type="curve"/>
      <point x="441" y="1162" type="line"/>
      <point x="463" y="1239"/>
      <point x="542" y="1283"/>
      <point x="619" y="1283" type="curve" smooth="yes"/>
      <point x="672" y="1283"/>
      <point x="727" y="1264"/>
      <point x="727" y="1201" type="curve" smooth="yes"/>
      <point x="727" y="1122"/>
      <point x="633" y="1106"/>
      <point x="563" y="1106" type="curve" smooth="yes"/>
      <point x="469" y="1106" type="line"/>
      <point x="428" y="911" type="line"/>
      <point x="542" y="911" type="line" smooth="yes"/>
      <point x="594" y="911"/>
      <point x="684" y="905"/>
      <point x="684" y="834" type="curve" smooth="yes"/>
      <point x="684" y="722"/>
      <point x="547" y="675"/>
      <point x="455" y="675" type="curve" smooth="yes"/>
      <point x="388" y="675"/>
      <point x="312" y="699"/>
      <point x="312" y="778" type="curve" smooth="yes"/>
      <point x="312" y="791"/>
      <point x="313" y="806"/>
      <point x="316" y="816" type="curve"/>
      <point x="111" y="816" type="line"/>
      <point x="104" y="787"/>
      <point x="99" y="762"/>
      <point x="99" y="734" type="curve" smooth="yes"/>
      <point x="99" y="552"/>
      <point x="267" y="472"/>
    </contour>
  </outline>
</glyph>
<glyph name="acute" format="2">
  <advance width="550"/>
  <unicode hex="00B4"/>
  <outline>
    <contour>
      <point x="368" y="1192" type="line"/>
      <point x="759" y="1507" type="line"/>
      <point x="467" y="1507" type="line"/>
      <point x="165" y="1192" type="line"/>
    </contour>
  </outline>
</glyph>
<glyph name="micro" format="2">
  <advance width="1373"/>
  <unicode hex="00B5"/>
  <outline>
    <contour>
      <point x="473" y="-24" type="qcurve" smooth="yes"/>
      <point x="517" y="-24"/>
      <point x="602" y="-9"/>
      <point x="682" y="21"/>
      <point x="756" y="65"/>
      <point x="788" y="94" type="qcurve"/>
      <point x="769" y="0" type="line"/>
      <point x="1058" y="0" type="line"/>
      <point x="1303" y="1064" type="line"/>
      <point x="1006" y="1064" type="line"/>
      <point x="893" y="570" type="line" smooth="yes"/>
      <point x="878" y="504"/>
      <point x="836" y="386"/>
      <point x="765" y="298"/>
      <point x="660" y="247"/>
      <point x="582" y="247" type="qcurve" smooth="yes"/>
      <point x="555" y="247"/>
      <point x="506" y="254"/>
      <point x="467" y="276"/>
      <point x="444" y="316"/>
      <point x="444" y="349" type="qcurve" smooth="yes"/>
      <point x="444" y="372"/>
      <point x="451" y="418"/>
      <point x="456" y="439" type="qcurve" smooth="yes"/>
      <point x="599" y="1064" type="line"/>
      <point x="307" y="1064" type="line"/>
      <point x="-22" y="-266" type="line"/>
      <point x="251" y="-266" type="line"/>
      <point x="342" y="-2" type="line"/>
      <point x="371" y="-13"/>
      <point x="436" y="-24"/>
    </contour>
  </outline>
</glyph>
<glyph name="paragraph" format="2">
  <advance width="1262"/>
  <unicode hex="00B6"/>
  <outline>
    <contour>
      <point x="520.192" y="-251.904" type="line"/>
      <point x="912.384" y="1446.91" type="line"/>
      <point x="711.68" y="1446.91" type="line" smooth="yes"/>
      <point x="444.416" y="1446.91"/>
      <point x="163.84" y="1255.42"/>
      <point x="163.84" y="968.704" type="curve" smooth="yes"/>
      <point x="163.84" y="752.64"/>
      <point x="347.136" y="637.952"/>
      <point x="546.816" y="637.952" type="curve"/>
      <point x="334.848" y="-251.904" type="line"/>
    </contour>
    <contour>
      <point x="875.52" y="-251.904" type="line"/>
      <point x="1267.71" y="1446.91" type="line"/>
      <point x="1080.32" y="1446.91" type="line"/>
      <point x="688.128" y="-251.904" type="line"/>
    </contour>
  </outline>
</glyph>
<glyph name="periodcentered" format="2">
  <advance width="620"/>
  <unicode hex="00B7"/>
  <outline>
    <contour>
      <point x="353" y="651" type="curve" smooth="yes"/>
      <point x="452" y="651"/>
      <point x="538" y="730"/>
      <point x="538" y="831" type="curve" smooth="yes"/>
      <point x="538" y="910"/>
      <point x="479" y="971"/>
      <point x="400" y="971" type="curve" smooth="yes"/>
      <point x="302" y="971"/>
      <point x="219" y="894"/>
      <point x="219" y="795" type="curve" smooth="yes"/>
      <point x="219" y="716"/>
      <point x="270" y="651"/>
    </contour>
  </outline>
</glyph>
<glyph name="cedilla" format="2">
  <advance width="560"/>
  <unicode hex="00B8"/>
  <outline>
    <contour>
      <point x="60" y="-541" type="curve" smooth="yes"/>
      <point x="135" y="-541"/>
      <point x="199" y="-518"/>
      <point x="244" y="-476" type="curve" smooth="yes"/>
      <point x="288" y="-434"/>
      <point x="315" y="-373"/>
      <point x="315" y="-298" type="curve" smooth="yes"/>
      <point x="315" y="-234"/>
      <point x="296" y="-189"/>
      <point x="268" y="-158" type="curve" smooth="yes"/>
      <point x="240" y="-126"/>
      <point x="203" y="-110"/>
      <point x="166" y="-103" type="curve"/>
      <point x="257" y="0" type="line"/>
      <point x="95" y="0" type="line"/>
      <point x="-50" y="-174" type="line"/>
      <point x="-33" y="-205" type="line"/>
      <point x="47" y="-205" type="line" smooth="yes"/>
      <point x="71" y="-205"/>
      <point x="96" y="-211"/>
      <point x="116" y="-225" type="curve" smooth="yes"/>
      <point x="136" y="-239"/>
      <point x="150" y="-258"/>
      <point x="150" y="-289" type="curve" smooth="yes"/>
      <point x="150" y="-353"/>
      <point x="117" y="-386"/>
      <point x="54" y="-386" type="curve" smooth="yes"/>
      <point x="45" y="-386"/>
      <point x="31" y="-384"/>
      <point x="19" y="-380" type="curve" smooth="yes"/>
      <point x="7" y="-375"/>
      <point x="-3" y="-368"/>
      <point x="-10" y="-357" type="curve"/>
      <point x="-166" y="-395" type="line"/>
      <point x="-153" y="-438"/>
      <point x="-123" y="-475"/>
      <point x="-83" y="-500" type="curve" smooth="yes"/>
      <point x="-43" y="-525"/>
      <point x="7" y="-541"/>
    </contour>
  </outline>
</glyph>
<glyph name="onesuperior" format="2">
  <advance width="921"/>
  <unicode hex="00B9"/>
  <outline>
    <contour>
      <point x="638.144" y="935.664" type="line"/>
      <point x="900.288" y="1900.27" type="line"/>
      <point x="684.224" y="1900.27" type="line"/>
      <point x="657.6" y="1794.8"/>
      <point x="601.28" y="1777.39"/>
      <point x="530.624" y="1777.39" type="curve" smooth="yes"/>
      <point x="409.392" y="1777.39" type="line"/>
      <point x="365.76" y="1614.58" type="line"/>
      <point x="607.424" y="1614.58" type="line"/>
      <point x="422.08" y="935.664" type="line"/>
    </contour>
  </outline>
</glyph>
<glyph name="ordmasculine" format="2">
  <advance width="818"/>
  <unicode hex="00BA"/>
  <anchor x="637.44" y="1490.5" name="top"/>
  <anchor x="542.97" y="691.857" name="ogonek"/>
  <anchor x="1083.66" y="1404.74" name="pos"/>
  <anchor x="437.11" y="611.457" name="bottom"/>
  <outline>
    <contour>
      <point x="463.219" y="728.136" type="curve" smooth="yes"/>
      <point x="707.463" y="728.136"/>
      <point x="916.717" y="920.924"/>
      <point x="916.717" y="1172.72" type="curve" smooth="yes"/>
      <point x="916.717" y="1353.15"/>
      <point x="797.34" y="1468.42"/>
      <point x="623.761" y="1468.42" type="curve" smooth="yes"/>
      <point x="376.086" y="1468.42"/>
      <point x="169.576" y="1259.16"/>
      <point x="169.576" y="1008.06" type="curve" smooth="yes"/>
      <point x="169.576" y="832.42"/>
      <point x="297.187" y="728.136"/>
    </contour>
    <contour>
      <point x="487.231" y="889.365" type="curve" smooth="yes"/>
      <point x="406.96" y="889.365"/>
      <point x="358.248" y="929.157"/>
      <point x="358.248" y="1014.92" type="curve" smooth="yes"/>
      <point x="358.248" y="1147.33"/>
      <point x="453.613" y="1307.19"/>
      <point x="599.062" y="1307.19" type="curve" smooth="yes"/>
      <point x="679.334" y="1307.19"/>
      <point x="728.045" y="1261.91"/>
      <point x="728.045" y="1176.15" type="curve" smooth="yes"/>
      <point x="728.045" y="1040.99"/>
      <point x="637.483" y="889.364"/>
    </contour>
  </outline>
  <guideline angle="90" name="vertical" x="637.44" y="0"/>
</glyph>
<glyph name="guillemotright" format="2">
  <advance width="974"/>
  <unicode hex="00BB"/>
  <outline>
    <contour>
      <point x="60" y="151" type="line"/>
      <point x="72" y="158"/>
      <point x="92" y="172"/>
      <point x="120" y="191" type="curve" smooth="yes"/>
      <point x="176" y="230"/>
      <point x="250" y="280"/>
      <point x="331" y="336" type="curve" smooth="yes"/>
      <point x="371" y="363"/>
      <point x="409" y="390"/>
      <point x="446" y="415" type="curve" smooth="yes"/>
      <point x="518" y="465"/>
      <point x="578" y="505"/>
      <point x="601" y="521" type="curve"/>
      <point x="227" y="896" type="line"/>
      <point x="180" y="665" type="line"/>
      <point x="325" y="521" type="line"/>
      <point x="111" y="382" type="line"/>
    </contour>
    <contour>
      <point x="431" y="151" type="line"/>
      <point x="442" y="158"/>
      <point x="462" y="172"/>
      <point x="490" y="191" type="curve" smooth="yes"/>
      <point x="546" y="230"/>
      <point x="621" y="280"/>
      <point x="702" y="336" type="curve" smooth="yes"/>
      <point x="742" y="363"/>
      <point x="780" y="390"/>
      <point x="816" y="415" type="curve" smooth="yes"/>
      <point x="888" y="465"/>
      <point x="948" y="505"/>
      <point x="972" y="521" type="curve"/>
      <point x="599" y="896" type="line"/>
      <point x="552" y="665" type="line"/>
      <point x="695" y="521" type="line"/>
      <point x="481" y="382" type="line"/>
    </contour>
  </outline>
</glyph>
<glyph name="questiondown" format="2">
  <advance width="1006"/>
  <unicode hex="00BF"/>
  <outline>
    <contour>
      <point x="709.632" y="730.112" type="line"/>
      <point x="776.192" y="1022.98" type="line"/>
      <point x="480.256" y="1022.98" type="line"/>
      <point x="414.72" y="730.112" type="line"/>
    </contour>
    <contour>
      <point x="316.416" y="-444.416" type="curve" smooth="yes"/>
      <point x="582.656" y="-444.416"/>
      <point x="800.768" y="-274.432"/>
      <point x="857.088" y="-23.552" type="curve"/>
      <point x="618.496" y="0" type="line"/>
      <point x="585.728" y="-137.216"/>
      <point x="465.92" y="-233.472"/>
      <point x="330.752" y="-233.472" type="curve" smooth="yes"/>
      <point x="215.04" y="-233.472"/>
      <point x="152.576" y="-185.344"/>
      <point x="152.576" y="-97.28" type="curve" smooth="yes"/>
      <point x="152.576" y="9.216"/>
      <point x="261.12" y="94.208"/>
      <point x="410.624" y="173.056" type="curve" smooth="yes"/>
      <point x="561.152" y="251.904"/>
      <point x="590.848" y="312.32"/>
      <point x="606.208" y="382.976" type="curve" smooth="yes"/>
      <point x="647.168" y="573.44" type="line"/>
      <point x="412.672" y="573.44" type="line"/>
      <point x="393.216" y="484.352" type="line" smooth="yes"/>
      <point x="379.904" y="421.888"/>
      <point x="351.232" y="382.976"/>
      <point x="232.448" y="324.608" type="curve" smooth="yes"/>
      <point x="71.68" y="246.784"/>
      <point x="-82.944" y="95.232"/>
      <point x="-82.944" y="-81.92" type="curve" smooth="yes"/>
      <point x="-82.944" y="-305.152"/>
      <point x="70.656" y="-444.416"/>
    </contour>
  </outline>
</glyph>
<glyph name="AE" format="2">
  <advance width="1913"/>
  <unicode hex="00C6"/>
  <anchor x="1325" y="1620" name="top"/>
  <outline>
    <contour>
      <point x="1695.74" y="0" type="line"/>
      <point x="1753.09" y="250.88" type="line"/>
      <point x="987.136" y="250.88" type="line"/>
      <point x="1068.03" y="602.112" type="line"/>
      <point x="1743.87" y="602.112" type="line"/>
      <point x="1800.19" y="844.8" type="line"/>
      <point x="1124.35" y="844.8" type="line"/>
      <point x="1207.3" y="1203.2" type="line"/>
      <point x="1973.25" y="1203.2" type="line"/>
      <point x="2029.57" y="1447.94" type="line"/>
      <point x="791.552" y="1447.94" type="line"/>
      <point x="-123.904" y="0" type="line"/>
      <point x="172.032" y="0" type="line"/>
      <point x="355.328" y="314.368" type="line"/>
      <point x="738.304" y="314.368" type="line"/>
      <point x="667.648" y="0" type="line"/>
    </contour>
    <contour>
      <point x="787.456" y="533.504" type="line"/>
      <point x="497.664" y="533.504" type="line"/>
      <point x="918.528" y="1203.2" type="line"/>
      <point x="943.104" y="1203.2" type="line"/>
    </contour>
  </outline>
  <guideline angle="90" name="vertical" x="1325" y="0"/>
</glyph>
<glyph name="Ccedilla" format="2">
  <advance width="1466"/>
  <unicode hex="00C7"/>
  <outline>
    <contour>
      <point x="561" y="-541" type="curve" smooth="yes"/>
      <point x="636" y="-541"/>
      <point x="700" y="-518"/>
      <point x="745" y="-476" type="curve" smooth="yes"/>
      <point x="789" y="-434"/>
      <point x="816" y="-373"/>
      <point x="816" y="-298" type="curve" smooth="yes"/>
      <point x="816" y="-234"/>
      <point x="797" y="-189"/>
      <point x="769" y="-158" type="curve" smooth="yes"/>
      <point x="741" y="-126"/>
      <point x="704" y="-110"/>
      <point x="667" y="-103" type="curve"/>
      <point x="743" y="-18" type="line"/>
      <point x="884" y="-6"/>
      <point x="1010" y="35"/>
      <point x="1121" y="104" type="curve" smooth="yes"/>
      <point x="1232" y="173"/>
      <point x="1327" y="271"/>
      <point x="1407" y="394" type="curve"/>
      <point x="1163" y="526" type="line"/>
      <point x="1060" y="354"/>
      <point x="915" y="257"/>
      <point x="711" y="257" type="curve" smooth="yes"/>
      <point x="611" y="257"/>
      <point x="529" y="279"/>
      <point x="473" y="327" type="curve" smooth="yes"/>
      <point x="416" y="375"/>
      <point x="384" y="450"/>
      <point x="384" y="555" type="curve" smooth="yes"/>
      <point x="384" y="608"/>
      <point x="390" y="661"/>
      <point x="402" y="714" type="curve" smooth="yes"/>
      <point x="425" y="820"/>
      <point x="471" y="919"/>
      <point x="536" y="1004" type="curve" smooth="yes"/>
      <point x="569" y="1047"/>
      <point x="606" y="1084"/>
      <point x="648" y="1116" type="curve" smooth="yes"/>
      <point x="731" y="1179"/>
      <point x="830" y="1218"/>
      <point x="945" y="1218" type="curve" smooth="yes"/>
      <point x="1030" y="1218"/>
      <point x="1109" y="1198"/>
      <point x="1166" y="1154" type="curve" smooth="yes"/>
      <point x="1223" y="1110"/>
      <point x="1258" y="1044"/>
      <point x="1258" y="949" type="curve"/>
      <point x="1549" y="1034" type="line"/>
      <point x="1524" y="1179"/>
      <point x="1455" y="1288"/>
      <point x="1357" y="1361" type="curve" smooth="yes"/>
      <point x="1259" y="1433"/>
      <point x="1133" y="1470"/>
      <point x="990" y="1470" type="curve" smooth="yes"/>
      <point x="903" y="1470"/>
      <point x="820" y="1458"/>
      <point x="742" y="1435" type="curve" smooth="yes"/>
      <point x="585" y="1388"/>
      <point x="453" y="1302"/>
      <point x="347" y="1185" type="curve" smooth="yes"/>
      <point x="294" y="1126"/>
      <point x="249" y="1062"/>
      <point x="212" y="992" type="curve" smooth="yes"/>
      <point x="139" y="852"/>
      <point x="97" y="691"/>
      <point x="97" y="523" type="curve" smooth="yes"/>
      <point x="97" y="364"/>
      <point x="145" y="237"/>
      <point x="230" y="146" type="curve" smooth="yes"/>
      <point x="314" y="54"/>
      <point x="436" y="-1"/>
      <point x="583" y="-16" type="curve"/>
      <point x="451" y="-174" type="line"/>
      <point x="468" y="-205" type="line"/>
      <point x="548" y="-205" type="line" smooth="yes"/>
      <point x="572" y="-205"/>
      <point x="597" y="-211"/>
      <point x="617" y="-225" type="curve" smooth="yes"/>
      <point x="637" y="-239"/>
      <point x="651" y="-258"/>
      <point x="651" y="-289" type="curve" smooth="yes"/>
      <point x="651" y="-353"/>
      <point x="618" y="-386"/>
      <point x="555" y="-386" type="curve" smooth="yes"/>
      <point x="546" y="-386"/>
      <point x="532" y="-384"/>
      <point x="520" y="-380" type="curve" smooth="yes"/>
      <point x="508" y="-375"/>
      <point x="498" y="-368"/>
      <point x="491" y="-357" type="curve"/>
      <point x="335" y="-395" type="line"/>
      <point x="348" y="-438"/>
      <point x="378" y="-475"/>
      <point x="418" y="-500" type="curve" smooth="yes"/>
      <point x="458" y="-525"/>
      <point x="508" y="-541"/>
    </contour>
  </outline>
</glyph>
<glyph name="Eth" format="2">
  <advance width="1464"/>
  <unicode hex="00D0"/>
  <outline>
    <contour>
      <point x="158.72" y="835.584" type="line"/>
      <point x="112.64" y="624.64" type="line"/>
      <point x="880.64" y="624.64" type="line"/>
      <point x="926.72" y="835.584" type="line"/>
    </contour>
    <contour>
      <point x="521.664" y="0" type="line" smooth="yes"/>
      <point x="1087.94" y="0"/>
      <point x="1466.82" y="368.64"/>
      <point x="1466.82" y="924.672" type="curve" smooth="yes"/>
      <point x="1466.82" y="1309.7"/>
      <point x="1193.41" y="1446.91"/>
      <point x="845.248" y="1446.91" type="curve" smooth="yes"/>
      <point x="416.192" y="1446.91" type="line"/>
      <point x="83.392" y="0" type="line"/>
    </contour>
    <contour>
      <point x="545.216" y="266.24" type="curve" smooth="yes"/>
      <point x="434.624" y="266.24" type="line"/>
      <point x="645.568" y="1178.62" type="line"/>
      <point x="793.024" y="1178.62" type="line" smooth="yes"/>
      <point x="978.368" y="1178.62"/>
      <point x="1183.17" y="1160.19"/>
      <point x="1183.17" y="923.648" type="curve" smooth="yes"/>
      <point x="1183.17" y="531.456"/>
      <point x="954.816" y="266.24"/>
    </contour>
  </outline>
</glyph>
<glyph name="multiply" format="2">
  <advance width="1109"/>
  <unicode hex="00D7"/>
  <outline>
    <contour>
      <point x="222.208" y="160.768" type="line"/>
      <point x="553.984" y="489.472" type="line"/>
      <point x="854.016" y="189.44" type="line"/>
      <point x="1004.54" y="339.968" type="line"/>
      <point x="704.512" y="640" type="line"/>
      <point x="1032.19" y="970.752" type="line"/>
      <point x="884.736" y="1118.21" type="line"/>
      <point x="553.984" y="790.528" type="line"/>
      <point x="253.952" y="1090.56" type="line"/>
      <point x="103.424" y="940.032" type="line"/>
      <point x="403.456" y="640" type="line"/>
      <point x="74.752" y="308.224" type="line"/>
    </contour>
  </outline>
</glyph>
<glyph name="Oslash" format="2">
  <advance width="1565"/>
  <unicode hex="00D8"/>
  <outline>
    <contour>
      <point x="674" y="-20" type="qcurve" smooth="yes"/>
      <point x="805" y="-20"/>
      <point x="1038" y="49"/>
      <point x="1237" y="174"/>
      <point x="1395" y="347"/>
      <point x="1506" y="556"/>
      <point x="1566" y="792"/>
      <point x="1566" y="916" type="qcurve" smooth="yes"/>
      <point x="1566" y="970"/>
      <point x="1552" y="1076"/>
      <point x="1520" y="1175"/>
      <point x="1469" y="1267"/>
      <point x="1431" y="1308" type="qcurve"/>
      <point x="1549" y="1447" type="line"/>
      <point x="1341" y="1447" type="line"/>
      <point x="1304" y="1402" type="line"/>
      <point x="1230" y="1440"/>
      <point x="1071" y="1468"/>
      <point x="990" y="1468" type="qcurve" smooth="yes"/>
      <point x="861" y="1468"/>
      <point x="628" y="1400"/>
      <point x="430" y="1277"/>
      <point x="270" y="1105"/>
      <point x="157" y="896"/>
      <point x="96" y="657"/>
      <point x="96" y="528" type="qcurve" smooth="yes"/>
      <point x="96" y="475"/>
      <point x="111" y="371"/>
      <point x="144" y="273"/>
      <point x="195" y="182"/>
      <point x="231" y="141" type="qcurve"/>
      <point x="111" y="0" type="line"/>
      <point x="323" y="0" type="line"/>
      <point x="360" y="44" type="line"/>
      <point x="435" y="8"/>
      <point x="593" y="-20"/>
    </contour>
    <contour>
      <point x="430" y="378" type="line"/>
      <point x="415" y="414"/>
      <point x="402" y="492"/>
      <point x="402" y="531" type="qcurve" smooth="yes"/>
      <point x="402" y="609"/>
      <point x="435" y="771"/>
      <point x="499" y="922"/>
      <point x="592" y="1055"/>
      <point x="714" y="1154"/>
      <point x="863" y="1211"/>
      <point x="950" y="1211" type="qcurve" smooth="yes"/>
      <point x="994" y="1211"/>
      <point x="1078" y="1200"/>
      <point x="1117" y="1182" type="qcurve"/>
    </contour>
    <contour>
      <point x="713" y="236" type="qcurve" smooth="yes"/>
      <point x="669" y="236"/>
      <point x="585" y="246"/>
      <point x="546" y="264" type="qcurve"/>
      <point x="1233" y="1071" type="line"/>
      <point x="1249" y="1035"/>
      <point x="1261" y="956"/>
      <point x="1261" y="916" type="qcurve" smooth="yes"/>
      <point x="1261" y="838"/>
      <point x="1228" y="677"/>
      <point x="1165" y="525"/>
      <point x="1072" y="392"/>
      <point x="950" y="293"/>
      <point x="801" y="236"/>
    </contour>
  </outline>
</glyph>
<glyph name="Thorn" format="2">
  <advance width="1171"/>
  <unicode hex="00DE"/>
  <outline>
    <contour>
      <point x="59" y="0" type="line"/>
      <point x="318" y="0" type="line"/>
      <point x="409" y="395" type="line"/>
      <point x="610" y="395" type="line" smooth="yes"/>
      <point x="775" y="395"/>
      <point x="930" y="439"/>
      <point x="1043" y="530" type="curve" smooth="yes"/>
      <point x="1156" y="621"/>
      <point x="1229" y="756"/>
      <point x="1229" y="939" type="curve" smooth="yes"/>
      <point x="1229" y="1054"/>
      <point x="1190" y="1132"/>
      <point x="1124" y="1181" type="curve" smooth="yes"/>
      <point x="1058" y="1229"/>
      <point x="967" y="1250"/>
      <point x="863" y="1250" type="curve" smooth="yes"/>
      <point x="607" y="1250" type="line"/>
      <point x="652" y="1447" type="line"/>
      <point x="392" y="1447" type="line"/>
    </contour>
    <contour>
      <point x="463" y="632" type="line"/>
      <point x="558" y="1032" type="line"/>
      <point x="757" y="1032" type="line" smooth="yes"/>
      <point x="801" y="1032"/>
      <point x="855" y="1030"/>
      <point x="897" y="1012" type="curve" smooth="yes"/>
      <point x="939" y="994"/>
      <point x="969" y="963"/>
      <point x="969" y="904" type="curve" smooth="yes"/>
      <point x="969" y="813"/>
      <point x="931" y="745"/>
      <point x="872" y="700" type="curve" smooth="yes"/>
      <point x="813" y="655"/>
      <point x="733" y="632"/>
      <point x="650" y="632" type="curve" smooth="yes"/>
    </contour>
  </outline>
</glyph>
<glyph name="germandbls" format="2">
  <advance width="1239"/>
  <unicode hex="00DF"/>
  <outline>
    <contour>
      <point x="662" y="-18" type="curve" smooth="yes"/>
      <point x="779" y="-18"/>
      <point x="898" y="22"/>
      <point x="987" y="94" type="curve" smooth="yes"/>
      <point x="1075" y="165"/>
      <point x="1135" y="269"/>
      <point x="1135" y="393" type="curve" smooth="yes"/>
      <point x="1135" y="430"/>
      <point x="1129" y="464"/>
      <point x="1118" y="493" type="curve"/>
      <point x="1094" y="551"/>
      <point x="1059" y="594"/>
      <point x="1019" y="627" type="curve" smooth="yes"/>
      <point x="998" y="644"/>
      <point x="980" y="659"/>
      <point x="963" y="672" type="curve" smooth="yes"/>
      <point x="929" y="698"/>
      <point x="902" y="717"/>
      <point x="902" y="736" type="curve" smooth="yes"/>
      <point x="902" y="750"/>
      <point x="910" y="762"/>
      <point x="926" y="773" type="curve" smooth="yes"/>
      <point x="958" y="794"/>
      <point x="1008" y="818"/>
      <point x="1064" y="851" type="curve"/>
      <point x="1091" y="868"/>
      <point x="1117" y="889"/>
      <point x="1141" y="914" type="curve" smooth="yes"/>
      <point x="1189" y="964"/>
      <point x="1225" y="1034"/>
      <point x="1225" y="1141" type="curve" smooth="yes"/>
      <point x="1225" y="1245"/>
      <point x="1176" y="1328"/>
      <point x="1102" y="1384" type="curve" smooth="yes"/>
      <point x="1028" y="1439"/>
      <point x="930" y="1468"/>
      <point x="831" y="1468" type="curve" smooth="yes"/>
      <point x="635" y="1468"/>
      <point x="505" y="1403"/>
      <point x="414" y="1298" type="curve" smooth="yes"/>
      <point x="323" y="1193"/>
      <point x="273" y="1046"/>
      <point x="234" y="885" type="curve" smooth="yes"/>
      <point x="27" y="0" type="line"/>
      <point x="314" y="0" type="line"/>
      <point x="547" y="998" type="line" smooth="yes"/>
      <point x="564" y="1073"/>
      <point x="591" y="1130"/>
      <point x="634" y="1170" type="curve" smooth="yes"/>
      <point x="677" y="1210"/>
      <point x="735" y="1231"/>
      <point x="816" y="1231" type="curve" smooth="yes"/>
      <point x="847" y="1231"/>
      <point x="882" y="1228"/>
      <point x="911" y="1216" type="curve"/>
      <point x="939" y="1203"/>
      <point x="959" y="1181"/>
      <point x="959" y="1142" type="curve" smooth="yes"/>
      <point x="959" y="1114"/>
      <point x="952" y="1091"/>
      <point x="937" y="1072" type="curve" smooth="yes"/>
      <point x="907" y="1034"/>
      <point x="860" y="1002"/>
      <point x="808" y="971" type="curve" smooth="yes"/>
      <point x="781" y="955"/>
      <point x="757" y="937"/>
      <point x="734" y="916" type="curve" smooth="yes"/>
      <point x="689" y="875"/>
      <point x="655" y="820"/>
      <point x="655" y="737" type="curve" smooth="yes"/>
      <point x="655" y="708"/>
      <point x="660" y="681"/>
      <point x="670" y="657" type="curve" smooth="yes"/>
      <point x="690" y="609"/>
      <point x="721" y="569"/>
      <point x="756" y="534" type="curve" smooth="yes"/>
      <point x="773" y="517"/>
      <point x="790" y="500"/>
      <point x="805" y="483" type="curve" smooth="yes"/>
      <point x="835" y="450"/>
      <point x="857" y="418"/>
      <point x="857" y="381" type="curve" smooth="yes"/>
      <point x="857" y="334"/>
      <point x="836" y="298"/>
      <point x="804" y="272" type="curve" smooth="yes"/>
      <point x="772" y="246"/>
      <point x="729" y="230"/>
      <point x="686" y="230" type="curve" smooth="yes"/>
      <point x="661" y="230"/>
      <point x="635" y="230"/>
      <point x="610" y="238" type="curve"/>
      <point x="469" y="14" type="line"/>
      <point x="500" y="5"/>
      <point x="532" y="-5"/>
      <point x="564" y="-10" type="curve" smooth="yes"/>
      <point x="596" y="-15"/>
      <point x="629" y="-18"/>
    </contour>
  </outline>
</glyph>
<glyph name="ae" format="2">
  <advance width="1764"/>
  <unicode hex="00E6"/>
  <outline>
    <contour>
      <point x="306" y="707" type="line"/>
      <point x="333" y="736"/>
      <point x="403" y="786"/>
      <point x="482" y="822"/>
      <point x="565" y="842"/>
      <point x="604" y="842" type="qcurve" smooth="yes"/>
      <point x="636" y="842"/>
      <point x="697" y="834"/>
      <point x="745" y="809"/>
      <point x="775" y="759"/>
      <point x="775" y="717" type="qcurve" smooth="yes"/>
      <point x="775" y="698"/>
      <point x="771" y="659"/>
      <point x="767" y="638" type="qcurve"/>
      <point x="486" y="638" type="line" smooth="yes"/>
      <point x="393" y="638"/>
      <point x="213" y="599"/>
      <point x="71" y="510"/>
      <point x="-16" y="366"/>
      <point x="-16" y="260" type="qcurve" smooth="yes"/>
      <point x="-16" y="191"/>
      <point x="38" y="86"/>
      <point x="128" y="16"/>
      <point x="245" y="-20"/>
      <point x="308" y="-20" type="qcurve" smooth="yes"/>
      <point x="383" y="-20"/>
      <point x="529" y="11"/>
      <point x="661" y="68"/>
      <point x="771" y="148"/>
      <point x="808" y="197" type="qcurve"/>
      <point x="722" y="206" type="line"/>
      <point x="749" y="155"/>
      <point x="838" y="74"/>
      <point x="944" y="18"/>
      <point x="1060" y="-12"/>
      <point x="1114" y="-12" type="qcurve" smooth="yes"/>
      <point x="1185" y="-12"/>
      <point x="1313" y="8"/>
      <point x="1431" y="51"/>
      <point x="1541" y="116"/>
      <point x="1595" y="161" type="qcurve"/>
      <point x="1462" y="323" type="line"/>
      <point x="1433" y="293"/>
      <point x="1357" y="249"/>
      <point x="1273" y="219"/>
      <point x="1187" y="205"/>
      <point x="1148" y="205" type="qcurve" smooth="yes"/>
      <point x="1105" y="205"/>
      <point x="1031" y="232"/>
      <point x="976" y="279"/>
      <point x="945" y="342"/>
      <point x="945" y="377" type="qcurve" smooth="yes"/>
      <point x="945" y="391"/>
      <point x="951" y="423"/>
      <point x="956" y="440" type="qcurve"/>
      <point x="1680" y="440" type="line"/>
      <point x="1694" y="457"/>
      <point x="1713" y="522"/>
      <point x="1725" y="596"/>
      <point x="1731" y="667"/>
      <point x="1731" y="690" type="qcurve" smooth="yes"/>
      <point x="1731" y="881"/>
      <point x="1529" y="1077"/>
      <point x="1341" y="1077" type="qcurve" smooth="yes"/>
      <point x="1232" y="1077"/>
      <point x="1045" y="993"/>
      <point x="966" y="922" type="qcurve"/>
      <point x="942" y="964"/>
      <point x="871" y="1025"/>
      <point x="785" y="1063"/>
      <point x="690" y="1081"/>
      <point x="643" y="1081" type="qcurve" smooth="yes"/>
      <point x="492" y="1081"/>
      <point x="256" y="974"/>
      <point x="154" y="870" type="qcurve"/>
    </contour>
    <contour>
      <point x="1010" y="638" type="line"/>
      <point x="1031" y="684"/>
      <point x="1088" y="760"/>
      <point x="1159" y="814"/>
      <point x="1243" y="844"/>
      <point x="1292" y="844" type="qcurve" smooth="yes"/>
      <point x="1337" y="844"/>
      <point x="1404" y="824"/>
      <point x="1450" y="785"/>
      <point x="1473" y="729"/>
      <point x="1473" y="692" type="qcurve" smooth="yes"/>
      <point x="1473" y="680"/>
      <point x="1469" y="652"/>
      <point x="1467" y="638" type="qcurve"/>
    </contour>
    <contour>
      <point x="718" y="440" type="line"/>
      <point x="690" y="382"/>
      <point x="616" y="295"/>
      <point x="524" y="236"/>
      <point x="414" y="207"/>
      <point x="349" y="207" type="qcurve" smooth="yes"/>
      <point x="325" y="207"/>
      <point x="284" y="216"/>
      <point x="252" y="237"/>
      <point x="234" y="273"/>
      <point x="234" y="301" type="qcurve" smooth="yes"/>
      <point x="234" y="333"/>
      <point x="268" y="384"/>
      <point x="329" y="420"/>
      <point x="413" y="440"/>
      <point x="464" y="440" type="qcurve" smooth="yes"/>
    </contour>
  </outline>
</glyph>
<glyph name="ccedilla" format="2">
  <advance width="1065"/>
  <unicode hex="00E7"/>
  <outline>
    <contour>
      <point x="358" y="-541" type="qcurve" smooth="yes"/>
      <point x="414" y="-541"/>
      <point x="508" y="-507"/>
      <point x="575" y="-444"/>
      <point x="613" y="-354"/>
      <point x="613" y="-298" type="qcurve" smooth="yes"/>
      <point x="613" y="-250"/>
      <point x="587" y="-181"/>
      <point x="545" y="-134"/>
      <point x="492" y="-108"/>
      <point x="464" y="-103" type="qcurve"/>
      <point x="538" y="-19" type="line"/>
      <point x="681" y="-1"/>
      <point x="905" y="155"/>
      <point x="977" y="282" type="qcurve"/>
      <point x="734" y="409" type="line"/>
      <point x="715" y="373"/>
      <point x="664" y="313"/>
      <point x="602" y="269"/>
      <point x="530" y="244"/>
      <point x="489" y="244" type="qcurve" smooth="yes"/>
      <point x="450" y="244"/>
      <point x="385" y="264"/>
      <point x="339" y="305"/>
      <point x="314" y="369"/>
      <point x="314" y="412" type="qcurve" smooth="yes"/>
      <point x="314" y="460"/>
      <point x="335" y="557"/>
      <point x="374" y="646"/>
      <point x="431" y="724"/>
      <point x="504" y="780"/>
      <point x="593" y="813"/>
      <point x="644" y="813" type="qcurve" smooth="yes"/>
      <point x="676" y="813"/>
      <point x="731" y="794"/>
      <point x="772" y="757"/>
      <point x="796" y="705"/>
      <point x="796" y="673" type="qcurve"/>
      <point x="1087" y="759" type="line"/>
      <point x="1073" y="835"/>
      <point x="1001" y="955"/>
      <point x="896" y="1038"/>
      <point x="761" y="1081"/>
      <point x="683" y="1081" type="qcurve" smooth="yes"/>
      <point x="591" y="1081"/>
      <point x="424" y="1031"/>
      <point x="280" y="940"/>
      <point x="163" y="814"/>
      <point x="80" y="662"/>
      <point x="35" y="490"/>
      <point x="35" y="399" type="qcurve" smooth="yes"/>
      <point x="35" y="311"/>
      <point x="82" y="167"/>
      <point x="171" y="60"/>
      <point x="299" y="-6"/>
      <point x="378" y="-18" type="qcurve"/>
      <point x="248" y="-174" type="line"/>
      <point x="265" y="-205" type="line"/>
      <point x="345" y="-205" type="line" smooth="yes"/>
      <point x="363" y="-205"/>
      <point x="399" y="-214"/>
      <point x="429" y="-235"/>
      <point x="448" y="-266"/>
      <point x="448" y="-289" type="qcurve" smooth="yes"/>
      <point x="448" y="-337"/>
      <point x="399" y="-386"/>
      <point x="352" y="-386" type="qcurve" smooth="yes"/>
      <point x="345" y="-386"/>
      <point x="326" y="-383"/>
      <point x="308" y="-376"/>
      <point x="293" y="-365"/>
      <point x="288" y="-357" type="qcurve"/>
      <point x="132" y="-395" type="line"/>
      <point x="142" y="-427"/>
      <point x="185" y="-481"/>
      <point x="245" y="-519"/>
      <point x="318" y="-541"/>
    </contour>
  </outline>
</glyph>
<glyph name="eth" format="2">
  <advance width="1234"/>
  <unicode hex="00F0"/>
  <outline>
    <contour>
      <point x="506" y="-16" type="curve" smooth="yes"/>
      <point x="585" y="-16"/>
      <point x="658" y="-5"/>
      <point x="723" y="18" type="curve" smooth="yes"/>
      <point x="854" y="63"/>
      <point x="958" y="145"/>
      <point x="1034" y="255" type="curve" smooth="yes"/>
      <point x="1072" y="310"/>
      <point x="1104" y="369"/>
      <point x="1129" y="434" type="curve" smooth="yes"/>
      <point x="1180" y="562"/>
      <point x="1204" y="708"/>
      <point x="1204" y="853" type="curve" smooth="yes"/>
      <point x="1204" y="1112"/>
      <point x="1101" y="1298"/>
      <point x="889" y="1441" type="curve"/>
      <point x="983" y="1537" type="line"/>
      <point x="884" y="1595" type="line"/>
      <point x="781" y="1496" type="line"/>
      <point x="737" y="1517"/>
      <point x="692" y="1535"/>
      <point x="647" y="1550" type="curve"/>
      <point x="479" y="1357" type="line"/>
      <point x="520" y="1346"/>
      <point x="568" y="1336"/>
      <point x="601" y="1324" type="curve"/>
      <point x="508" y="1233" type="line"/>
      <point x="609" y="1168" type="line"/>
      <point x="722" y="1279" type="line"/>
      <point x="793" y="1248"/>
      <point x="846" y="1211"/>
      <point x="883" y="1163" type="curve" smooth="yes"/>
      <point x="920" y="1115"/>
      <point x="942" y="1057"/>
      <point x="947" y="985" type="curve"/>
      <point x="908" y="1024"/>
      <point x="868" y="1048"/>
      <point x="824" y="1064" type="curve" smooth="yes"/>
      <point x="779" y="1080"/>
      <point x="730" y="1085"/>
      <point x="677" y="1085" type="curve" smooth="yes"/>
      <point x="617" y="1085"/>
      <point x="560" y="1077"/>
      <point x="505" y="1062" type="curve" smooth="yes"/>
      <point x="395" y="1030"/>
      <point x="299" y="971"/>
      <point x="222" y="890" type="curve" smooth="yes"/>
      <point x="183" y="849"/>
      <point x="150" y="805"/>
      <point x="123" y="756" type="curve" smooth="yes"/>
      <point x="68" y="659"/>
      <point x="37" y="545"/>
      <point x="37" y="425" type="curve" smooth="yes"/>
      <point x="37" y="278"/>
      <point x="85" y="169"/>
      <point x="169" y="95" type="curve" smooth="yes"/>
      <point x="252" y="21"/>
      <point x="369" y="-16"/>
    </contour>
    <contour>
      <point x="530" y="241" type="curve" smooth="yes"/>
      <point x="467" y="241"/>
      <point x="412" y="256"/>
      <point x="373" y="289" type="curve" smooth="yes"/>
      <point x="334" y="321"/>
      <point x="311" y="371"/>
      <point x="311" y="442" type="curve" smooth="yes"/>
      <point x="311" y="476"/>
      <point x="316" y="510"/>
      <point x="325" y="544" type="curve" smooth="yes"/>
      <point x="343" y="611"/>
      <point x="375" y="674"/>
      <point x="421" y="727" type="curve" smooth="yes"/>
      <point x="444" y="753"/>
      <point x="469" y="776"/>
      <point x="497" y="795" type="curve" smooth="yes"/>
      <point x="553" y="834"/>
      <point x="619" y="857"/>
      <point x="690" y="857" type="curve" smooth="yes"/>
      <point x="754" y="857"/>
      <point x="806" y="839"/>
      <point x="842" y="805" type="curve" smooth="yes"/>
      <point x="878" y="771"/>
      <point x="898" y="719"/>
      <point x="898" y="654" type="curve" smooth="yes"/>
      <point x="898" y="621"/>
      <point x="894" y="588"/>
      <point x="886" y="555" type="curve" smooth="yes"/>
      <point x="869" y="488"/>
      <point x="837" y="426"/>
      <point x="793" y="373" type="curve" smooth="yes"/>
      <point x="771" y="346"/>
      <point x="746" y="323"/>
      <point x="719" y="304" type="curve" smooth="yes"/>
      <point x="664" y="264"/>
      <point x="601" y="241"/>
    </contour>
  </outline>
</glyph>
<glyph name="divide" format="2">
  <advance width="1392"/>
  <unicode hex="00F7"/>
  <outline>
    <contour>
      <point x="845" y="831" type="line"/>
      <point x="845" y="1124" type="line"/>
      <point x="550" y="1124" type="line"/>
      <point x="550" y="831" type="line"/>
    </contour>
    <contour>
      <point x="1323" y="539" type="line"/>
      <point x="1323" y="750" type="line"/>
      <point x="72" y="750" type="line"/>
      <point x="72" y="539" type="line"/>
    </contour>
    <contour>
      <point x="845" y="146" type="line"/>
      <point x="845" y="441" type="line"/>
      <point x="550" y="441" type="line"/>
      <point x="550" y="146" type="line"/>
    </contour>
  </outline>
</glyph>
<glyph name="oslash" format="2">
  <advance width="1177"/>
  <unicode hex="00F8"/>
  <outline>
    <contour>
      <point x="476" y="-20" type="curve" smooth="yes"/>
      <point x="537" y="-20"/>
      <point x="595" y="-12"/>
      <point x="652" y="4" type="curve" smooth="yes"/>
      <point x="764" y="35"/>
      <point x="865" y="94"/>
      <point x="947" y="175" type="curve" smooth="yes"/>
      <point x="988" y="216"/>
      <point x="1023" y="261"/>
      <point x="1052" y="310" type="curve" smooth="yes"/>
      <point x="1111" y="409"/>
      <point x="1145" y="523"/>
      <point x="1145" y="646" type="curve" smooth="yes"/>
      <point x="1145" y="770"/>
      <point x="1109" y="879"/>
      <point x="1024" y="966" type="curve"/>
      <point x="1108" y="1064" type="line"/>
      <point x="961" y="1064" type="line"/>
      <point x="931" y="1030" type="line"/>
      <point x="859" y="1066"/>
      <point x="781" y="1077"/>
      <point x="701" y="1077" type="curve" smooth="yes"/>
      <point x="642" y="1077"/>
      <point x="585" y="1069"/>
      <point x="529" y="1053" type="curve" smooth="yes"/>
      <point x="416" y="1021"/>
      <point x="316" y="963"/>
      <point x="233" y="881" type="curve" smooth="yes"/>
      <point x="192" y="840"/>
      <point x="156" y="795"/>
      <point x="126" y="746" type="curve" smooth="yes"/>
      <point x="66" y="648"/>
      <point x="31" y="533"/>
      <point x="31" y="413" type="curve" smooth="yes"/>
      <point x="31" y="293"/>
      <point x="67" y="181"/>
      <point x="150" y="94" type="curve"/>
      <point x="68" y="-2" type="line"/>
      <point x="217" y="-2" type="line"/>
      <point x="243" y="29" type="line"/>
      <point x="316" y="-7"/>
      <point x="397" y="-20"/>
    </contour>
    <contour>
      <point x="330" y="314" type="line"/>
      <point x="317" y="343"/>
      <point x="311" y="375"/>
      <point x="311" y="408" type="curve" smooth="yes"/>
      <point x="311" y="441"/>
      <point x="315" y="475"/>
      <point x="322" y="510" type="curve" smooth="yes"/>
      <point x="337" y="579"/>
      <point x="365" y="643"/>
      <point x="406" y="698" type="curve" smooth="yes"/>
      <point x="427" y="725"/>
      <point x="450" y="749"/>
      <point x="477" y="770" type="curve" smooth="yes"/>
      <point x="530" y="810"/>
      <point x="595" y="836"/>
      <point x="671" y="836" type="curve" smooth="yes"/>
      <point x="699" y="836"/>
      <point x="726" y="833"/>
      <point x="754" y="824" type="curve"/>
    </contour>
    <contour>
      <point x="504" y="219" type="curve" smooth="yes"/>
      <point x="475" y="219"/>
      <point x="446" y="223"/>
      <point x="418" y="232" type="curve"/>
      <point x="843" y="745" type="line"/>
      <point x="859" y="716"/>
      <point x="863" y="682"/>
      <point x="863" y="647" type="curve" smooth="yes"/>
      <point x="863" y="614"/>
      <point x="859" y="580"/>
      <point x="852" y="546" type="curve"/>
      <point x="836" y="478"/>
      <point x="808" y="413"/>
      <point x="766" y="358" type="curve" smooth="yes"/>
      <point x="745" y="330"/>
      <point x="721" y="306"/>
      <point x="694" y="286" type="curve" smooth="yes"/>
      <point x="641" y="245"/>
      <point x="577" y="219"/>
    </contour>
  </outline>
</glyph>
<glyph name="thorn" format="2">
  <advance width="1225"/>
  <unicode hex="00FE"/>
  <outline>
    <contour>
      <point x="190" y="-449" type="line"/>
      <point x="321" y="71" type="line"/>
      <point x="357" y="39"/>
      <point x="399" y="17"/>
      <point x="444" y="2" type="curve"/>
      <point x="488" y="-14"/>
      <point x="536" y="-20"/>
      <point x="585" y="-20" type="curve" smooth="yes"/>
      <point x="643" y="-20"/>
      <point x="698" y="-10"/>
      <point x="750" y="9" type="curve" smooth="yes"/>
      <point x="854" y="48"/>
      <point x="944" y="116"/>
      <point x="1016" y="207" type="curve" smooth="yes"/>
      <point x="1051" y="252"/>
      <point x="1082" y="301"/>
      <point x="1107" y="353" type="curve" smooth="yes"/>
      <point x="1157" y="456"/>
      <point x="1185" y="569"/>
      <point x="1185" y="677" type="curve" smooth="yes"/>
      <point x="1185" y="798"/>
      <point x="1154" y="901"/>
      <point x="1091" y="973" type="curve" smooth="yes"/>
      <point x="1028" y="1044"/>
      <point x="934" y="1085"/>
      <point x="809" y="1085" type="curve" smooth="yes"/>
      <point x="702" y="1085"/>
      <point x="617" y="1065"/>
      <point x="526" y="1012" type="curve"/>
      <point x="646" y="1447" type="line"/>
      <point x="371" y="1447" type="line"/>
      <point x="-85" y="-449" type="line"/>
    </contour>
    <contour>
      <point x="573" y="222" type="curve" smooth="yes"/>
      <point x="514" y="222"/>
      <point x="467" y="237"/>
      <point x="435" y="268" type="curve" smooth="yes"/>
      <point x="402" y="299"/>
      <point x="385" y="345"/>
      <point x="385" y="409" type="curve" smooth="yes"/>
      <point x="385" y="442"/>
      <point x="389" y="475"/>
      <point x="397" y="509" type="curve" smooth="yes"/>
      <point x="412" y="577"/>
      <point x="440" y="642"/>
      <point x="481" y="698" type="curve" smooth="yes"/>
      <point x="502" y="726"/>
      <point x="525" y="750"/>
      <point x="552" y="771" type="curve" smooth="yes"/>
      <point x="604" y="812"/>
      <point x="668" y="839"/>
      <point x="740" y="839" type="curve" smooth="yes"/>
      <point x="800" y="839"/>
      <point x="847" y="825"/>
      <point x="879" y="794" type="curve" smooth="yes"/>
      <point x="911" y="763"/>
      <point x="929" y="718"/>
      <point x="929" y="654" type="curve" smooth="yes"/>
      <point x="929" y="621"/>
      <point x="925" y="588"/>
      <point x="918" y="554" type="curve" smooth="yes"/>
      <point x="902" y="485"/>
      <point x="873" y="420"/>
      <point x="833" y="364" type="curve" smooth="yes"/>
      <point x="812" y="336"/>
      <point x="789" y="312"/>
      <point x="763" y="291" type="curve" smooth="yes"/>
      <point x="710" y="249"/>
      <point x="646" y="222"/>
    </contour>
  </outline>
</glyph>
<glyph name="dcaron" format="2">
  <advance width="1512"/>
  <unicode hex="010F"/>
  <outline>
    <contour>
      <point x="1491.97" y="1002.5" type="line"/>
      <point x="1857.54" y="1446.91" type="line"/>
      <point x="1565.7" y="1446.91" type="line"/>
      <point x="1324.03" y="1002.5" type="line"/>
    </contour>
    <contour>
      <point x="407.552" y="-20.48" type="curve" smooth="yes"/>
      <point x="525.312" y="-20.48"/>
      <point x="634.88" y="11.264"/>
      <point x="717.824" y="93.184" type="curve"/>
      <point x="708.608" y="0" type="line"/>
      <point x="976.896" y="0" type="line"/>
      <point x="1324.03" y="1446.91" type="line"/>
      <point x="1028.1" y="1446.91" type="line"/>
      <point x="1009.24" y="1377.38"/>
      <point x="915.876" y="1033.1"/>
      <point x="897.024" y="963.584" type="curve"/>
      <point x="837.632" y="1049.6"/>
      <point x="728.064" y="1085.44"/>
      <point x="625.664" y="1085.44" type="curve" smooth="yes"/>
      <point x="271.36" y="1085.44"/>
      <point x="38.912" y="713.728"/>
      <point x="38.912" y="386.048" type="curve" smooth="yes"/>
      <point x="38.912" y="149.504"/>
      <point x="163.84" y="-20.48"/>
    </contour>
    <contour>
      <point x="503.808" y="238.592" type="curve" smooth="yes"/>
      <point x="393.216" y="238.592"/>
      <point x="322.56" y="292.864"/>
      <point x="322.56" y="412.672" type="curve" smooth="yes"/>
      <point x="322.56" y="606.208"/>
      <point x="451.584" y="832.512"/>
      <point x="665.6" y="832.512" type="curve" smooth="yes"/>
      <point x="781.312" y="832.512"/>
      <point x="844.8" y="777.216"/>
      <point x="844.8" y="655.36" type="curve" smooth="yes"/>
      <point x="844.8" y="456.704"/>
      <point x="723.968" y="238.592"/>
    </contour>
  </outline>
</glyph>
<glyph name="dcroat" format="2">
  <advance width="1253"/>
  <unicode hex="0111"/>
  <outline>
    <contour>
      <point x="742" y="1363" type="line"/>
      <point x="700" y="1180" type="line"/>
      <point x="1376" y="1180" type="line"/>
      <point x="1419" y="1363" type="line"/>
    </contour>
    <contour>
      <point x="408" y="-20" type="qcurve" smooth="yes"/>
      <point x="496" y="-20"/>
      <point x="655" y="31"/>
      <point x="718" y="93" type="qcurve"/>
      <point x="709" y="0" type="line"/>
      <point x="977" y="0" type="line"/>
      <point x="1324" y="1447" type="line"/>
      <point x="1028" y="1447" type="line"/>
      <point x="1024" y="1431"/>
      <point x="1003" y="1356"/>
      <point x="977" y="1259"/>
      <point x="948" y="1152"/>
      <point x="922" y="1055"/>
      <point x="901" y="980"/>
      <point x="897" y="964" type="qcurve"/>
      <point x="875" y="996"/>
      <point x="813" y="1042"/>
      <point x="742" y="1072"/>
      <point x="664" y="1085"/>
      <point x="626" y="1085" type="qcurve" smooth="yes"/>
      <point x="537" y="1085"/>
      <point x="381" y="1027"/>
      <point x="251" y="927"/>
      <point x="148" y="791"/>
      <point x="77" y="635"/>
      <point x="39" y="468"/>
      <point x="39" y="386" type="qcurve" smooth="yes"/>
      <point x="39" y="297"/>
      <point x="86" y="148"/>
      <point x="178" y="40"/>
      <point x="316" y="-20"/>
    </contour>
    <contour>
      <point x="504" y="239" type="qcurve" smooth="yes"/>
      <point x="462" y="239"/>
      <point x="395" y="259"/>
      <point x="348" y="302"/>
      <point x="323" y="368"/>
      <point x="323" y="413" type="qcurve" smooth="yes"/>
      <point x="323" y="461"/>
      <point x="344" y="561"/>
      <point x="384" y="654"/>
      <point x="443" y="736"/>
      <point x="520" y="797"/>
      <point x="612" y="833"/>
      <point x="666" y="833" type="qcurve" smooth="yes"/>
      <point x="709" y="833"/>
      <point x="776" y="811"/>
      <point x="821" y="768"/>
      <point x="845" y="701"/>
      <point x="845" y="655" type="qcurve" smooth="yes"/>
      <point x="845" y="606"/>
      <point x="825" y="505"/>
      <point x="786" y="413"/>
      <point x="728" y="332"/>
      <point x="652" y="273"/>
      <point x="559" y="239"/>
    </contour>
  </outline>
</glyph>
